<svg width="155" height="138" viewBox="0 0 155 138" fill="none" xmlns="http://www.w3.org/2000/svg">
<path d="M106.034 95.4175L109.411 98.4616C110.768 99.5521 111.806 100.185 113.701 99.6073C112.554 101.044 111.405 102.439 110.124 103.753C94.6032 119.812 70.0467 125.321 48.5568 115.696C27.0144 106.046 14.7994 84.003 16.4814 61.7027C16.6188 59.8974 16.896 58.1546 17.1967 56.3594C18.0273 58.1579 19.1906 58.5111 20.9081 58.798L25.4279 59.2912C28.5273 59.6306 31.7244 62.4682 31.7013 65.7512C31.6635 80.7747 40.3047 95.1548 54.8584 101.674C69.3598 108.169 85.792 105.062 96.9803 95.1172C99.4398 92.9045 103.593 93.2334 106.034 95.4175Z" fill="#F5F5F5"/>
<path opacity="0.7" fill-rule="evenodd" clip-rule="evenodd" d="M91.7092 45.0948L91.4326 44.9636C88.963 43.7872 86.1693 43.6127 83.6739 44.5196C81.135 45.4469 79.0273 47.2869 77.8639 49.7189L73.4692 58.9266L86.9447 65.3942L86.9612 65.3596L86.9907 65.3738L96.2198 69.7738C97.4546 70.362 98.7493 70.6831 100.092 70.769C101.403 70.8434 102.742 70.6392 104.022 70.1973C105.27 69.7438 106.426 69.0411 107.436 68.1416C108.447 67.242 109.235 66.1546 109.811 64.9546C110.399 63.7226 110.719 62.4305 110.803 61.0898C110.876 59.7811 110.669 58.4441 110.225 57.1659C109.769 55.9197 109.064 54.7641 108.161 53.7542C107.259 52.7444 106.168 51.9555 104.966 51.3788L91.4671 44.9751C91.5484 45.014 91.6291 45.0539 91.7092 45.0948ZM96.779 51.0722C95.638 51.5167 94.6027 52.1722 93.7143 52.9995C92.704 53.899 91.9153 54.9865 91.3393 56.1865L87.4611 64.3121C88.5045 64.2782 89.5448 64.0845 90.5465 63.7297C93.0304 62.8547 95.1176 60.9713 96.2695 58.5713C97.3892 56.2308 97.56 53.5493 96.779 51.0722Z" fill="#DEDEDE"/>
<path opacity="0.7" fill-rule="evenodd" clip-rule="evenodd" d="M68.6543 37.6867C66.2252 38.6398 64.2581 40.4685 63.1415 42.8024C62.0101 45.2458 61.8827 48.0141 62.7601 50.6025C63.1143 51.5956 63.6166 52.5191 64.244 53.345L68.1572 45.146C69.2694 42.8212 69.4454 40.1599 68.6543 37.6867ZM76.0399 37.6458C76.2887 37.7413 76.5346 37.847 76.7768 37.9627L63.3013 31.4951C60.8637 30.3302 58.0265 30.1762 55.4876 31.1035C52.9167 32.0193 50.8295 33.9028 49.6661 36.3347C48.5026 38.7667 48.3522 41.5989 49.2846 44.1349C50.2055 46.7028 52.095 48.789 54.5326 49.9539L63.7617 54.3539L64.0149 54.4754L77.2266 60.8532L81.6212 51.6455C82.1972 50.4455 82.5285 49.1215 82.6128 47.7808C82.697 46.4401 82.4906 45.1031 82.0347 43.8569C81.5903 42.5787 80.8848 41.4232 79.9709 40.4452C79.0594 39.3599 77.9805 38.5391 76.7662 37.9944L76.0399 37.6458Z" fill="#DEDEDE"/>
<path d="M118.836 41.3563L113.913 37.3496C114.043 31.1547 123.048 32.1549 123.189 25.9281L128.124 29.9028C127.983 36.1296 118.966 35.1614 118.836 41.3563Z" fill="#C4C4C4"/>
<path opacity="0.7" d="M20.2003 23.2533L15.1472 25.4415C10.4599 22.8907 14.7821 16.3989 10.0743 13.8046L15.0953 11.6048C19.8032 14.1992 15.4809 20.6909 20.2003 23.2533Z" fill="#DEDEDE"/>
<path opacity="0.5" d="M140.965 88.9256L139.318 83.7515C142.408 79.3786 148.406 84.4207 151.496 80.0478L153.121 85.2858C150.021 89.5833 144.056 84.5527 140.965 88.9256Z" fill="#DEDEDE"/>
<path opacity="0.8" d="M66.3385 10.9759L62.5064 10.5725C60.5452 7.37809 65.4316 4.94953 63.4704 1.75513L67.2591 2.17903C69.2203 5.37342 64.3339 7.80199 66.3385 10.9759Z" fill="#C4C4C4"/>
</svg>
