<svg width="145" height="94" viewBox="0 0 145 94" fill="none" xmlns="http://www.w3.org/2000/svg">
<path id="Vector" d="M131.409 4.87375L138.073 4.24221C140.607 3.8559 142.326 3.36021 143.587 0.730312C144.003 3.40489 144.371 6.03886 144.521 8.73619C146.482 41.5553 128.008 73.6685 96.1754 87.3881C64.2648 101.141 28.2008 92.441 5.69373 68.4154C3.87284 66.4689 2.25899 64.4333 0.611675 62.32C3.38883 63.2098 4.93008 62.3001 6.95102 60.7232L11.9857 56.3131C15.4395 53.2902 21.6994 52.6484 25.2363 55.942C41.4897 70.9401 65.686 75.8864 87.2444 66.595C108.725 57.337 121.716 36.4251 122.07 14.3919C122.12 9.52197 126.611 5.34609 131.409 4.87375Z" fill="#F5F5F5"/>
</svg>
