<svg width="62" height="72" viewBox="0 0 62 72" fill="none" xmlns="http://www.w3.org/2000/svg">
<path id="Vector" d="M51.0396 0.250251C47.9805 1.57587 45.0233 3.10543 42.1681 4.9409C39.109 7.28623 36.5597 10.2434 34.8262 13.6084C32.5829 18.0951 31.9711 23.1936 32.9908 28.0882C33.5006 30.9434 34.6223 33.7986 36.2538 36.2459C37.8854 38.6932 40.0267 40.8346 42.474 42.4661C45.1253 44.0976 48.2864 44.7094 51.3455 44.4035C52.7731 44.1996 54.0987 43.5877 55.1184 42.568C56.1381 41.5483 56.8519 40.2227 56.9539 38.7951C57.1578 37.1636 56.9539 35.5321 56.444 34.1045C55.8322 32.5749 54.9144 31.2493 53.6908 30.2296C50.8356 27.7823 47.4706 26.2527 43.6977 25.7429C39.7208 25.1311 35.642 25.437 31.7671 26.6607C27.8922 27.7823 24.4252 29.8217 21.3661 32.473C18.307 35.0222 15.9617 38.2853 14.5341 42.0582C13.1065 45.8311 12.8006 49.808 13.4124 53.6829C14.0242 57.3538 15.7577 60.6168 18.307 63.2681C19.5306 64.4917 20.9583 65.3075 22.4878 65.9193C24.1194 66.5312 25.7509 66.7351 27.3824 66.5311C30.6455 66.3272 33.6026 64.8996 35.744 62.4523C36.6617 61.3306 37.2735 60.005 37.5795 58.5774C37.8854 57.1498 37.7834 55.7222 37.2736 54.3966C36.2538 51.7454 34.4184 49.4001 31.9711 47.8705C29.7277 46.4429 26.9745 45.7291 24.2213 45.8311C19.3267 46.239 14.7381 48.3804 11.2711 51.8474C8.51786 54.6006 6.27447 57.7617 4.54097 61.2287C3.21535 64.3898 1.78778 67.4489 0.15625 70.508C0.360191 67.041 1.17596 63.574 2.70551 60.4129C4.23507 56.538 6.37648 52.969 9.23165 49.808C13.1065 45.5252 18.409 42.772 24.1193 42.1602C27.7903 41.8542 31.4612 42.772 34.5203 44.7094C37.6814 46.6469 40.0267 49.604 41.2504 53.071C41.9642 55.1104 42.1681 57.2518 41.8622 59.2912C41.5563 61.4326 40.6385 63.574 39.211 65.3075C36.9676 67.8568 34.1124 69.6922 30.8494 70.6099C27.5863 71.5277 24.2213 71.5277 20.9583 70.508C18.7149 69.7942 16.5735 68.5706 14.84 66.939C11.373 63.676 9.12966 59.3932 8.31389 54.7026C7.39616 50.0119 7.80405 45.1173 9.53755 40.6306C11.2711 36.0419 14.1262 31.9631 17.7971 28.802C21.3661 25.6409 25.5469 23.1936 30.1356 21.868C34.7243 20.5424 39.5169 20.2365 44.2075 20.9503C48.7962 21.6641 53.181 23.7035 56.648 26.8646C58.4834 28.4961 59.809 30.5355 60.6248 32.7789C61.4405 35.0222 61.6445 37.4695 61.3386 39.9168C61.0327 42.3641 59.911 44.7094 58.0755 46.4429C56.342 48.0745 54.2007 48.9922 51.8553 49.2981C47.6745 49.706 43.4937 48.6863 40.0267 46.341C37.0696 44.4035 34.6223 41.8543 32.7868 38.7951C30.9514 35.838 29.7277 32.473 29.2179 29.006C28.3001 23.3976 29.2178 17.5853 32.073 12.5887C34.2144 8.91776 37.1715 5.85865 40.7405 3.6153C47.0627 -0.259583 51.1416 -0.0556602 51.0396 0.250251Z" fill="#EBEBEB"/>
</svg>
