<svg width="150" height="136" viewBox="0 0 150 136" fill="none" xmlns="http://www.w3.org/2000/svg">
<g id="Group 391">
<g id="Vector 11" opacity="0.4" filter="url(#filter0_f_3581_4016)">
<path d="M72.4642 119.461L12.0576 123.278L72.4642 128.941L126.654 123.278L72.4642 119.461Z" fill="black"/>
</g>
<g id="Group 387">
<path id="Vector" d="M76.1426 10.5632C73.767 10.5632 65.6898 10.5632 63.1835 7.166C62.766 6.68383 62.4932 6.09352 62.3965 5.46306C62.2999 4.83261 62.3833 4.18767 62.6372 3.60255C63.4449 1.22691 65.2978 0.561746 67.8041 0.775553C69.6712 1.0156 71.4722 1.62308 73.1032 2.56294C74.7342 3.50279 76.1628 4.75641 77.3067 6.2514C79.0171 3.80449 82.2718 -0.00840826 86.5954 0.811186C89.7313 1.39322 91.9169 3.93514 91.4655 6.56022C91.216 7.97373 89.5056 12.3093 77.6512 10.7295L76.5702 12.9744L76.1426 10.5632ZM67.5785 3.35312C66.2838 3.23433 65.5592 3.28184 65.2028 4.45778C64.9178 5.30113 65.1434 5.44368 65.3572 5.72875C66.6876 7.52236 71.9021 8.43698 75.5487 8.42511C74.6436 7.07407 73.4679 5.92568 72.0959 5.05261C70.724 4.17955 69.1857 3.60084 67.5785 3.35312V3.35312ZM78.9102 8.10439C86.251 8.92398 88.6147 7.1185 88.8166 5.95444C89.0186 4.79038 87.8664 3.5788 86.0728 3.19869C85.9384 3.18723 85.8033 3.18723 85.6689 3.19869C82.5093 2.90174 79.9793 6.38205 78.9102 8.14002V8.10439Z" fill="white"/>
<g id="Group" opacity="0.2">
<path id="Vector_2" opacity="0.2" d="M76.1436 10.5632C73.768 10.5632 65.6908 10.5632 63.1845 7.166C62.767 6.68383 62.4942 6.09352 62.3975 5.46306C62.3008 4.83261 62.3843 4.18767 62.6381 3.60255C63.4458 1.22691 65.2988 0.561746 67.8051 0.775553C69.6721 1.0156 71.4732 1.62308 73.1041 2.56294C74.7351 3.50279 76.1638 4.75641 77.3077 6.2514C79.0181 3.80449 82.2727 -0.00840826 86.5964 0.811186C89.7322 1.39322 91.9178 3.93514 91.4665 6.56022C91.217 7.97373 89.5066 12.3093 77.6521 10.7295L76.5712 12.9744L76.1436 10.5632ZM67.5795 3.35312C66.2847 3.23433 65.5602 3.28184 65.2038 4.45778C64.9187 5.30113 65.1444 5.44368 65.3582 5.72875C66.6886 7.52236 71.9031 8.43698 75.5497 8.42511C74.6446 7.07407 73.4688 5.92568 72.0969 5.05261C70.7249 4.17955 69.1867 3.60084 67.5795 3.35312V3.35312ZM78.9112 8.10439C86.2519 8.92398 88.6157 7.1185 88.8176 5.95444C89.0195 4.79038 87.8674 3.5788 86.0738 3.19869C85.9394 3.18723 85.8043 3.18723 85.6699 3.19869C82.5103 2.90174 79.9803 6.38205 78.9112 8.14002V8.10439Z" fill="black"/>
</g>
<path id="Vector_3" d="M48.2352 42.4393L99.8799 46.894L102.94 11.415L51.2956 6.96024L48.2352 42.4393Z" fill="#CD2028"/>
<path id="Vector_4" opacity="0.1" d="M48.2352 42.4393L99.8799 46.894L102.94 11.415L51.2956 6.96024L48.2352 42.4393Z" fill="white"/>
<g id="Group_2" opacity="0.4">
<path id="Vector_5" opacity="0.4" d="M52.9434 9.6846C52.9434 10.2074 52.5869 10.6114 52.2423 10.5758C51.8977 10.5401 51.6482 10.1005 51.6958 9.57764C51.7433 9.05481 52.0641 8.66268 52.4087 8.68645C52.7533 8.71022 52.991 9.16177 52.9434 9.6846Z" fill="white"/>
<path id="Vector_6" opacity="0.4" d="M57.3865 10.124C57.3865 10.6469 57.0182 11.0509 56.6736 11.0152C56.329 10.9796 56.0913 10.5399 56.1389 10.0171C56.1864 9.49426 56.4954 9.10214 56.8399 9.1259C57.1845 9.14967 57.4222 9.55367 57.3865 10.124Z" fill="white"/>
<path id="Vector_7" opacity="0.4" d="M61.8181 10.4567C61.8181 10.9795 61.4616 11.3716 61.1171 11.3479C60.7725 11.3241 60.5348 10.8726 60.5704 10.3497C60.6061 9.82691 60.9388 9.4229 61.2834 9.45855C61.628 9.4942 61.8657 9.93385 61.8181 10.4567Z" fill="white"/>
<path id="Vector_8" opacity="0.4" d="M66.2596 10.8368C66.2596 11.3596 65.8912 11.7517 65.5585 11.728C65.2258 11.7042 64.9644 11.2526 65.0119 10.7298C65.0595 10.207 65.3684 9.80297 65.713 9.83862C66.0576 9.87426 66.3071 10.3139 66.2596 10.8368Z" fill="white"/>
<path id="Vector_9" opacity="0.4" d="M70.6911 11.2169C70.6911 11.7397 70.3346 12.1437 69.99 12.1081C69.6454 12.0724 69.4077 11.6328 69.4553 11.11C69.5028 10.5871 69.8117 10.195 70.1563 10.2188C70.5009 10.2425 70.7386 10.6941 70.6911 11.2169Z" fill="white"/>
<path id="Vector_10" opacity="0.4" d="M75.1348 11.597C75.1348 12.1198 74.7783 12.5239 74.4337 12.4882C74.0892 12.4526 73.8396 12.0129 73.8872 11.4901C73.9347 10.9672 74.2436 10.5751 74.5882 10.5989C74.9328 10.6226 75.1823 11.0742 75.1348 11.597Z" fill="white"/>
<path id="Vector_11" opacity="0.4" d="M79.5779 11.9771C79.5779 12.4999 79.2096 12.9039 78.865 12.8683C78.5204 12.8326 78.2827 12.393 78.3303 11.8701C78.3778 11.3473 78.6867 10.9552 79.0313 10.9789C79.3759 11.0027 79.6136 11.4661 79.5779 11.9771Z" fill="white"/>
<path id="Vector_12" opacity="0.4" d="M54.8699 13.3431C54.8699 13.8659 54.5016 14.258 54.157 14.2342C53.8124 14.2105 53.5747 13.7589 53.6223 13.2361C53.6698 12.7133 53.9787 12.3093 54.3233 12.3449C54.6679 12.3805 54.9175 12.8202 54.8699 13.3431Z" fill="white"/>
<path id="Vector_13" opacity="0.4" d="M59.3015 13.6875C59.3015 14.2103 58.945 14.6144 58.6004 14.5787C58.2558 14.5431 58.0182 14.1034 58.0538 13.5806C58.0895 13.0577 58.4222 12.6656 58.7668 12.6894C59.1114 12.7131 59.349 13.2003 59.3015 13.6875Z" fill="white"/>
<path id="Vector_14" opacity="0.4" d="M63.7417 14.1033C63.7417 14.6261 63.3853 15.0301 63.0407 14.9945C62.6961 14.9588 62.4466 14.5191 62.4941 13.9963C62.5416 13.4735 62.8506 13.0814 63.1952 13.1051C63.5398 13.1289 63.813 13.5804 63.7417 14.1033Z" fill="white"/>
<path id="Vector_15" opacity="0.4" d="M68.1725 14.4953C68.1725 15.0062 67.816 15.4102 67.4714 15.3865C67.1268 15.3627 66.8892 14.8993 66.9367 14.3883C66.9842 13.8774 67.2932 13.4615 67.6378 13.4971C67.9824 13.5328 68.22 13.9724 68.1725 14.4953Z" fill="white"/>
<path id="Vector_16" opacity="0.4" d="M72.6148 14.8753C72.6148 15.3982 72.2584 15.7903 71.9138 15.7665C71.5692 15.7428 71.3196 15.2912 71.3671 14.7684C71.4147 14.2455 71.7236 13.8415 72.0682 13.8772C72.4128 13.9128 72.6624 14.3525 72.6148 14.8753Z" fill="white"/>
<path id="Vector_17" opacity="0.4" d="M77.0564 15.2555C77.0564 15.7783 76.6881 16.1704 76.3435 16.1467C75.9989 16.1229 75.7613 15.6713 75.8088 15.1485C75.8563 14.6257 76.1653 14.2217 76.5099 14.2573C76.8544 14.293 77.0921 14.7326 77.0564 15.2555Z" fill="white"/>
<path id="Vector_18" opacity="0.4" d="M81.4861 15.6356C81.4861 16.1584 81.1296 16.5624 80.785 16.5268C80.4404 16.4911 80.2028 16.0515 80.2384 15.5286C80.274 15.0058 80.6068 14.6137 80.9514 14.6374C81.296 14.6612 81.5336 15.1127 81.4861 15.6356Z" fill="white"/>
<path id="Vector_19" opacity="0.4" d="M52.2925 17.251C52.2925 17.7738 51.9361 18.166 51.5915 18.1422C51.2469 18.1184 50.9973 17.6669 51.0449 17.1441C51.0924 16.6212 51.4013 16.2172 51.7459 16.2529C52.0905 16.2885 52.3401 16.7638 52.2925 17.251Z" fill="white"/>
<path id="Vector_20" opacity="0.4" d="M56.6873 17.6667C56.6873 18.1896 56.3189 18.5936 55.9744 18.5579C55.6298 18.5223 55.3921 18.0826 55.4396 17.5598C55.4872 17.0369 55.7961 16.6448 56.1407 16.6686C56.4853 16.6923 56.7705 17.1439 56.6873 17.6667Z" fill="white"/>
<path id="Vector_21" opacity="0.4" d="M61.1646 18.0468C61.1646 18.5697 60.8081 18.9737 60.4635 18.938C60.1189 18.9024 59.8694 18.4627 59.9169 17.9399C59.9645 17.4171 60.2853 17.0249 60.6299 17.0487C60.9745 17.0725 61.2121 17.5359 61.1646 18.0468Z" fill="white"/>
<path id="Vector_22" opacity="0.4" d="M65.6058 18.4389C65.6058 18.9617 65.2374 19.3538 64.8928 19.3301C64.5482 19.3063 64.3106 18.8429 64.3581 18.3319C64.4056 17.821 64.7146 17.4051 65.0592 17.4407C65.4038 17.4764 65.6414 17.916 65.6058 18.4389Z" fill="white"/>
<path id="Vector_23" opacity="0.4" d="M70.0373 18.8189C70.0373 19.3417 69.6809 19.7338 69.3363 19.7101C68.9917 19.6863 68.754 19.2348 68.7897 18.7119C68.8253 18.1891 69.158 17.7851 69.5026 17.8207C69.8472 17.8564 70.0849 18.296 70.0373 18.8189Z" fill="white"/>
<path id="Vector_24" opacity="0.4" d="M74.5047 19.199C74.5047 19.7218 74.1364 20.114 73.8037 20.0902C73.4709 20.0664 73.2095 19.6149 73.2571 19.0921C73.3046 18.5692 73.6135 18.1652 73.9581 18.2009C74.3027 18.2365 74.5047 18.6762 74.5047 19.199Z" fill="white"/>
<path id="Vector_25" opacity="0.4" d="M78.9103 19.6266C78.9103 20.1494 78.5538 20.5534 78.2092 20.5178C77.8646 20.4821 77.627 20.0425 77.6745 19.5197C77.722 18.9968 78.031 18.6047 78.3756 18.6285C78.7202 18.6522 78.9578 19.0562 78.9103 19.6266Z" fill="white"/>
<path id="Vector_26" opacity="0.4" d="M54.2142 20.9451C54.2142 21.4679 53.8458 21.86 53.5012 21.8363C53.1566 21.8125 52.919 21.361 52.9665 20.8381C53.014 20.3153 53.323 19.9113 53.6676 19.947C54.0122 19.9826 54.3092 20.4223 54.2142 20.9451Z" fill="white"/>
<path id="Vector_27" opacity="0.4" d="M58.6438 21.3252C58.6438 21.848 58.2873 22.2401 57.9427 22.2163C57.5981 22.1926 57.3605 21.741 57.3961 21.2182C57.4318 20.6954 57.7645 20.2914 58.1091 20.327C58.4537 20.3627 58.6913 20.8142 58.6438 21.3252Z" fill="white"/>
<path id="Vector_28" opacity="0.4" d="M63.0911 21.7053C63.0911 22.2281 62.7228 22.6321 62.3782 22.5965C62.0336 22.5608 61.7959 22.1212 61.8435 21.5984C61.891 21.0755 62.1999 20.6834 62.5445 20.7072C62.8891 20.7309 63.1387 21.1825 63.0911 21.7053Z" fill="white"/>
<path id="Vector_29" opacity="0.4" d="M67.5207 22.0855C67.5207 22.6083 67.1642 23.0123 66.8197 22.9767C66.4751 22.941 66.2374 22.5014 66.2731 21.9785C66.3087 21.4557 66.6414 21.0636 66.986 21.0873C67.3306 21.1111 67.5683 21.5626 67.5207 22.0855Z" fill="white"/>
<path id="Vector_30" opacity="0.4" d="M71.9625 22.4774C71.9625 22.9884 71.606 23.3924 71.2614 23.3567C70.9168 23.3211 70.6673 22.8814 70.7148 22.3586C70.7623 21.8358 71.0713 21.4436 71.4159 21.4674C71.7605 21.4912 72.01 22.0021 71.9625 22.4774Z" fill="white"/>
<path id="Vector_31" opacity="0.4" d="M76.3937 22.8575C76.3937 23.3803 76.0372 23.7724 75.6926 23.7487C75.348 23.7249 75.1104 23.2734 75.1579 22.7505C75.2054 22.2277 75.5144 21.8237 75.859 21.8593C76.2036 21.895 76.4412 22.3346 76.3937 22.8575Z" fill="white"/>
<path id="Vector_32" opacity="0.4" d="M80.834 23.1901C80.834 23.713 80.4776 24.1051 80.133 24.0813C79.7884 24.0576 79.5388 23.606 79.5864 23.0832C79.6339 22.5604 79.9547 22.1564 80.2874 22.192C80.6202 22.2277 80.8816 22.7148 80.834 23.1901Z" fill="white"/>
<path id="Vector_33" opacity="0.4" d="M51.64 24.8886C51.64 25.4115 51.2716 25.8036 50.9389 25.7798C50.6062 25.7561 50.3448 25.3045 50.3923 24.7817C50.4398 24.2589 50.7488 23.8548 51.0934 23.8905C51.438 23.9261 51.6875 24.3777 51.64 24.8886Z" fill="white"/>
<path id="Vector_34" opacity="0.4" d="M56.0714 25.2688C56.0714 25.7916 55.7149 26.1837 55.3704 26.16C55.0258 26.1362 54.7881 25.6847 54.8356 25.1618C54.8832 24.639 55.1921 24.235 55.5367 24.2707C55.8813 24.3063 56.1189 24.746 56.0714 25.2688Z" fill="white"/>
<path id="Vector_35" opacity="0.4" d="M60.5118 25.6489C60.5118 26.1717 60.1553 26.5757 59.8107 26.5401C59.4661 26.5044 59.2166 26.0648 59.2641 25.5419C59.3116 25.0191 59.6206 24.627 59.9652 24.6507C60.3098 24.6745 60.5593 25.1261 60.5118 25.6489Z" fill="white"/>
<path id="Vector_36" opacity="0.4" d="M65.0037 26.029C65.0037 26.5518 64.6353 26.9558 64.2907 26.9202C63.9461 26.8845 63.7085 26.4449 63.756 25.9221C63.8036 25.3992 64.1125 25.0071 64.4571 25.0309C64.8017 25.0546 65.0037 25.5656 65.0037 26.029Z" fill="white"/>
<path id="Vector_37" opacity="0.4" d="M69.3834 26.421C69.3834 26.9319 69.0269 27.3359 68.6823 27.3122C68.3377 27.2884 68.0882 26.825 68.1357 26.314C68.1832 25.8031 68.504 25.3872 68.8486 25.4228C69.1932 25.4585 69.4309 25.8981 69.3834 26.421Z" fill="white"/>
<path id="Vector_38" opacity="0.4" d="M73.8265 26.7536C73.8265 27.2764 73.4581 27.6685 73.1135 27.6448C72.7689 27.621 72.5313 27.1695 72.5788 26.6466C72.6263 26.1238 72.9353 25.7198 73.2799 25.7554C73.6245 25.7911 73.8621 26.2783 73.8265 26.7536Z" fill="white"/>
<path id="Vector_39" opacity="0.4" d="M78.2566 27.1812C78.2566 27.704 77.9001 28.0961 77.5555 28.0724C77.2109 28.0486 76.9733 27.5971 77.0089 27.0742C77.0446 26.5514 77.3773 26.1474 77.7219 26.183C78.0665 26.2187 78.3041 26.6583 78.2566 27.1812Z" fill="white"/>
<path id="Vector_40" opacity="0.4" d="M53.5494 28.5353C53.5494 29.0581 53.193 29.4621 52.8484 29.4265C52.5038 29.3908 52.2661 28.9512 52.3137 28.4284C52.3612 27.9055 52.6701 27.5134 53.0147 27.5372C53.3593 27.5609 53.597 28.0243 53.5494 28.5353Z" fill="white"/>
<path id="Vector_41" opacity="0.4" d="M57.9957 28.9272C57.9957 29.45 57.6392 29.8422 57.2946 29.8184C56.95 29.7946 56.7005 29.3431 56.748 28.8203C56.7955 28.2974 57.1045 27.8934 57.4491 27.9291C57.7937 27.9647 58.0432 28.4044 57.9957 28.9272Z" fill="white"/>
<path id="Vector_42" opacity="0.4" d="M62.4334 29.3074C62.4334 29.8302 62.065 30.2223 61.7204 30.1986C61.3758 30.1748 61.1382 29.7233 61.1857 29.2005C61.2333 28.6776 61.5422 28.2736 61.8868 28.3093C62.2314 28.3449 62.469 28.7846 62.4334 29.3074Z" fill="white"/>
<path id="Vector_43" opacity="0.4" d="M66.865 29.6875C66.865 30.2103 66.5085 30.6143 66.1639 30.5787C65.8193 30.543 65.5817 30.1034 65.6173 29.5805C65.653 29.0577 65.9857 28.6656 66.3303 28.6893C66.6749 28.7131 66.9125 29.129 66.865 29.6875Z" fill="white"/>
<path id="Vector_44" opacity="0.4" d="M71.3084 30.0676C71.3084 30.5904 70.94 30.9944 70.5954 30.9588C70.2508 30.9232 70.0132 30.4835 70.0607 29.9607C70.1083 29.4378 70.4172 29.0457 70.7618 29.0695C71.1064 29.0932 71.3559 29.5448 71.3084 30.0676Z" fill="white"/>
<path id="Vector_45" opacity="0.4" d="M75.6931 30.4477C75.6931 30.9705 75.3366 31.3745 74.992 31.3389C74.6474 31.3032 74.4098 30.8636 74.4454 30.3407C74.4811 29.8179 74.8138 29.4258 75.1584 29.4495C75.503 29.4733 75.7881 29.9367 75.6931 30.4477Z" fill="white"/>
<path id="Vector_46" opacity="0.4" d="M80.1817 30.8397C80.1817 31.3625 79.8252 31.7546 79.4806 31.7309C79.136 31.7071 78.8865 31.2556 78.934 30.7327C78.9816 30.2099 79.2905 29.8059 79.6351 29.8415C79.9797 29.8772 80.2292 30.3168 80.1817 30.8397Z" fill="white"/>
<path id="Vector_47" opacity="0.4" d="M50.9842 32.4907C50.9842 33.0017 50.6158 33.4057 50.2712 33.3819C49.9267 33.3582 49.689 32.8947 49.7365 32.3719C49.784 31.8491 50.093 31.457 50.4376 31.4926C50.7822 31.5283 51.0198 31.9679 50.9842 32.4907Z" fill="white"/>
<path id="Vector_48" opacity="0.4" d="M55.4143 32.8708C55.4143 33.3936 55.0578 33.7858 54.7132 33.762C54.3686 33.7382 54.131 33.2867 54.1666 32.7639C54.2023 32.241 54.535 31.837 54.8796 31.8727C55.2242 31.9083 55.4975 32.348 55.4143 32.8708Z" fill="white"/>
<path id="Vector_49" opacity="0.4" d="M59.8592 33.2509C59.8592 33.7738 59.4909 34.1659 59.1582 34.1421C58.8254 34.1184 58.564 33.6668 58.6116 33.144C58.6591 32.6212 58.968 32.2172 59.3126 32.2528C59.6572 32.2884 59.9068 32.6925 59.8592 33.2509Z" fill="white"/>
<path id="Vector_50" opacity="0.4" d="M64.2873 33.6311C64.2873 34.1539 63.9308 34.5579 63.5862 34.5222C63.2416 34.4866 63.0039 34.0469 63.0515 33.5241C63.099 33.0013 63.408 32.6092 63.7526 32.6329C64.0972 32.6567 64.3348 33.1082 64.2873 33.6311Z" fill="white"/>
<path id="Vector_51" opacity="0.4" d="M68.733 34.0111C68.733 34.534 68.3765 34.938 68.0319 34.9023C67.6873 34.8667 67.4378 34.427 67.4853 33.9042C67.5328 33.3813 67.8418 32.9892 68.1864 33.013C68.531 33.0368 68.7805 33.4883 68.733 34.0111Z" fill="white"/>
<path id="Vector_52" opacity="0.4" d="M73.1742 34.4031C73.1742 34.914 72.8058 35.3181 72.4612 35.2943C72.1166 35.2705 71.8789 34.8071 71.9265 34.2962C71.974 33.7852 72.283 33.3693 72.6276 33.405C72.9722 33.4406 73.2098 33.8803 73.1742 34.4031Z" fill="white"/>
<path id="Vector_53" opacity="0.4" d="M77.6045 34.7832C77.6045 35.3061 77.2481 35.6982 76.9035 35.6744C76.5589 35.6506 76.3094 35.1991 76.3569 34.6763C76.4044 34.1534 76.7253 33.7494 77.0698 33.7851C77.4144 33.8207 77.6521 34.2604 77.6045 34.7832Z" fill="white"/>
<path id="Vector_54" opacity="0.4" d="M52.8977 36.1373C52.8977 36.6602 52.5412 37.0642 52.1966 37.0285C51.852 36.9929 51.6144 36.5532 51.65 36.0304C51.6857 35.5076 52.0184 35.1154 52.363 35.1392C52.7076 35.163 52.9452 35.6145 52.8977 36.1373Z" fill="white"/>
<path id="Vector_55" opacity="0.4" d="M57.3394 36.5174C57.3394 37.0402 56.983 37.4442 56.6384 37.4086C56.2938 37.373 56.0442 36.9333 56.0917 36.4105C56.1393 35.8876 56.4482 35.4955 56.7928 35.5193C57.1374 35.543 57.387 36.0065 57.3394 36.5174Z" fill="white"/>
<path id="Vector_56" opacity="0.4" d="M61.7707 36.9094C61.7707 37.4322 61.4142 37.8243 61.0696 37.8006C60.725 37.7768 60.4873 37.3253 60.5349 36.8024C60.5824 36.2796 60.8913 35.8756 61.2359 35.9112C61.5805 35.9469 61.8182 36.3865 61.7707 36.9094Z" fill="white"/>
<path id="Vector_57" opacity="0.4" d="M66.1905 37.2895C66.1905 37.8123 65.834 38.2045 65.4894 38.1807C65.1448 38.1569 64.8953 37.7054 64.9428 37.1826C64.9904 36.6597 65.2993 36.2557 65.6439 36.2914C65.9885 36.327 66.2618 36.7667 66.1905 37.2895Z" fill="white"/>
<path id="Vector_58" opacity="0.4" d="M70.6541 37.6697C70.6541 38.1925 70.2858 38.5965 69.9412 38.5609C69.5966 38.5252 69.3589 38.0856 69.4064 37.5627C69.454 37.0399 69.7629 36.6478 70.1075 36.6715C70.4521 36.6953 70.6898 37.1468 70.6541 37.6697Z" fill="white"/>
<path id="Vector_59" opacity="0.4" d="M75.0842 38.0496C75.0842 38.5725 74.7277 38.9765 74.3831 38.9408C74.0385 38.9052 73.8009 38.4655 73.8365 37.9427C73.8722 37.4199 74.2049 37.0277 74.5495 37.0515C74.8941 37.0753 75.1317 37.5268 75.0842 38.0496Z" fill="white"/>
<path id="Vector_60" opacity="0.4" d="M79.5296 38.4299C79.5296 38.9527 79.1613 39.3567 78.8167 39.321C78.4721 39.2854 78.2344 38.8457 78.2819 38.3229C78.3295 37.8001 78.6384 37.408 78.983 37.4317C79.3276 37.4555 79.5772 37.9189 79.5296 38.4299Z" fill="white"/>
<path id="Vector_61" opacity="0.4" d="M50.3318 40.0809C50.3318 40.6037 49.9635 41.0077 49.6189 40.9721C49.2743 40.9364 49.0366 40.4968 49.0842 39.9739C49.1317 39.4511 49.4406 39.059 49.7852 39.0828C50.1298 39.1065 50.3675 39.5581 50.3318 40.0809Z" fill="white"/>
<path id="Vector_62" opacity="0.4" d="M54.7603 40.4729C54.7603 40.9839 54.4038 41.3879 54.0592 41.3522C53.7146 41.3166 53.4651 40.8769 53.5126 40.3541C53.5602 39.8312 53.881 39.4391 54.2256 39.4629C54.5702 39.4866 54.8079 39.9501 54.7603 40.4729Z" fill="white"/>
<path id="Vector_63" opacity="0.4" d="M59.2034 40.853C59.2034 41.3758 58.8351 41.7679 58.4905 41.7442C58.1459 41.7204 57.9082 41.2689 57.9558 40.746C58.0033 40.2232 58.3122 39.8192 58.6568 39.8549C59.0014 39.8905 59.2391 40.3301 59.2034 40.853Z" fill="white"/>
<path id="Vector_64" opacity="0.4" d="M63.6336 41.233C63.6336 41.7559 63.2771 42.148 62.9325 42.1242C62.5879 42.1005 62.3502 41.6489 62.3859 41.1261C62.4215 40.6033 62.7542 40.1993 63.0988 40.2349C63.4434 40.2706 63.6811 40.7102 63.6336 41.233Z" fill="white"/>
<path id="Vector_65" opacity="0.4" d="M68.0784 41.6132C68.0784 42.136 67.7101 42.54 67.3774 42.5044C67.0447 42.4687 66.7833 42.0291 66.8308 41.5062C66.8783 40.9834 67.1873 40.5913 67.5319 40.615C67.8765 40.6388 68.126 41.0903 68.0784 41.6132Z" fill="white"/>
<path id="Vector_66" opacity="0.4" d="M72.508 41.9933C72.508 42.5161 72.1515 42.9201 71.8069 42.8845C71.4623 42.8488 71.2246 42.4092 71.2722 41.8864C71.3197 41.3635 71.6286 40.9714 71.9732 40.9952C72.3178 41.0189 72.5555 41.4705 72.508 41.9933Z" fill="white"/>
<path id="Vector_67" opacity="0.4" d="M76.9517 42.3853C76.9517 42.8962 76.5952 43.3002 76.2506 43.2646C75.906 43.2289 75.6565 42.7893 75.7041 42.2664C75.7516 41.7436 76.0605 41.3515 76.4051 41.3752C76.7497 41.399 76.9992 41.8624 76.9517 42.3853Z" fill="white"/>
</g>
<g id="Group_3" opacity="0.6">
<path id="Vector_68" opacity="0.6" d="M84.0013 12.3572C84.0013 12.88 83.7161 13.284 83.4665 13.2721C83.217 13.2602 83.0388 12.8087 83.0863 12.2859C83.1338 11.763 83.3715 11.359 83.6329 11.3828C83.8943 11.4065 84.0013 11.8462 84.0013 12.3572Z" fill="white"/>
<path id="Vector_69" opacity="0.6" d="M87.2458 12.6422C87.2458 13.165 86.9606 13.5691 86.6992 13.5453C86.4378 13.5215 86.2833 13.0819 86.3308 12.5709C86.3783 12.06 86.616 11.6322 86.8655 11.6559C87.1151 11.6797 87.2933 12.1194 87.2458 12.6422Z" fill="white"/>
<path id="Vector_70" opacity="0.6" d="M90.5125 12.9273C90.5125 13.4502 90.2273 13.8542 89.9778 13.8304C89.7283 13.8066 89.55 13.367 89.5975 12.8441C89.6451 12.3213 89.8827 11.9173 90.1442 11.9411C90.4056 11.9648 90.5601 12.4045 90.5125 12.9273Z" fill="white"/>
<path id="Vector_71" opacity="0.6" d="M93.7882 13.2124C93.7882 13.7352 93.5031 14.1392 93.2417 14.1154C92.9802 14.0917 92.8258 13.652 92.8733 13.1292C92.9208 12.6063 93.1585 12.2023 93.408 12.2261C93.6576 12.2499 93.8358 12.6895 93.7882 13.2124Z" fill="white"/>
<path id="Vector_72" opacity="0.6" d="M97.0691 13.4856C97.0691 14.0084 96.7839 14.4124 96.5344 14.4005C96.2849 14.3887 96.1067 13.9371 96.1542 13.4143C96.2017 12.8914 96.4394 12.4874 96.7008 12.5112C96.9622 12.535 97.0691 12.9746 97.0691 13.4856Z" fill="white"/>
<path id="Vector_73" opacity="0.6" d="M100.334 13.7707C100.334 14.2935 100.049 14.6975 99.7877 14.6738C99.5263 14.65 99.3718 14.2103 99.4074 13.6875C99.4431 13.1647 99.7045 12.7607 99.954 12.7844C100.204 12.8082 100.382 13.2479 100.334 13.7707Z" fill="white"/>
<path id="Vector_74" opacity="0.6" d="M85.3099 15.9682C85.3099 16.491 85.0247 16.895 84.7752 16.8712C84.5256 16.8475 84.3474 16.4078 84.3949 15.885C84.4424 15.3622 84.6801 14.9582 84.9296 14.9819C85.1792 15.0057 85.3574 15.4453 85.3099 15.9682Z" fill="white"/>
<path id="Vector_75" opacity="0.6" d="M88.5859 16.2532C88.5859 16.776 88.2888 17.18 88.0393 17.1563C87.7898 17.1325 87.6115 16.6929 87.6591 16.17C87.7066 15.6472 87.9443 15.2432 88.2057 15.267C88.4671 15.2907 88.6215 15.7304 88.5859 16.2532Z" fill="white"/>
<path id="Vector_76" opacity="0.6" d="M91.8532 16.5264C91.8532 17.0492 91.568 17.4532 91.3066 17.4413C91.0452 17.4295 90.8907 16.9779 90.9382 16.4551C90.9858 15.9323 91.2234 15.5283 91.473 15.552C91.7225 15.5758 91.9007 16.063 91.8532 16.5264Z" fill="white"/>
<path id="Vector_77" opacity="0.6" d="M95.1219 16.8115C95.1219 17.3343 94.8367 17.7383 94.5872 17.7146C94.3376 17.6908 94.1594 17.2511 94.2069 16.7283C94.2544 16.2055 94.4921 15.8015 94.7535 15.8252C95.0149 15.849 95.1694 16.2887 95.1219 16.8115Z" fill="white"/>
<path id="Vector_78" opacity="0.6" d="M98.3976 17.0966C98.3976 17.6194 98.1124 18.0234 97.851 17.9997C97.5896 17.9759 97.4351 17.5362 97.4827 17.0134C97.5302 16.4906 97.7678 16.0865 98.0174 16.1103C98.2669 16.1341 98.4451 16.5737 98.3976 17.0966Z" fill="white"/>
<path id="Vector_79" opacity="0.6" d="M101.665 17.3817C101.665 17.9045 101.38 18.3085 101.13 18.2847C100.881 18.261 100.702 17.8213 100.75 17.2985C100.797 16.7756 101.035 16.3716 101.296 16.3954C101.558 16.4192 101.712 16.8588 101.665 17.3817Z" fill="white"/>
<path id="Vector_80" opacity="0.6" d="M83.3138 19.9591C83.3138 20.4819 83.0286 20.8859 82.7791 20.8622C82.5295 20.8384 82.3513 20.3988 82.3988 19.8878C82.4463 19.3769 82.684 18.961 82.9454 18.9728C83.2068 18.9847 83.3613 19.4363 83.3138 19.9591Z" fill="white"/>
<path id="Vector_81" opacity="0.6" d="M86.5926 20.2442C86.5926 20.767 86.3074 21.171 86.046 21.1473C85.7846 21.1235 85.6301 20.6839 85.6657 20.161C85.7014 19.6382 85.9628 19.2342 86.2123 19.258C86.4619 19.2817 86.6401 19.7214 86.5926 20.2442Z" fill="white"/>
<path id="Vector_82" opacity="0.6" d="M89.8567 20.5292C89.8567 21.0521 89.5716 21.4561 89.322 21.4323C89.0725 21.4086 88.8942 20.9689 88.9418 20.4461C88.9893 19.9232 89.2269 19.5192 89.4765 19.543C89.726 19.5668 89.9399 20.0064 89.8567 20.5292Z" fill="white"/>
<path id="Vector_83" opacity="0.6" d="M93.139 20.8144C93.139 21.3373 92.8538 21.7413 92.5924 21.7294C92.3309 21.7175 92.1765 21.266 92.2121 20.7431C92.2478 20.2203 92.5092 19.8163 92.7587 19.84C93.0082 19.8638 93.1865 20.2916 93.139 20.8144Z" fill="white"/>
<path id="Vector_84" opacity="0.6" d="M96.4046 21.0876C96.4046 21.6105 96.1194 22.0145 95.8698 21.9907C95.6203 21.967 95.4421 21.5273 95.4896 21.0163C95.5372 20.5054 95.7748 20.0895 96.0243 20.1014C96.2739 20.1133 96.4521 20.5648 96.4046 21.0876Z" fill="white"/>
<path id="Vector_85" opacity="0.6" d="M99.6816 21.3726C99.6816 21.8955 99.3846 22.2995 99.135 22.2757C98.8855 22.2519 98.7192 21.8123 98.7548 21.2894C98.7905 20.7666 99.04 20.3626 99.3014 20.3864C99.5628 20.4101 99.7173 20.8141 99.6816 21.3726Z" fill="white"/>
<path id="Vector_86" opacity="0.6" d="M84.6545 23.5702C84.6545 24.0931 84.3693 24.4971 84.1079 24.4733C83.8464 24.4495 83.692 24.0099 83.7395 23.487C83.787 22.9642 84.0247 22.5602 84.2742 22.584C84.5238 22.6077 84.702 23.0474 84.6545 23.5702Z" fill="white"/>
<path id="Vector_87" opacity="0.6" d="M87.9231 23.8434C87.9231 24.3662 87.638 24.7702 87.3884 24.7584C87.1389 24.7465 86.9607 24.2949 87.0082 23.7721C87.0557 23.2493 87.2934 22.8452 87.5548 22.869C87.8162 22.8928 87.9707 23.3206 87.9231 23.8434Z" fill="white"/>
<path id="Vector_88" opacity="0.6" d="M91.2023 24.1284C91.2023 24.6512 90.9171 25.0552 90.6557 25.0315C90.3943 25.0077 90.2398 24.568 90.2874 24.0452C90.3349 23.5224 90.5725 23.1184 90.8221 23.1421C91.0716 23.1659 91.2498 23.6055 91.2023 24.1284Z" fill="white"/>
<path id="Vector_89" opacity="0.6" d="M94.4661 24.3779C94.4661 24.9007 94.1809 25.3047 93.9314 25.2809C93.6818 25.2572 93.5036 24.8175 93.5512 24.2947C93.5987 23.7719 93.8363 23.3679 94.0977 23.3916C94.3592 23.4154 94.5136 23.8907 94.4661 24.3779Z" fill="white"/>
<path id="Vector_90" opacity="0.6" d="M97.7469 24.6986C97.7469 25.2215 97.4617 25.6255 97.2002 25.6017C96.9388 25.5779 96.7844 25.1383 96.82 24.6154C96.8557 24.0926 97.1171 23.6886 97.3666 23.7124C97.6161 23.7361 97.7944 24.1758 97.7469 24.6986Z" fill="white"/>
<path id="Vector_91" opacity="0.6" d="M101.014 24.9718C101.014 25.4947 100.729 25.8987 100.479 25.8868C100.23 25.8749 100.051 25.4234 100.099 24.9005C100.147 24.3777 100.384 23.9737 100.634 23.9975C100.883 24.0212 101.062 24.449 101.014 24.9718Z" fill="white"/>
<path id="Vector_92" opacity="0.6" d="M82.6614 27.5612C82.6614 28.084 82.3763 28.488 82.1267 28.4643C81.8772 28.4405 81.6989 28.0008 81.7465 27.478C81.794 26.9552 82.0316 26.5512 82.2812 26.5749C82.5307 26.5987 82.7089 27.0383 82.6614 27.5612Z" fill="white"/>
<path id="Vector_93" opacity="0.6" d="M85.9385 27.8463C85.9385 28.3691 85.6414 28.7731 85.3919 28.7493C85.1424 28.7256 84.976 28.2859 85.0116 27.7631C85.0473 27.2403 85.2968 26.8362 85.5582 26.86C85.8196 26.8838 85.9741 27.3234 85.9385 27.8463Z" fill="white"/>
<path id="Vector_94" opacity="0.6" d="M89.2039 28.1194C89.2039 28.6422 88.9187 29.0462 88.6692 29.0344C88.4197 29.0225 88.2414 28.5709 88.2889 28.0481C88.3365 27.5253 88.5741 27.1213 88.8237 27.145C89.0732 27.1688 89.2515 27.6085 89.2039 28.1194Z" fill="white"/>
<path id="Vector_95" opacity="0.6" d="M92.4819 28.4045C92.4819 28.9274 92.1848 29.3314 91.9353 29.3076C91.6858 29.2838 91.5075 28.8442 91.5551 28.3332C91.6026 27.8223 91.8403 27.4064 92.1017 27.4183C92.3631 27.4302 92.5176 27.9411 92.4819 28.4045Z" fill="white"/>
<path id="Vector_96" opacity="0.6" d="M95.7484 28.6896C95.7484 29.2125 95.4632 29.6165 95.2136 29.5927C94.9641 29.5689 94.7858 29.1293 94.8334 28.6065C94.8809 28.0836 95.1186 27.6796 95.3681 27.7034C95.6176 27.7272 95.7959 28.1668 95.7484 28.6896Z" fill="white"/>
<path id="Vector_97" opacity="0.6" d="M99.0283 28.9747C99.0283 29.4975 98.7312 29.9015 98.4817 29.8778C98.2322 29.854 98.0539 29.4143 98.1014 28.8915C98.149 28.3687 98.3866 27.9647 98.648 27.9884C98.9095 28.0122 99.0639 28.4518 99.0283 28.9747Z" fill="white"/>
<path id="Vector_98" opacity="0.6" d="M84.0037 31.1603C84.0037 31.6831 83.7185 32.0871 83.4571 32.0753C83.1957 32.0634 83.0412 31.6118 83.0769 31.089C83.1125 30.5662 83.3739 30.1622 83.6234 30.1859C83.873 30.2097 84.0037 30.6494 84.0037 31.1603Z" fill="white"/>
<path id="Vector_99" opacity="0.6" d="M87.2688 31.5048C87.2688 32.0277 86.9836 32.4317 86.7341 32.4079C86.4846 32.3841 86.3064 31.9445 86.3539 31.4335C86.4014 30.9226 86.639 30.4948 86.8886 30.5186C87.1381 30.5423 87.3164 30.9226 87.2688 31.5048Z" fill="white"/>
<path id="Vector_100" opacity="0.6" d="M90.5481 31.7304C90.5481 32.2533 90.2629 32.6573 90.0015 32.6335C89.7401 32.6098 89.5856 32.1701 89.6213 31.6473C89.6569 31.1244 89.9183 30.7204 90.1679 30.7442C90.4174 30.768 90.5838 31.2076 90.5481 31.7304Z" fill="white"/>
<path id="Vector_101" opacity="0.6" d="M93.8133 32.0155C93.8133 32.5383 93.5281 32.9423 93.2786 32.9186C93.029 32.8948 92.8508 32.4552 92.8983 31.9323C92.9459 31.4095 93.1835 31.0055 93.4331 31.0293C93.6826 31.053 93.8608 31.5045 93.8133 32.0155Z" fill="white"/>
<path id="Vector_102" opacity="0.6" d="M97.0679 32.2887C97.0679 32.8115 96.7708 33.2155 96.5213 33.2036C96.2718 33.1917 96.1054 32.7402 96.141 32.2174C96.1767 31.6945 96.4262 31.2905 96.6876 31.3143C96.949 31.3381 97.1273 31.7777 97.0679 32.2887Z" fill="white"/>
<path id="Vector_103" opacity="0.6" d="M100.356 32.5738C100.356 33.0966 100.071 33.5007 99.8215 33.4769C99.572 33.4531 99.3938 33.0135 99.4413 32.4906C99.4888 31.9678 99.7265 31.5638 99.976 31.5876C100.226 31.6113 100.404 32.051 100.356 32.5738Z" fill="white"/>
<path id="Vector_104" opacity="0.6" d="M82.0071 35.1633C82.0071 35.6861 81.722 36.0901 81.4724 36.0663C81.2229 36.0426 81.0446 35.6029 81.0922 35.0801C81.1397 34.5573 81.3774 34.1533 81.6269 34.177C81.8764 34.2008 82.0547 34.6404 82.0071 35.1633Z" fill="white"/>
<path id="Vector_105" opacity="0.6" d="M85.2733 35.4364C85.2733 35.9593 84.9881 36.3633 84.7385 36.3514C84.489 36.3395 84.3108 35.888 84.3583 35.3651C84.4058 34.8423 84.6435 34.4383 84.9049 34.4621C85.1663 34.4858 85.3208 34.9255 85.2733 35.4364Z" fill="white"/>
<path id="Vector_106" opacity="0.6" d="M88.5544 35.7216C88.5544 36.2444 88.2692 36.6484 88.0078 36.6246C87.7463 36.6009 87.5919 36.1612 87.6394 35.6503C87.6869 35.1393 87.9246 34.7234 88.1741 34.7353C88.4237 34.7472 88.6019 35.1987 88.5544 35.7216Z" fill="white"/>
<path id="Vector_107" opacity="0.6" d="M91.8177 36.0066C91.8177 36.5295 91.5325 36.9335 91.283 36.9097C91.0334 36.886 90.8552 36.4463 90.9027 35.9235C90.9502 35.4006 91.1879 34.9966 91.4493 35.0204C91.7107 35.0442 91.8652 35.4838 91.8177 36.0066Z" fill="white"/>
<path id="Vector_108" opacity="0.6" d="M95.0968 36.256C95.0968 36.7789 94.8117 37.1829 94.5502 37.1591C94.2888 37.1353 94.1344 36.6957 94.1819 36.1728C94.2294 35.65 94.467 35.246 94.7166 35.2698C94.9661 35.2935 95.1444 35.7688 95.0968 36.256Z" fill="white"/>
<path id="Vector_109" opacity="0.6" d="M98.3655 36.5649C98.3655 37.0877 98.0804 37.4917 97.8308 37.4798C97.5813 37.4679 97.403 37.0164 97.4506 36.4936C97.4981 35.9707 97.7357 35.5667 97.9972 35.5905C98.2586 35.6143 98.413 36.0539 98.3655 36.5649Z" fill="white"/>
<path id="Vector_110" opacity="0.6" d="M83.3472 38.7624C83.3472 39.2852 83.0501 39.6892 82.8005 39.6654C82.551 39.6417 82.3847 39.202 82.4203 38.6911C82.456 38.1801 82.7055 37.7642 82.9669 37.7761C83.2283 37.788 83.3828 38.2395 83.3472 38.7624Z" fill="white"/>
<path id="Vector_111" opacity="0.6" d="M86.6165 39.0475C86.6165 39.5703 86.3313 39.9743 86.0818 39.9505C85.8323 39.9268 85.654 39.4871 85.7015 38.9643C85.7491 38.4414 85.9867 38.0374 86.2363 38.0612C86.4858 38.085 86.6641 38.5246 86.6165 39.0475Z" fill="white"/>
<path id="Vector_112" opacity="0.6" d="M89.9433 39.3325C89.9433 39.8553 89.6463 40.2594 89.3967 40.2356C89.1472 40.2118 88.969 39.7722 89.0165 39.2493C89.064 38.7265 89.3017 38.3225 89.5631 38.3462C89.8245 38.37 89.9433 38.8097 89.9433 39.3325Z" fill="white"/>
<path id="Vector_113" opacity="0.6" d="M93.1609 39.6057C93.1609 40.1285 92.8758 40.5325 92.6262 40.5206C92.3767 40.5088 92.1984 40.0572 92.246 39.5344C92.2935 39.0115 92.5312 38.6075 92.7807 38.6313C93.0302 38.6551 93.2085 39.0947 93.1609 39.6057Z" fill="white"/>
<path id="Vector_114" opacity="0.6" d="M96.427 39.8908C96.427 40.4136 96.1419 40.8176 95.8923 40.7939C95.6428 40.7701 95.4646 40.3305 95.5121 39.8076C95.5596 39.2848 95.7973 38.8808 96.0587 38.9045C96.3201 38.9283 96.4746 39.368 96.427 39.8908Z" fill="white"/>
<path id="Vector_115" opacity="0.6" d="M99.7062 40.1759C99.7062 40.6987 99.421 41.1027 99.1596 41.0789C98.8982 41.0552 98.7437 40.6155 98.7913 40.0927C98.8388 39.5698 99.0764 39.1658 99.326 39.1896C99.5755 39.2134 99.7537 39.653 99.7062 40.1759Z" fill="white"/>
<path id="Vector_116" opacity="0.6" d="M81.3537 42.7535C81.3537 43.2763 81.0685 43.6803 80.8071 43.6684C80.5457 43.6565 80.3912 43.205 80.4387 42.6822C80.4863 42.1593 80.7239 41.7553 80.9735 41.7791C81.223 41.8028 81.4012 42.195 81.3537 42.7535Z" fill="white"/>
<path id="Vector_117" opacity="0.6" d="M84.6223 43.0385C84.6223 43.5613 84.3372 43.9653 84.0877 43.9416C83.8381 43.9178 83.6599 43.4781 83.7074 42.9672C83.7549 42.4562 83.9926 42.0404 84.254 42.0523C84.5154 42.0641 84.6699 42.5157 84.6223 43.0385Z" fill="white"/>
<path id="Vector_118" opacity="0.6" d="M87.8962 43.383C87.8962 43.9058 87.611 44.3098 87.3496 44.286C87.0881 44.2623 86.9337 43.8226 86.9812 43.2998C87.0287 42.777 87.2664 42.373 87.5159 42.3967C87.7654 42.4205 87.9437 42.8007 87.8962 43.383Z" fill="white"/>
<path id="Vector_119" opacity="0.6" d="M91.1287 43.6087C91.1287 44.1315 90.8435 44.5355 90.594 44.5117C90.3444 44.488 90.1662 44.0483 90.2138 43.5255C90.2613 43.0026 90.4989 42.5986 90.7484 42.6224C90.998 42.6462 91.2119 43.0858 91.1287 43.6087Z" fill="white"/>
<path id="Vector_120" opacity="0.6" d="M94.4441 43.8818C94.4441 44.4047 94.1589 44.8087 93.8975 44.7968C93.6361 44.7849 93.4816 44.3334 93.5173 43.8105C93.5529 43.2877 93.8143 42.8837 94.0639 42.9075C94.3134 42.9312 94.4917 43.3828 94.4441 43.8818Z" fill="white"/>
<path id="Vector_121" opacity="0.6" d="M97.7078 44.167C97.7078 44.6898 97.4226 45.0938 97.1731 45.07C96.9236 45.0463 96.7453 44.6066 96.7929 44.0957C96.8404 43.5847 97.078 43.1688 97.3276 43.1807C97.5771 43.1926 97.7554 43.6441 97.7078 44.167Z" fill="white"/>
</g>
<path id="Vector_122" d="M61.2735 43.5721L65.4746 43.9345L68.535 8.45542L64.3338 8.09304L61.2735 43.5721Z" fill="white"/>
<path id="Vector_123" d="M89.5525 46.0224L92.6294 46.2878L95.6897 10.8087L92.6128 10.5433L89.5525 46.0224Z" fill="white"/>
<path id="Vector_124" opacity="0.2" d="M48.2318 42.4346L99.8765 46.8894L101.879 23.6706L50.2346 19.2159L48.2318 42.4346Z" fill="black"/>
<path id="Vector_125" opacity="0.2" d="M79.3666 45.122L99.8872 46.8921L102.948 11.4131L82.427 9.64299L79.3666 45.122Z" fill="white"/>
</g>
<path id="Vector_126" d="M68.8438 13.3055L69.022 13.3886V13.353L69.0458 13.3649L69.0695 13.3173L68.8438 13.3055Z" fill="#263238"/>
<g id="Group 390">
<path id="Vector_127" d="M30.0781 53.4899L27.8898 51.7167C16.6558 58.9245 12.8365 55.3243 11.9224 54.0077C10.2145 51.5687 11.1873 47.8744 14.0765 45.7969C18.0241 42.9268 22.9733 44.8926 25.8502 46.5568C26.5217 42.6669 29.3817 37.8831 32.5392 36.015C33.5968 35.3239 34.8672 35.0354 36.1195 35.2019C37.3718 35.3685 38.5227 35.979 39.3628 36.9225C39.9405 37.4625 40.3708 38.1411 40.6127 38.894C40.8547 39.6469 40.9005 40.4491 40.7457 41.2246C39.8103 45.8051 31.7515 49.7459 29.3216 50.8315L30.0781 53.4899ZM28.6731 47.9087C32.3583 46.1925 37.3853 43.1006 37.8767 40.6522C37.9349 40.3499 37.9098 40.0374 37.8042 39.7482C37.6985 39.4589 37.5163 39.2039 37.2768 39.0103C36.8896 38.5453 36.3395 38.2457 35.7389 38.1725C35.1383 38.0993 34.5323 38.258 34.0447 38.6163V38.6163C31.2336 40.2357 28.7614 45.1143 28.6731 47.9087ZM16.2213 47.9878L15.8264 48.244C14.1835 49.424 13.7034 51.3781 14.3751 52.3327C15.0469 53.2873 18.3726 54.1187 25.4124 49.8073C23.486 48.5038 19.2739 46.1767 16.2075 47.955L16.2213 47.9878Z" fill="#0B56F9"/>
<g id="Group_4" opacity="0.2">
<path id="Vector_128" opacity="0.2" d="M30.2292 53.7039L28.0022 51.8477C16.9448 58.9516 13.0463 55.1965 12.1028 53.8338C10.3405 51.3092 11.2274 47.5632 14.0661 45.508C17.9439 42.6677 22.9335 44.7809 25.8459 46.5411C26.4274 42.589 29.1745 37.7734 32.2861 35.9376C33.3267 35.256 34.5893 34.9897 35.8443 35.187C37.0992 35.3843 38.263 36.0321 39.1241 37.0126C39.7136 37.576 40.159 38.2775 40.4181 39.0505C40.6772 39.8236 40.7414 40.6427 40.6045 41.4301C39.7754 46.0806 31.815 49.9226 29.4124 50.9764L30.2292 53.7039ZM28.6972 47.9816C32.3395 46.3122 37.2905 43.2695 37.7251 40.7835C37.7763 40.4764 37.7441 40.1572 37.6319 39.86C37.5197 39.5627 37.3317 39.2987 37.0881 39.096C36.6905 38.6134 36.1341 38.2957 35.5323 38.2079C34.9306 38.1201 34.3289 38.2686 33.85 38.6233V38.6233C31.0788 40.2131 28.7212 45.1339 28.6972 47.9816ZM16.2591 47.7893L15.8706 48.0418C14.2564 49.2091 13.8216 51.1913 14.5147 52.1795C15.2078 53.1677 18.5494 54.0884 25.4833 49.8462C23.5287 48.4747 19.2672 46.0092 16.2446 47.7554L16.2591 47.7893Z" fill="black"/>
</g>
<path id="Vector_129" d="M51.5767 34.048L1.6333 63.2043L21.6648 97.5174L71.6082 68.3611L51.5767 34.048Z" fill="#0B56F9"/>
<path id="Vector_130" opacity="0.6" d="M51.5767 34.048L1.6333 63.2043L21.6648 97.5174L71.6082 68.3611L51.5767 34.048Z" fill="white"/>
<path id="Vector_131" opacity="0.2" d="M58.4874 45.8958L8.54395 75.0521L21.6511 97.5041L71.5945 68.3478L58.4874 45.8958Z" fill="black"/>
<path id="Vector_132" opacity="0.2" d="M21.5728 51.7342L1.65625 63.2538L21.5792 97.699L41.4957 86.1794L21.5728 51.7342Z" fill="black"/>
<g id="Group_5" opacity="0.3">
<path id="Vector_133" opacity="0.3" d="M38.1787 79.9158L39.5306 82.2408L44.6592 86.3507L45.5606 85.8239L38.1787 79.9158Z" fill="white"/>
<path id="Vector_134" opacity="0.3" d="M29.6401 64.9733L30.9922 67.2986L50.671 83.0422L51.5774 82.5264L29.6401 64.9733Z" fill="white"/>
<path id="Vector_135" opacity="0.3" d="M57.5747 79.2089L23.6037 52.0413L22.7073 52.553L56.6676 79.7249L57.5747 79.2089Z" fill="white"/>
<path id="Vector_136" opacity="0.3" d="M63.574 75.7339L29.6032 48.5664L28.7068 49.0781L62.6718 76.261L63.574 75.7339Z" fill="white"/>
<path id="Vector_137" opacity="0.3" d="M69.5803 72.2701L35.6046 45.0915L34.713 45.6143L68.6732 72.7861L69.5803 72.2701Z" fill="white"/>
<path id="Vector_138" opacity="0.3" d="M40.7145 42.2058L70.5289 66.512L69.157 64.1694L41.61 41.6945L40.7145 42.2058Z" fill="white"/>
<path id="Vector_139" opacity="0.3" d="M46.714 38.9021L61.9547 51.5194L60.6035 49.195L47.6091 38.3909L46.714 38.9021Z" fill="white"/>
</g>
<g id="Group_6" opacity="0.2">
<path id="Vector_140" opacity="0.2" d="M10.2998 77.4735L11.6381 79.7797L26.9965 96.6493L27.5078 96.3606L10.2998 77.4735Z" fill="white"/>
<path id="Vector_141" opacity="0.2" d="M3.07937 64.0306L2.7172 64.2319L3.08037 64.8748L30.3506 94.8244L30.8621 94.5356L3.07937 64.0306Z" fill="white"/>
<path id="Vector_142" opacity="0.2" d="M34.2174 92.5874L6.42981 62.08L5.93357 62.3755L33.7106 92.8872L34.2174 92.5874Z" fill="white"/>
<path id="Vector_143" opacity="0.2" d="M37.5788 90.6474L9.79114 60.14L9.29015 60.4245L37.0825 90.9429L37.5788 90.6474Z" fill="white"/>
<path id="Vector_144" opacity="0.2" d="M40.9371 88.7075L13.1495 58.2001L12.6486 58.4845L40.4409 89.0029L40.9371 88.7075Z" fill="white"/>
<path id="Vector_145" opacity="0.2" d="M38.4235 80.6711L16.5069 56.3132L16.0064 56.5975L39.7709 82.999L38.4235 80.6711Z" fill="white"/>
<path id="Vector_146" opacity="0.2" d="M29.848 65.7173L19.8686 54.4946L19.3682 54.7789L31.195 68.045L29.848 65.7173Z" fill="white"/>
</g>
<path id="Vector_147" d="M39.4218 41.2954L35.3501 43.6505L55.273 78.0957L59.3448 75.7406L39.4218 41.2954Z" fill="#0B56F9"/>
<path id="Vector_148" d="M11.9841 57.186L8.9917 58.9161L28.9086 93.3648L31.901 91.6347L11.9841 57.186Z" fill="#0B56F9"/>
<path id="Vector_149" opacity="0.2" d="M64.617 58.8893L63.8093 60.1722L64.4151 61.55L62.954 61.1818L61.8137 62.1796L61.7187 60.6829L60.4121 59.9108L61.8137 59.3526L62.1463 57.8797L63.1085 59.0318L64.617 58.8893Z" fill="white"/>
</g>
<path id="Vector_150" opacity="0.2" d="M66.6569 37.5964L65.861 38.8674L66.455 40.2571L64.9939 39.8889L63.8655 40.8867L63.7586 39.3781L62.4639 38.6179L63.8536 38.0478L64.1862 36.5749L65.1602 37.7389L66.6569 37.5964Z" fill="white"/>
<g id="Group 388">
<path id="Vector_151" d="M149.254 56.6954L148.636 56.4104L105.637 33.331L80.3724 30.5872L80.0042 30.3971L62.4839 72.1727L103.38 94.1117L131.247 97.2357L149.254 56.6954Z" fill="#0B56F9"/>
<path id="Vector_152" opacity="0.2" d="M83.3193 36.1937L84.1627 38.6287L86.6334 39.3177L84.5784 40.8737L84.6972 43.4394L82.5829 41.9665L80.1716 42.8692L80.9199 40.3986L79.3164 38.3912L81.894 38.3436L83.3193 36.1937Z" fill="white"/>
<path id="Vector_153" opacity="0.2" d="M104.852 51.9679L103.474 54.1416L104.507 56.5054L102.001 55.8877L100.077 57.5863L99.8985 55.0206L97.6772 53.7021L100.065 52.74L100.635 50.2337L102.286 52.2055L104.852 51.9679Z" fill="white"/>
<path id="Vector_154" opacity="0.2" d="M90.9698 75.9974L89.592 78.183L90.6254 80.5468L88.1191 79.9172L86.1829 81.6277L86.0166 79.0501L83.7954 77.7435L86.1829 76.7814L86.7531 74.2751L88.4042 76.2469L90.9698 75.9974Z" fill="white"/>
<path id="Vector_155" opacity="0.2" d="M84.316 64.5587L82.9382 66.7443L83.9597 69.1081L81.4653 68.4786L79.541 70.1771L79.3628 67.6114L77.1416 66.3048L79.5291 65.3427L80.0993 62.8245L81.7503 64.7963L84.316 64.5587Z" fill="white"/>
<path id="Vector_156" opacity="0.2" d="M96.0187 69.8683L95.2228 71.1511L95.8167 72.5409L94.3557 72.1727L93.2273 73.1704L93.1204 71.6619L91.8257 70.8898L93.2273 70.3315L93.548 68.8586L94.522 70.0108L96.0187 69.8683Z" fill="white"/>
<path id="Vector_157" opacity="0.2" d="M115.961 51.0532L115.165 52.3361L115.759 53.714L114.298 53.3457L113.169 54.3435L113.062 52.835L111.768 52.0748L113.157 51.5046L113.49 50.0436L114.464 51.1958L115.961 51.0532Z" fill="white"/>
<path id="Vector_158" opacity="0.2" d="M87.0818 47.1929L86.9631 50.6019L89.7069 52.6212L86.4286 53.5596L85.3476 56.7904L83.4353 53.9753L80.0381 53.9397L82.1287 51.2552L81.1071 48.0125L84.3023 49.1765L87.0818 47.1929Z" fill="white"/>
<path id="Vector_159" opacity="0.2" d="M103.759 63.1928L105.778 65.9247L109.187 65.806L107.216 68.5855L108.38 71.7807L105.125 70.7592L102.441 72.8616L102.417 69.4526L99.5898 67.5521L102.809 66.4712L103.759 63.1928Z" fill="white"/>
<path id="Vector_160" opacity="0.2" d="M102.455 79.062L102.336 82.471L105.08 84.4903L101.802 85.4287L100.721 88.6596L98.8083 85.8444L95.4111 85.8088L97.5017 83.1243L96.4802 79.8816L99.6754 81.0338L102.455 79.062Z" fill="white"/>
<path id="Vector_161" opacity="0.2" d="M124.202 56.3866L124.44 58.2158L125.96 58.0258L124.428 60.0094L124.179 62.195L122.991 61.5892L121.304 63.1215L122.112 60.7578L121.328 59.5224L123.003 58.6791L124.202 56.3866Z" fill="white"/>
<path id="Vector_162" opacity="0.2" d="M136.201 63.2047L135.037 65.5209L135.394 67.2314L133.849 67.4808L132.376 69.5476L132.59 67.3977L131.319 66.9581L132.994 65.3784L133.683 63.0384L134.503 64.2262L136.201 63.2047Z" fill="white"/>
<path id="Vector_163" opacity="0.2" d="M124.109 88.2795L122.944 90.5839L123.301 92.3062L121.757 92.5438L120.284 94.6225L120.498 92.4606L119.227 92.033L120.901 90.4532L121.59 88.1132L122.41 89.2891L124.109 88.2795Z" fill="white"/>
<path id="Vector_164" opacity="0.2" d="M121.235 80.5111L120.071 82.8155L120.439 84.5378L118.895 84.7754L117.422 86.8541L117.624 84.6923L116.353 84.2646L118.028 82.6848L118.717 80.333L119.536 81.5208L121.235 80.5111Z" fill="white"/>
<path id="Vector_165" opacity="0.2" d="M128.184 81.4138L127.496 82.768L127.709 83.7657L126.807 83.9083L125.939 85.1198L126.058 83.8608L125.322 83.6113L126.296 82.6848L126.7 81.3069L127.187 82.0078L128.184 81.4138Z" fill="white"/>
<path id="Vector_166" opacity="0.2" d="M112.683 88.0181L112.006 89.3722L112.22 90.3819L111.317 90.5244L110.45 91.736L110.581 90.465L109.833 90.2156L110.807 89.2891L111.21 87.9231L111.697 88.612L112.683 88.0181Z" fill="white"/>
<path id="Vector_167" opacity="0.2" d="M117.992 74.4177L117.303 75.7599L117.517 76.7696L116.614 76.9121L115.747 78.1237L115.878 76.8646L115.129 76.6151L116.103 75.6886L116.507 74.3108L116.994 75.0116L117.992 74.4177Z" fill="white"/>
<path id="Vector_168" opacity="0.2" d="M143.54 58.9403L142.863 60.2826L143.077 61.2922L142.174 61.4348L141.307 62.6463L141.426 61.3873L140.689 61.1378L141.663 60.2113L142.067 58.8334L142.554 59.5342L143.54 58.9403Z" fill="white"/>
<path id="Vector_169" opacity="0.2" d="M125.248 64.6775L124.738 67.647L126.27 68.526L124.013 70.3671L122.896 73.4911L122.017 71.6618L119.808 72.7071L121.507 69.7257L121.257 67.255H123.193L125.248 64.6775Z" fill="white"/>
<path id="Vector_170" opacity="0.2" d="M134.064 73.2298L135.038 74.9403L137.259 73.7762L135.62 76.7814L135.976 79.1808L133.993 79.3115L131.973 81.9722L132.389 79.0383L130.797 78.2899L133.03 76.3419L134.064 73.2298Z" fill="white"/>
<path id="Vector_171" opacity="0.2" d="M131.187 87.3054L130.688 90.275L132.209 91.1658L129.964 92.9951L128.847 96.119L127.968 94.2898L125.747 95.3351L127.458 92.3655L127.208 89.883H129.132L131.187 87.3054Z" fill="white"/>
<path id="Vector_172" opacity="0.2" d="M120.817 52.4548L149.158 56.8735L131.08 97.5444L103.13 94.5749L120.817 52.4548Z" fill="black"/>
<path id="Vector_173" opacity="0.2" d="M79.7554 30.4565L105.638 33.331L148.934 56.5648L120.961 52.1936L79.7554 30.4565Z" fill="white"/>
<path id="Vector_174" d="M121.366 96.618L140.252 54.8662L98.0371 32.2026L92.9414 32.1432L130.94 53.8922L114.845 95.6796L121.366 96.618Z" fill="white"/>
<path id="Vector_175" d="M126.65 44.6034L102.431 42.1921L83.3663 83.3738L77.249 80.0954L94.413 38.0466L121.044 41.5982L126.65 44.6034Z" fill="white"/>
<g id="Group_7" opacity="0.2">
<path id="Vector_176" opacity="0.2" d="M121.367 96.6179L140.254 54.8661L98.0386 32.2025L92.9429 32.1431L130.941 53.8921L114.846 95.6795L121.367 96.6179Z" fill="white"/>
<path id="Vector_177" opacity="0.2" d="M126.654 44.6033L102.434 42.192L83.3697 83.3737L77.2524 80.0953L94.4164 38.0465L121.047 41.5981L126.654 44.6033Z" fill="white"/>
</g>
<path id="Vector_178" opacity="0.2" d="M140.062 55.2106L130.892 53.9753L114.773 95.8102L121.271 96.7842L140.062 55.2106Z" fill="black"/>
<path id="Vector_179" opacity="0.1" d="M94.318 38.2249L102.395 42.2872L83.3663 83.3738L77.249 80.0954L94.318 38.2249Z" fill="black"/>
<path id="Vector_180" d="M112.324 40.9449C112.324 40.9449 105.494 26.1209 99.3649 25.6221C94.5068 25.2301 92.3331 30.6584 101.586 37.3102C97.6664 35.6472 92.927 33.8536 89.708 33.4498L96.7399 38.3673C101.908 39.5409 106.972 41.1298 111.885 43.1186C111.615 44.0727 111.141 44.9564 110.495 45.7081L115.876 48.0243C115.876 48.0243 115.127 45.7556 114.474 44.0332C120.674 46.6108 134.311 51.4927 138.551 46.6227C144.134 40.3035 123.359 35.3859 112.324 40.9449ZM98.581 27.0831C100.814 25.824 111.267 41.1944 111.267 41.1944C103.938 38.4861 96.336 28.3422 98.581 27.0831ZM113.452 41.9664C113.452 41.9664 134.988 39.1632 137.411 43.665C139.834 48.1669 117.919 44.9241 113.452 41.9664V41.9664Z" fill="white"/>
<path id="Vector_181" opacity="0.1" d="M112.324 40.9449C112.324 40.9449 105.494 26.1209 99.3649 25.6221C94.5068 25.2301 92.3331 30.6584 101.586 37.3102C97.6664 35.6472 92.927 33.8536 89.708 33.4498L96.7399 38.3673C101.908 39.5409 106.972 41.1298 111.885 43.1186C111.615 44.0727 111.141 44.9564 110.495 45.7081L115.876 48.0243C115.876 48.0243 115.127 45.7556 114.474 44.0332C120.674 46.6108 134.311 51.4927 138.551 46.6227C144.134 40.3035 123.359 35.3859 112.324 40.9449ZM98.581 27.0831C100.814 25.824 111.267 41.1944 111.267 41.1944C103.938 38.4861 96.336 28.3422 98.581 27.0831ZM113.452 41.9664C113.452 41.9664 134.988 39.1632 137.411 43.665C139.834 48.1669 117.919 44.9241 113.452 41.9664V41.9664Z" fill="black"/>
</g>
</g>
<defs>
<filter id="filter0_f_3581_4016" x="5.66886" y="113.073" width="127.374" height="22.2577" filterUnits="userSpaceOnUse" color-interpolation-filters="sRGB">
<feFlood flood-opacity="0" result="BackgroundImageFix"/>
<feBlend mode="normal" in="SourceGraphic" in2="BackgroundImageFix" result="shape"/>
<feGaussianBlur stdDeviation="3.19438" result="effect1_foregroundBlur_3581_4016"/>
</filter>
</defs>
</svg>
