<svg width="41" height="44" viewBox="0 0 41 44" fill="none" xmlns="http://www.w3.org/2000/svg">
<path id="Union" fill-rule="evenodd" clip-rule="evenodd" d="M20.3662 0.651367L17.9746 0.821228C18.7632 1.68634 18.4712 2.62506 18.1785 3.5658C17.8871 4.50232 17.5951 5.4408 18.3679 6.31061L20.7351 6.15802C19.9606 5.28619 20.2556 4.3454 20.5507 3.4046C20.8457 2.46387 21.1407 1.52313 20.3662 0.651367ZM30.8915 13.0672L23.9136 17.5737H35.7333V26.8775H33.4547V43.1592H5.25842V26.8776H2.97998V17.5737H15.9388L10.2427 12.9218L17.0781 8.2699L19.6415 16.12L24.0559 6.08929L30.8915 13.0672ZM28.2092 12.796L24.6324 9.14484L20.9132 17.519L28.2092 12.796ZM18.184 17.1733L16.1644 10.9883L13.135 13.0499L18.184 17.1733ZM7.53699 40.8333H17.0781V26.1489H7.53699V40.8333ZM5.25842 24.5516H17.0781V19.8997H5.25842V24.5516ZM21.635 40.8333H31.1763V26.1489H21.635V40.8333ZM21.635 24.5516H33.4547V19.8997H21.635V24.5516ZM35.8823 11.8807L37.5651 13.2501C37.5872 12.1926 38.3671 11.7458 39.1482 11.2984C39.931 10.85 40.7152 10.4008 40.7394 9.33557L39.0527 7.97711C39.0286 9.04236 38.2455 9.48877 37.4636 9.93445C36.6835 10.3792 35.9045 10.8232 35.8823 11.8807ZM6.42798 11.6316L4.78455 13.3773C3.62427 13.2612 3.20361 12.3695 2.78296 11.4778C2.3623 10.5861 1.94165 9.69434 0.78125 9.57819L2.41846 7.86169C3.57629 7.97754 3.99768 8.86554 4.41809 9.75159C4.84045 10.6417 5.26196 11.5298 6.42798 11.6316Z" fill="white"/>
</svg>
