<svg width="115" height="113" viewBox="0 0 115 113" fill="none" xmlns="http://www.w3.org/2000/svg">
<g id="Group 44" opacity="0.3">
<path id="Vector" d="M24.8438 68.1444L43.0739 109.281L112.939 78.3084L94.7085 37.1723L24.8438 68.1444Z" fill="#EB5757"/>
<path id="Vector_2" opacity="0.7" d="M42.0167 60.5026L60.2467 101.639L72.2327 96.3261L54.0027 55.1899L42.0167 60.5026Z" fill="white"/>
<path id="Vector_3" opacity="0.2" d="M71.1758 47.6017L89.4059 88.7378L112.938 78.3085L94.7075 37.1724L71.1758 47.6017Z" fill="black"/>
<path id="Vector_4" opacity="0.2" d="M24.8437 68.0907L25.5059 69.5591L71.8389 49.0162L71.1767 47.5479L24.8437 68.0907Z" fill="black"/>
<path id="Vector_5" d="M19.0671 57.6901L21.5459 64.0801L96.7221 34.9149L94.2434 28.5249L19.0671 57.6901Z" fill="#EB5757"/>
<path id="Vector_6" opacity="0.7" d="M36.5886 50.8952L39.0674 57.2852L51.2924 52.5514L48.8136 46.1614L36.5886 50.8952Z" fill="white"/>
<path id="Vector_7" opacity="0.2" d="M65.904 39.5299L68.3828 45.92L96.7324 34.9364L94.2536 28.5464L65.904 39.5299Z" fill="black"/>
<path id="Vector_8" d="M66.0982 31.7061C65.4132 29.9263 64.0411 28.4943 62.2949 27.7092C60.5488 26.9241 58.5581 26.8818 56.7749 27.569L66.6257 23.7408C67.5066 23.4026 68.442 23.2253 69.3996 23.252C70.3573 23.2788 71.2942 23.4775 72.1564 23.8487C73.0295 24.2412 73.8171 24.7847 74.4546 25.458C75.1029 26.1527 75.6118 26.945 75.9597 27.8456C76.2968 28.7248 76.4727 29.6586 76.4443 30.6151C76.4158 31.5716 76.2152 32.5076 75.842 33.3694C75.4475 34.2421 74.9019 35.0296 74.2266 35.6675C73.5299 36.3162 72.7357 36.8258 71.8334 37.1748L65.087 39.7818L62.0146 40.9599C63.787 40.2513 65.2018 38.8892 65.9695 37.1548C66.7266 35.4527 66.7724 33.4645 66.0982 31.7061Z" fill="#EB5757"/>
<path id="Vector_9" opacity="0.5" d="M66.0982 31.7061C65.4132 29.9263 64.0411 28.4943 62.2949 27.7092C60.5488 26.9241 58.5581 26.8818 56.7749 27.569L66.6257 23.7408C67.5066 23.4026 68.442 23.2253 69.3996 23.252C70.3573 23.2788 71.2942 23.4775 72.1564 23.8487C73.0295 24.2412 73.8171 24.7847 74.4546 25.458C75.1029 26.1527 75.6118 26.945 75.9597 27.8456C76.2968 28.7248 76.4727 29.6586 76.4443 30.6151C76.4158 31.5716 76.2152 32.5076 75.842 33.3694C75.4475 34.2421 74.9019 35.0296 74.2266 35.6675C73.5299 36.3162 72.7357 36.8258 71.8334 37.1748L65.087 39.7818L62.0146 40.9599C63.787 40.2513 65.2018 38.8892 65.9695 37.1548C66.7266 35.4527 66.7724 33.4645 66.0982 31.7061Z" fill="white"/>
<path id="Vector_10" d="M56.7537 27.5799L66.6046 23.7516C65.7237 24.0898 64.9081 24.6103 64.2113 25.259C63.5146 25.9077 62.969 26.6953 62.5959 27.5571C62.2013 28.4297 62.0007 29.3657 61.9937 30.3114C61.9653 31.2679 62.1412 32.2017 62.4782 33.0809L65.0767 39.8141L55.2042 43.5995L52.6057 36.8663C51.9207 35.0865 51.9988 33.1089 52.7557 31.353C53.5019 29.6295 54.949 28.278 56.7537 27.5799Z" fill="#EB5757"/>
<path id="Vector_11" opacity="0.7" d="M56.7537 27.5799L66.6046 23.7516C65.7237 24.0898 64.9081 24.6103 64.2113 25.259C63.5146 25.9077 62.969 26.6953 62.5959 27.5571C62.2013 28.4297 62.0007 29.3657 61.9937 30.3114C61.9653 31.2679 62.1412 32.2017 62.4782 33.0809L65.0767 39.8141L55.2042 43.5995L52.6057 36.8663C51.9207 35.0865 51.9988 33.1089 52.7557 31.353C53.5019 29.6295 54.949 28.278 56.7537 27.5799Z" fill="white"/>
<path id="Vector_12" d="M46.0435 31.7355L36.1709 35.5209C37.9542 34.8337 39.9448 34.8759 41.7124 35.6502C43.4801 36.4245 44.8523 37.8565 45.5372 39.6363L48.1357 46.3694L58.0192 42.6055L55.4206 35.8723C55.0836 34.9931 54.5639 34.1794 53.9155 33.4847C53.2672 32.79 52.4796 32.2465 51.6173 31.8754C50.7443 31.4828 49.8074 31.284 48.8606 31.2787C47.8597 31.22 46.9135 31.3759 46.0435 31.7355Z" fill="#EB5757"/>
<path id="Vector_13" opacity="0.5" d="M46.0435 31.7355L36.1709 35.5209C37.9542 34.8337 39.9448 34.8759 41.7124 35.6502C43.4801 36.4245 44.8523 37.8565 45.5372 39.6363L48.1357 46.3694L58.0192 42.6055L55.4206 35.8723C55.0836 34.9931 54.5639 34.1794 53.9155 33.4847C53.2672 32.79 52.4796 32.2465 51.6173 31.8754C50.7443 31.4828 49.8074 31.284 48.8606 31.2787C47.8597 31.22 46.9135 31.3759 46.0435 31.7355Z" fill="white"/>
<path id="Vector_14" d="M41.8955 41.0755C41.2105 39.2957 41.2563 37.3075 42.0347 35.5408C42.813 33.7741 44.2492 32.4011 46.0325 31.7139L36.1599 35.4993C34.3767 36.1865 32.919 37.5703 32.1621 39.3262C31.3838 41.0929 31.338 43.0811 32.0229 44.8609C32.7079 46.6407 34.0909 48.0941 35.8477 48.8469C37.6154 49.6212 39.606 49.6635 41.3893 48.9763L48.1356 46.3693L51.2081 45.1912C49.4248 45.8784 47.4556 45.8252 45.7203 45.0615C43.9633 44.255 42.602 42.8444 41.8955 41.0755Z" fill="#EB5757"/>
<path id="Vector_15" opacity="0.7" d="M41.8955 41.0755C41.2105 39.2957 41.2563 37.3075 42.0347 35.5408C42.813 33.7741 44.2492 32.4011 46.0325 31.7139L36.1599 35.4993C34.3767 36.1865 32.919 37.5703 32.1621 39.3262C31.3838 41.0929 31.338 43.0811 32.0229 44.8609C32.7079 46.6407 34.0909 48.0941 35.8477 48.8469C37.6154 49.6212 39.606 49.6635 41.3893 48.9763L48.1356 46.3693L51.2081 45.1912C49.4248 45.8784 47.4556 45.8252 45.7203 45.0615C43.9633 44.255 42.602 42.8444 41.8955 41.0755Z" fill="white"/>
<path id="Vector_16" d="M68.2134 11.7397L63.7614 12.3241C60.6396 9.24735 65.5292 5.10376 62.3966 2.00559L66.8377 1.39982C69.9704 4.49798 65.0916 8.663 68.2134 11.7397Z" fill="#EB5757"/>
<path id="Vector_17" d="M10.9815 53.6533L9.65133 57.3143C6.06244 58.4847 4.82505 53.1084 1.20383 54.2682L2.51256 50.618C6.13378 49.4582 7.37117 54.8345 10.9815 53.6533Z" fill="#EB5757"/>
<path id="Vector_18" opacity="0.7" d="M10.9815 53.6533L9.65133 57.3143C6.06244 58.4847 4.82505 53.1084 1.20383 54.2682L2.51256 50.618C6.13378 49.4582 7.37117 54.8345 10.9815 53.6533Z" fill="white"/>
<path id="Vector_19" d="M103.423 23.4756L99.9626 21.8084C99.216 18.0948 104.722 17.4614 103.976 13.7478L107.458 15.4578C108.161 19.1394 102.676 19.762 103.423 23.4756Z" fill="#EB5757"/>
<path id="Vector_20" opacity="0.5" d="M103.423 23.4756L99.9626 21.8084C99.216 18.0948 104.722 17.4614 103.976 13.7478L107.458 15.4578C108.161 19.1394 102.676 19.762 103.423 23.4756Z" fill="white"/>
<path id="Vector_21" d="M27.086 23.9681L25.0166 25.7423C22.4214 25.1984 23.5471 21.5063 20.9519 20.9624L23.0107 19.2206C25.6058 19.7644 24.4802 23.4566 27.086 23.9681Z" fill="#EB5757"/>
<path id="Vector_22" d="M20.0562 87.0411L21.9683 88.9535C21.6238 91.5774 17.8655 90.7608 17.521 93.3847L15.6089 91.4723C15.9426 88.827 19.744 89.6755 20.0562 87.0411Z" fill="#EB5757"/>
</g>
</svg>
