<svg width="92" height="82" viewBox="0 0 92 82" fill="none" xmlns="http://www.w3.org/2000/svg">
<g id="Group 45" opacity="0.5">
<path id="Vector" d="M18.3846 27.2523L5.16664 58.8264L58.7973 81.2699L72.0152 49.6958L18.3846 27.2523Z" fill="#DADADA"/>
<path id="Vector_2" opacity="0.7" d="M31.5828 32.7542L18.3649 64.3282L27.5652 68.1792L40.7832 36.6051L31.5828 32.7542Z" fill="white"/>
<path id="Vector_3" opacity="0.2" d="M53.953 42.1351L40.735 73.7092L58.7973 81.2699L72.0152 49.6958L53.953 42.1351Z" fill="black"/>
<path id="Vector_4" opacity="0.2" d="M18.414 27.2242L17.9482 28.3576L53.5165 43.2403L53.9823 42.1069L18.414 27.2242Z" fill="black"/>
<path id="Vector_5" d="M21.1455 18.5958L18.9078 23.3053L74.3148 49.6296L76.5526 44.9202L21.1455 18.5958Z" fill="#DADADA"/>
<path id="Vector_6" opacity="0.7" d="M34.0586 24.7323L31.8209 29.4418L40.8261 33.7274L43.0638 29.0179L34.0586 24.7323Z" fill="white"/>
<path id="Vector_7" opacity="0.2" d="M55.6602 35.0024L53.4225 39.7119L74.3087 49.6468L76.5464 44.9374L55.6602 35.0024Z" fill="black"/>
<path id="Vector_8" d="M60.088 31.0218C60.7141 29.7131 60.7888 28.2062 60.3105 26.8305C59.8322 25.4548 58.8154 24.3321 57.5036 23.7052L64.7676 27.1513C65.4149 27.4616 66.0016 27.8861 66.4873 28.4296C66.9729 28.973 67.3526 29.5949 67.5979 30.2655C67.8371 30.9534 67.9481 31.6728 67.909 32.3771C67.8637 33.0986 67.6915 33.7939 67.3754 34.4569C67.0654 35.1026 66.641 35.6878 66.0973 36.1719C65.5536 36.656 64.9313 37.0342 64.2598 37.2782C63.5712 37.516 62.8507 37.6259 62.1452 37.5858C61.4224 37.5396 60.7257 37.3668 60.0612 37.0503L55.0947 34.6825L52.8379 33.5994C54.1558 34.2091 55.6481 34.2796 57.0082 33.7977C58.3449 33.3269 59.4681 32.3133 60.088 31.0218Z" fill="#DADADA"/>
<path id="Vector_9" opacity="0.5" d="M60.088 31.0218C60.7141 29.7131 60.7888 28.2062 60.3105 26.8305C59.8322 25.4548 58.8154 24.3321 57.5036 23.7052L64.7676 27.1513C65.4149 27.4616 66.0016 27.8861 66.4873 28.4296C66.9729 28.973 67.3526 29.5949 67.5979 30.2655C67.8371 30.9534 67.9481 31.6728 67.909 32.3771C67.8637 33.0986 67.6915 33.7939 67.3754 34.4569C67.0654 35.1026 66.641 35.6878 66.0973 36.1719C65.5536 36.656 64.9313 37.0342 64.2598 37.2782C63.5712 37.516 62.8507 37.6259 62.1452 37.5858C61.4224 37.5396 60.7257 37.3668 60.0612 37.0503L55.0947 34.6825L52.8379 33.5994C54.1558 34.2091 55.6481 34.2796 57.0082 33.7977C58.3449 33.3269 59.4681 32.3133 60.088 31.0218Z" fill="white"/>
<path id="Vector_10" d="M57.4861 23.699L64.75 27.145C64.1028 26.8347 63.3888 26.6557 62.6661 26.6095C61.9433 26.5632 61.2228 26.6731 60.5514 26.9171C59.8627 27.155 59.2404 27.5331 58.7139 28.0234C58.1702 28.5075 57.7458 29.0927 57.4359 29.7384L55.0709 34.6934L47.8193 31.213L50.1842 26.258C50.8103 24.9493 51.9446 23.9591 53.3108 23.4601C54.6537 22.972 56.1571 23.0659 57.4861 23.699Z" fill="#DADADA"/>
<path id="Vector_11" opacity="0.7" d="M57.4861 23.699L64.75 27.145C64.1028 26.8347 63.3888 26.6557 62.6661 26.6095C61.9433 26.5632 61.2228 26.6731 60.5514 26.9171C59.8627 27.155 59.2404 27.5331 58.7139 28.0234C58.1702 28.5075 57.7458 29.0927 57.4359 29.7384L55.0709 34.6934L47.8193 31.213L50.1842 26.258C50.8103 24.9493 51.9446 23.9591 53.3108 23.4601C54.6537 22.972 56.1571 23.0659 57.4861 23.699Z" fill="white"/>
<path id="Vector_12" d="M49.5924 19.9488L42.3408 16.4683C43.6526 17.0952 44.6694 18.2179 45.1649 19.5998C45.6605 20.9816 45.5858 22.4886 44.9597 23.7973L42.5948 28.7523L49.8402 32.2499L52.2051 27.2949C52.5151 26.6492 52.6934 25.9367 52.7387 25.2152C52.784 24.4937 52.673 23.7743 52.4276 23.1036C52.1884 22.4158 51.8088 21.7939 51.317 21.2676C50.8265 20.6836 50.2459 20.2419 49.5924 19.9488Z" fill="#DADADA"/>
<path id="Vector_13" opacity="0.5" d="M49.5924 19.9488L42.3408 16.4683C43.6526 17.0952 44.6694 18.2179 45.1649 19.5998C45.6605 20.9816 45.5858 22.4886 44.9597 23.7973L42.5948 28.7523L49.8402 32.2499L52.2051 27.2949C52.5151 26.6492 52.6934 25.9367 52.7387 25.2152C52.784 24.4937 52.673 23.7743 52.4276 23.1036C52.1884 22.4158 51.8088 21.7939 51.317 21.2676C50.8265 20.6836 50.2459 20.2419 49.5924 19.9488Z" fill="white"/>
<path id="Vector_14" d="M42.2607 22.536C42.8868 21.2273 44.01 20.2137 45.3935 19.7209C46.777 19.2281 48.2865 19.3048 49.5983 19.9316L42.3467 16.4512C41.0349 15.8243 39.5081 15.7414 38.1418 16.2405C36.7583 16.7333 35.6352 17.7468 35.0091 19.0556C34.383 20.3643 34.302 21.8884 34.8038 23.2531C35.2994 24.635 36.3161 25.7577 37.6279 26.3845L42.5944 28.7523L44.8513 29.8354C43.5395 29.2085 42.5399 28.092 42.0554 26.7335C41.5833 25.3407 41.6518 23.8509 42.2607 22.536Z" fill="#DADADA"/>
<path id="Vector_15" opacity="0.7" d="M42.2607 22.536C42.8868 21.2273 44.01 20.2137 45.3935 19.7209C46.777 19.2281 48.2865 19.3048 49.5983 19.9316L42.3467 16.4512C41.0349 15.8243 39.5081 15.7414 38.1418 16.2405C36.7583 16.7333 35.6352 17.7468 35.0091 19.0556C34.383 20.3643 34.302 21.8884 34.8038 23.2531C35.2994 24.635 36.3161 25.7577 37.6279 26.3845L42.5944 28.7523L44.8513 29.8354C43.5395 29.2085 42.5399 28.092 42.0554 26.7335C41.5833 25.3407 41.6518 23.8509 42.2607 22.536Z" fill="white"/>
<path id="Vector_16" d="M72.2323 21.7579L69.5829 19.6018C69.6528 16.2681 74.4987 16.8063 74.5748 13.4555L77.2303 15.5944C77.1543 18.9453 72.3022 18.4242 72.2323 21.7579Z" fill="#DADADA"/>
<path id="Vector_17" d="M19.1528 12.0159L16.4335 13.1935C13.9111 11.8208 16.2371 8.32737 13.7036 6.93129L16.4056 5.74752C18.9391 7.14361 16.6131 10.6371 19.1528 12.0159Z" fill="#DADADA"/>
<path id="Vector_18" opacity="0.7" d="M19.1528 12.0159L16.4335 13.1935C13.9111 11.8208 16.2371 8.32737 13.7036 6.93129L16.4056 5.74752C18.9391 7.14361 16.6131 10.6371 19.1528 12.0159Z" fill="white"/>
<path id="Vector_19" d="M84.1407 47.3566L83.2542 44.5723C84.9174 42.219 88.1447 44.9324 89.8078 42.5791L90.6819 45.3979C89.0139 47.7105 85.8038 45.0034 84.1407 47.3566Z" fill="#DADADA"/>
<path id="Vector_20" opacity="0.5" d="M84.1407 47.3566L83.2542 44.5723C84.9174 42.219 88.1447 44.9324 89.8078 42.5791L90.6819 45.3979C89.0139 47.7105 85.8038 45.0034 84.1407 47.3566Z" fill="white"/>
<path id="Vector_21" d="M43.9814 5.40907L41.9191 5.19196C40.8638 3.47294 43.4933 2.16604 42.4379 0.447026L44.4768 0.675139C45.5321 2.39416 42.9026 3.70105 43.9814 5.40907Z" fill="#DADADA"/>
<path id="Vector_22" d="M5.43528 34.4795L5.37703 36.5359C3.74631 37.7165 2.23396 35.2119 0.603232 36.3925L0.661484 34.336C2.29839 33.1383 3.81561 35.6834 5.43528 34.4795Z" fill="#DADADA"/>
</g>
</svg>
