<svg width="71" height="70" viewBox="0 0 71 70" fill="none" xmlns="http://www.w3.org/2000/svg">
<g id="Layer_1" clip-path="url(#clip0_5130_29)">
<path id="Vector" d="M0.625977 0.843262H22.4547V22.4058H0.625977V0.843262ZM18.0763 18.0646V5.20977H5.03865V18.0646H18.078H18.0763Z" fill="black"/>
<path id="Vector_2" d="M0.625977 48.2808H22.501V69.8433H0.625977V48.2808ZM18.0695 65.5173V52.6388H5.05235V65.5173H18.0695Z" fill="black"/>
<path id="Vector_3" d="M26.876 69.8432V65.5409H35.5917V52.6236H26.9205V48.3179H39.965V61.198H48.7099V65.4936H40.001V69.8449H26.876V69.8432Z" fill="black"/>
<path id="Vector_4" d="M0.625977 26.7183H4.99241V35.3264H9.32632V39.6473H5.01639V43.9683H0.625977V26.7183Z" fill="black"/>
<path id="Vector_5" d="M53.126 69.8433V56.9496H66.2133V61.1828H57.501V69.8433H53.126Z" fill="black"/>
<path id="Vector_6" d="M61.876 69.8432V65.5763H70.626V69.8432H61.876Z" fill="black"/>
<path id="Vector_7" d="M48.7817 22.3585V0.878723H70.5711V22.3568H48.7817V22.3585ZM53.1739 5.18616V18.041H66.2167V5.18616H53.1739Z" fill="black"/>
<path id="Vector_8" d="M13.7852 43.9176V35.3568H18.1054V26.7571H22.4667V35.3247H31.2269V39.6237H35.5814V43.9311H26.905V39.6963H18.1447V43.9176H13.7852Z" fill="black"/>
<path id="Vector_9" d="M70.6005 26.7503V31.0004H66.2905V35.2943H48.7939V31.0459H53.1039V26.7587H57.4874V30.9835H61.871V26.7503H70.6005Z" fill="black"/>
<path id="Vector_10" d="M44.3436 9.44632V13.7622H40.0285V18.0511H35.6467V13.8111H26.9224V5.19458H31.2152V9.44632H44.3436Z" fill="black"/>
<path id="Vector_11" d="M39.996 26.7385V22.4598H44.3282V30.9903H26.9326V26.7385H39.996Z" fill="black"/>
<path id="Vector_12" d="M57.4581 52.5781H53.1567V43.9801H48.7886V39.7064H57.4581V52.5781Z" fill="black"/>
<path id="Vector_13" d="M44.345 0.890503V5.1203H35.6807V0.890503H44.345Z" fill="black"/>
<path id="Vector_14" d="M44.3265 43.9379H40.0371V35.3973H44.3265V43.9379Z" fill="black"/>
<path id="Vector_15" d="M61.9067 43.921V39.6912H70.5711V43.921H61.9067Z" fill="black"/>
<path id="Vector_16" d="M48.703 56.8737H44.4102V48.3331H48.703V56.8737Z" fill="black"/>
<path id="Vector_17" d="M31.2117 22.372H26.9292V18.1389H31.2117V22.372Z" fill="black"/>
<path id="Vector_18" d="M9.40674 30.9818V26.7537H13.6961V30.9818H9.40674Z" fill="black"/>
<path id="Vector_19" d="M70.6005 48.3331V52.5544H66.2871V48.3331H70.6005Z" fill="black"/>
<path id="Vector_20" d="M26.9033 61.1659V56.9446H31.2167V61.1659H26.9033Z" fill="black"/>
<path id="Vector_21" d="M9.42578 9.49695H13.7117V13.7251H9.42578V9.49695Z" fill="black"/>
<path id="Vector_22" d="M13.7218 56.9395V61.171H9.41699V56.9395H13.7218Z" fill="black"/>
<path id="Vector_23" d="M57.5508 9.49695H61.8402V13.7251H57.5508V9.49695Z" fill="black"/>
</g>
<defs>
<clipPath id="clip0_5130_29">
<rect width="70" height="69" fill="white" transform="translate(0.625977 0.843262)"/>
</clipPath>
</defs>
</svg>
