<svg width="76" height="112" viewBox="0 0 76 112" fill="none" xmlns="http://www.w3.org/2000/svg">
<g id="Group">
<g id="XMLID_3_">
<g id="XMLID_16_">
<path id="XMLID_26_" d="M66.8109 111.892H8.06214C4.50487 111.892 1.70215 108.982 1.70215 105.424L3.42689 14.5525C3.42689 10.9952 6.1218 8.08472 9.46347 8.08472H65.3018C68.6434 8.08472 71.3383 10.9952 71.3383 14.5525L73.0631 105.424C73.2787 108.982 70.3682 111.892 66.8109 111.892Z" fill="#242424"/>
</g>
<g id="XMLID_13_">
<path id="XMLID_15_" d="M75.0032 106.826V57.3474H0.624023V106.826C0.624023 109.736 2.99555 112 5.79825 112H69.7212C72.6317 112 75.0032 109.736 75.0032 106.826Z" fill="url(#paint0_linear_3139_166)"/>
<path id="XMLID_14_" d="M75.0032 106.287V57.7786H0.624023V106.179C0.624023 108.982 2.99555 111.245 5.79825 111.245H69.7212C72.6317 111.353 75.0032 109.089 75.0032 106.287Z" fill="url(#paint1_linear_3139_166)"/>
</g>
<g id="XMLID_10_">
<path id="XMLID_12_" d="M75.0032 105.64V56.054H0.624023V105.64C0.624023 108.551 2.99555 110.814 5.79825 110.814H69.7212C72.6317 110.814 75.0032 108.443 75.0032 105.64Z" fill="url(#paint2_linear_3139_166)"/>
<path id="XMLID_11_" d="M75.0032 105.101V56.5929H0.624023V105.101C0.624023 107.904 2.99555 110.167 5.79825 110.167H69.7212C72.6317 110.167 75.0032 107.904 75.0032 105.101Z" fill="url(#paint3_linear_3139_166)"/>
</g>
<g id="XMLID_7_">
<path id="XMLID_9_" d="M75.0032 5.17421V54.6525H0.624023V5.17421C0.624023 2.26372 2.99555 0 5.79825 0H69.7212C72.6317 0 75.0032 2.37151 75.0032 5.17421Z" fill="url(#paint4_linear_3139_166)"/>
<path id="XMLID_8_" d="M75.0032 5.71314V54.1135H0.624023V5.71314C0.624023 2.91044 2.99555 0.646729 5.79825 0.646729H69.7212C72.6317 0.646729 75.0032 2.91044 75.0032 5.71314Z" fill="url(#paint5_linear_3139_166)"/>
</g>
<g id="XMLID_4_">
<path id="XMLID_6_" d="M75.0032 104.239V54.7604H0.624023V104.239C0.624023 107.149 2.99555 109.413 5.79825 109.413H69.7212C72.6317 109.413 75.0032 107.149 75.0032 104.239Z" fill="url(#paint6_linear_3139_166)"/>
<path id="XMLID_5_" d="M75.0032 103.7V55.1915H0.624023V103.7C0.624023 106.502 2.99555 108.766 5.79825 108.766H69.7212C72.6317 108.766 75.0032 106.502 75.0032 103.7Z" fill="url(#paint7_linear_3139_166)"/>
</g>
</g>
<path id="XMLID_2_" d="M29.0815 53.6824C29.0815 46.0289 29.6205 40.4235 30.4828 37.0818C31.1296 34.3869 32.0997 32.4466 33.5011 31.4764C34.7946 30.3984 36.196 29.9673 37.8129 29.9673C39.4299 29.9673 40.939 30.5062 42.3404 31.4764C43.5261 32.5544 44.6041 34.6025 45.4665 37.6208C46.221 40.5313 46.6522 45.9211 46.76 53.6824H60.9891C60.8813 40.8547 58.5098 31.5842 54.0901 25.9788C50.2095 21.128 44.8197 18.6487 38.0285 18.6487C31.2374 18.6487 25.9554 21.0202 22.0747 25.871C17.5473 31.5842 15.2836 40.8547 15.1758 53.6824H29.0815Z" fill="url(#paint8_linear_3139_166)"/>
<path id="XMLID_1_" d="M46.5445 55.6227C46.5445 63.384 46.0056 68.8816 45.1432 72.3311C44.3886 75.026 43.4185 76.8585 42.1249 77.9365C40.8314 79.0144 39.3222 79.4456 37.7053 79.4456C36.1962 79.4456 34.687 78.9066 33.3935 77.9365C32.0999 76.8585 31.0219 74.8104 30.2673 71.7921C29.5128 68.8816 29.0816 63.4918 29.0816 55.6227H14.8525C14.9603 68.666 17.1162 77.7209 21.2125 82.7873C25.4165 88.0693 30.9141 90.6564 37.7053 90.6564C44.4964 90.6564 49.8862 88.2849 53.7669 83.434C58.2943 77.7209 60.558 68.4504 60.6658 55.5149H46.5445V55.6227Z" fill="url(#paint9_linear_3139_166)"/>
</g>
<defs>
<linearGradient id="paint0_linear_3139_166" x1="37.8322" y1="57.3136" x2="37.8322" y2="112.033" gradientUnits="userSpaceOnUse">
<stop stop-color="#111111"/>
<stop offset="0.1189"/>
<stop offset="1" stop-color="#111111"/>
</linearGradient>
<linearGradient id="paint1_linear_3139_166" x1="37.8322" y1="57.8138" x2="37.8322" y2="111.339" gradientUnits="userSpaceOnUse">
<stop/>
<stop offset="1" stop-color="#212121"/>
</linearGradient>
<linearGradient id="paint2_linear_3139_166" x1="37.8322" y1="56.1011" x2="37.8322" y2="110.821" gradientUnits="userSpaceOnUse">
<stop stop-color="#1D1D1D"/>
<stop offset="0.1189"/>
<stop offset="1" stop-color="#1D1D1D"/>
</linearGradient>
<linearGradient id="paint3_linear_3139_166" x1="37.8322" y1="56.6009" x2="37.8322" y2="110.127" gradientUnits="userSpaceOnUse">
<stop/>
<stop offset="1" stop-color="#373737"/>
</linearGradient>
<linearGradient id="paint4_linear_3139_166" x1="37.8322" y1="54.7197" x2="37.8322" y2="0" gradientUnits="userSpaceOnUse">
<stop stop-color="#0C0C0C"/>
<stop offset="1" stop-color="#ADADAD"/>
</linearGradient>
<linearGradient id="paint5_linear_3139_166" x1="37.8322" y1="54.0942" x2="37.8322" y2="0.618919" gradientUnits="userSpaceOnUse">
<stop stop-color="#1C1C1C"/>
<stop offset="0.3053" stop-color="#454545"/>
<stop offset="0.5867" stop-color="#626262"/>
<stop offset="0.8277" stop-color="#757575"/>
<stop offset="1" stop-color="#7B7B7B"/>
</linearGradient>
<linearGradient id="paint6_linear_3139_166" x1="37.8322" y1="54.7197" x2="37.8322" y2="109.433" gradientUnits="userSpaceOnUse">
<stop stop-color="#262626"/>
<stop offset="0.1189"/>
<stop offset="1" stop-color="#262626"/>
</linearGradient>
<linearGradient id="paint7_linear_3139_166" x1="37.8322" y1="55.2135" x2="37.8322" y2="108.745" gradientUnits="userSpaceOnUse">
<stop stop-color="#393939"/>
<stop offset="0.00877207" stop-color="#4A4A4A"/>
<stop offset="0.0223312" stop-color="#5D5D5D"/>
<stop offset="0.0360807" stop-color="#696969"/>
<stop offset="0.0501918" stop-color="#6D6D6D"/>
<stop offset="0.2309" stop-color="#5A5A5A"/>
<stop offset="0.5292" stop-color="#3F3F3F"/>
<stop offset="0.7054" stop-color="#353535"/>
</linearGradient>
<linearGradient id="paint8_linear_3139_166" x1="37.8285" y1="53.6692" x2="37.8285" y2="18.6273" gradientUnits="userSpaceOnUse">
<stop stop-color="#8E8E8E"/>
<stop offset="0.0021689" stop-color="#8E8E8E"/>
<stop offset="0.0153453" stop-color="#8E8E8E"/>
<stop offset="0.0257878" stop-color="#A9A9A9"/>
<stop offset="0.0390477" stop-color="#C4C4C4"/>
<stop offset="0.0543051" stop-color="#DADADA"/>
<stop offset="0.0721129" stop-color="#EBEBEB"/>
<stop offset="0.0941362" stop-color="#F6F6F6"/>
<stop offset="0.125" stop-color="#FDFDFD"/>
<stop offset="0.2108" stop-color="white"/>
<stop offset="1" stop-color="white"/>
</linearGradient>
<linearGradient id="paint9_linear_3139_166" x1="37.8255" y1="90.7303" x2="37.8255" y2="55.6446" gradientUnits="userSpaceOnUse">
<stop stop-color="white"/>
<stop offset="0.7892" stop-color="white"/>
<stop offset="0.9217" stop-color="#FDFDFD"/>
<stop offset="0.9694" stop-color="#F6F6F6"/>
<stop offset="0.9747" stop-color="#F5F5F5"/>
<stop offset="0.9787" stop-color="#EFEFEF"/>
<stop offset="0.9839" stop-color="#DEDEDE"/>
<stop offset="0.9899" stop-color="#C2C2C2"/>
<stop offset="0.9965" stop-color="#9B9B9B"/>
<stop offset="1" stop-color="#838383"/>
</linearGradient>
</defs>
</svg>
