<svg width="75" height="113" viewBox="0 0 75 113" fill="none" xmlns="http://www.w3.org/2000/svg">
<g id="XMLID_85_">
<g id="XMLID_88_">
<g id="XMLID_98_">
<path id="XMLID_100_" d="M74.998 106.969V57.3765H0.5625V106.969C0.5625 109.859 2.89298 112.189 5.78277 112.189H69.8243C72.6675 112.143 74.998 109.859 74.998 106.969Z" fill="url(#paint0_linear_2426_10442)"/>
<path id="XMLID_99_" d="M74.998 106.41V57.8892H0.5625V106.41C0.5625 109.206 2.89298 111.49 5.78277 111.49H69.8243C72.6675 111.49 74.998 109.206 74.998 106.41Z" fill="url(#paint1_linear_2426_10442)"/>
</g>
<g id="XMLID_95_">
<path id="XMLID_97_" d="M74.998 105.757V56.1646H0.5625V105.757C0.5625 108.647 2.89298 110.977 5.78277 110.977H69.8243C72.6675 110.931 74.998 108.647 74.998 105.757Z" fill="url(#paint2_linear_2426_10442)"/>
<path id="XMLID_96_" d="M74.998 105.198V56.6772H0.5625V105.198C0.5625 107.994 2.89298 110.278 5.78277 110.278H69.8243C72.6675 110.278 74.998 107.994 74.998 105.198Z" fill="url(#paint3_linear_2426_10442)"/>
</g>
<g id="XMLID_92_">
<path id="XMLID_94_" d="M74.998 5.22027V54.8129H0.5625V5.22027C0.5625 2.33048 2.89298 0 5.78277 0H69.8243C72.6675 0 74.998 2.33048 74.998 5.22027Z" fill="url(#paint4_linear_2426_10442)"/>
<path id="XMLID_93_" d="M74.998 5.6864V54.1603H0.5625V5.6864C0.5625 2.88983 2.89298 0.605957 5.78277 0.605957H69.8243C72.6675 0.605957 74.998 2.88983 74.998 5.6864Z" fill="url(#paint5_linear_2426_10442)"/>
</g>
<g id="XMLID_89_">
<path id="XMLID_91_" d="M74.998 104.359V54.7663H0.5625V104.359C0.5625 107.249 2.89298 109.579 5.78277 109.579H69.8243C72.6675 109.579 74.998 107.249 74.998 104.359Z" fill="url(#paint6_linear_2426_10442)"/>
<path id="XMLID_90_" d="M74.998 103.8V55.279H0.5625V103.8C0.5625 106.596 2.89298 108.88 5.78277 108.88H69.8243C72.6675 108.88 74.998 106.596 74.998 103.8Z" fill="url(#paint7_linear_2426_10442)"/>
</g>
</g>
<path id="XMLID_87_" d="M52.0209 55.6985H38.5508V90.2362H52.0209V55.6985Z" fill="url(#paint8_linear_2426_10442)"/>
<path id="XMLID_86_" d="M38.5503 53.7408H52.0205V19.2498H41.0672C39.4825 23.6311 36.6393 27.453 32.4445 30.6691C28.2962 33.8852 24.4742 36.0292 20.9785 37.1478V49.4994C27.6903 47.2621 33.5165 43.813 38.5503 39.2453V53.7408Z" fill="url(#paint9_linear_2426_10442)"/>
</g>
<defs>
<linearGradient id="paint0_linear_2426_10442" x1="37.7965" y1="57.3815" x2="37.7965" y2="112.164" gradientUnits="userSpaceOnUse">
<stop stop-color="#111111"/>
<stop offset="0.1189"/>
<stop offset="1" stop-color="#111111"/>
</linearGradient>
<linearGradient id="paint1_linear_2426_10442" x1="37.7965" y1="57.8814" x2="37.7965" y2="111.474" gradientUnits="userSpaceOnUse">
<stop/>
<stop offset="1" stop-color="#212121"/>
</linearGradient>
<linearGradient id="paint2_linear_2426_10442" x1="37.7965" y1="56.1687" x2="37.7965" y2="110.951" gradientUnits="userSpaceOnUse">
<stop stop-color="#1D1D1D"/>
<stop offset="0.1189"/>
<stop offset="1" stop-color="#1D1D1D"/>
</linearGradient>
<linearGradient id="paint3_linear_2426_10442" x1="37.7965" y1="56.6686" x2="37.7965" y2="110.258" gradientUnits="userSpaceOnUse">
<stop/>
<stop offset="1" stop-color="#373737"/>
</linearGradient>
<linearGradient id="paint4_linear_2426_10442" x1="37.7965" y1="54.7826" x2="37.7965" y2="0" gradientUnits="userSpaceOnUse">
<stop stop-color="#0C0C0C"/>
<stop offset="1" stop-color="#ADADAD"/>
</linearGradient>
<linearGradient id="paint5_linear_2426_10442" x1="37.7965" y1="54.1589" x2="37.7965" y2="0.616304" gradientUnits="userSpaceOnUse">
<stop stop-color="#1C1C1C"/>
<stop offset="0.3053" stop-color="#454545"/>
<stop offset="0.5867" stop-color="#626262"/>
<stop offset="0.8277" stop-color="#757575"/>
<stop offset="1" stop-color="#7B7B7B"/>
</linearGradient>
<linearGradient id="paint6_linear_2426_10442" x1="37.7965" y1="54.7827" x2="37.7965" y2="109.565" gradientUnits="userSpaceOnUse">
<stop stop-color="#262626"/>
<stop offset="0.1189"/>
<stop offset="1" stop-color="#262626"/>
</linearGradient>
<linearGradient id="paint7_linear_2426_10442" x1="37.7965" y1="55.2827" x2="37.7965" y2="108.872" gradientUnits="userSpaceOnUse">
<stop stop-color="#393939"/>
<stop offset="0.00877207" stop-color="#4A4A4A"/>
<stop offset="0.0223312" stop-color="#5D5D5D"/>
<stop offset="0.0360807" stop-color="#696969"/>
<stop offset="0.0501918" stop-color="#6D6D6D"/>
<stop offset="0.2309" stop-color="#5A5A5A"/>
<stop offset="0.5292" stop-color="#3F3F3F"/>
<stop offset="0.7054" stop-color="#353535"/>
</linearGradient>
<linearGradient id="paint8_linear_2426_10442" x1="45.2578" y1="90.2625" x2="45.2578" y2="55.7084" gradientUnits="userSpaceOnUse">
<stop stop-color="white"/>
<stop offset="0.7892" stop-color="white"/>
<stop offset="0.9217" stop-color="#FDFDFD"/>
<stop offset="0.9694" stop-color="#F6F6F6"/>
<stop offset="0.9747" stop-color="#F5F5F5"/>
<stop offset="0.9787" stop-color="#EFEFEF"/>
<stop offset="0.9839" stop-color="#DEDEDE"/>
<stop offset="0.9899" stop-color="#C2C2C2"/>
<stop offset="0.9965" stop-color="#9B9B9B"/>
<stop offset="1" stop-color="#838383"/>
</linearGradient>
<linearGradient id="paint9_linear_2426_10442" x1="36.4805" y1="53.7332" x2="36.4805" y2="19.2286" gradientUnits="userSpaceOnUse">
<stop stop-color="#8E8E8E"/>
<stop offset="0.0021689" stop-color="#8E8E8E"/>
<stop offset="0.0153453" stop-color="#8E8E8E"/>
<stop offset="0.0257878" stop-color="#A9A9A9"/>
<stop offset="0.0390477" stop-color="#C4C4C4"/>
<stop offset="0.0543051" stop-color="#DADADA"/>
<stop offset="0.0721129" stop-color="#EBEBEB"/>
<stop offset="0.0941362" stop-color="#F6F6F6"/>
<stop offset="0.125" stop-color="#FDFDFD"/>
<stop offset="0.2108" stop-color="white"/>
<stop offset="1" stop-color="white"/>
</linearGradient>
</defs>
</svg>
