<svg width="76" height="113" viewBox="0 0 76 113" fill="none" xmlns="http://www.w3.org/2000/svg">
<g id="XMLID_66_">
<g id="XMLID_69_">
<g id="XMLID_82_">
<path id="Vector" d="M67.1413 112.049H8.32007C4.77775 112.049 1.93457 109.113 1.93457 105.524L3.70573 14.5422C3.70573 10.9533 6.4557 8.01691 9.81158 8.01691H65.7431C69.0989 8.01691 71.8489 10.9533 71.8489 14.5422L73.6201 105.524C73.5735 109.113 70.6837 112.049 67.1413 112.049Z" fill="#242424"/>
</g>
<g id="XMLID_79_">
<path id="XMLID_81_" d="M75.3447 106.969V57.3765H0.90918V106.969C0.90918 109.859 3.23966 112.189 6.12946 112.189H70.1244C73.0142 112.143 75.3447 109.859 75.3447 106.969Z" fill="url(#paint0_linear_2426_10458)"/>
<path id="XMLID_80_" d="M75.3447 106.41V57.8892H0.90918V106.41C0.90918 109.206 3.23966 111.49 6.12946 111.49H70.1244C73.0142 111.49 75.3447 109.206 75.3447 106.41Z" fill="url(#paint1_linear_2426_10458)"/>
</g>
<g id="XMLID_76_">
<path id="XMLID_78_" d="M75.3447 105.757V56.1646H0.90918V105.757C0.90918 108.647 3.23966 110.977 6.12946 110.977H70.1244C73.0142 110.931 75.3447 108.647 75.3447 105.757Z" fill="url(#paint2_linear_2426_10458)"/>
<path id="XMLID_77_" d="M75.3447 105.198V56.6772H0.90918V105.198C0.90918 107.994 3.23966 110.278 6.12946 110.278H70.1244C73.0142 110.278 75.3447 107.994 75.3447 105.198Z" fill="url(#paint3_linear_2426_10458)"/>
</g>
<g id="XMLID_73_">
<path id="XMLID_75_" d="M75.3447 5.22027V54.8129H0.90918V5.22027C0.90918 2.33048 3.23966 0 6.12946 0H70.1244C73.0142 0 75.3447 2.33048 75.3447 5.22027Z" fill="url(#paint4_linear_2426_10458)"/>
<path id="XMLID_74_" d="M75.3447 5.6864V54.1603H0.90918V5.6864C0.90918 2.88983 3.23966 0.605957 6.12946 0.605957H70.1244C73.0142 0.605957 75.3447 2.88983 75.3447 5.6864Z" fill="url(#paint5_linear_2426_10458)"/>
</g>
<g id="XMLID_70_">
<path id="XMLID_72_" d="M75.3447 104.359V54.7663H0.90918V104.359C0.90918 107.249 3.23966 109.579 6.12946 109.579H70.1244C73.0142 109.579 75.3447 107.249 75.3447 104.359Z" fill="url(#paint6_linear_2426_10458)"/>
<path id="XMLID_71_" d="M75.3447 103.8V55.279H0.90918V103.8C0.90918 106.596 3.23966 108.88 6.12946 108.88H70.1244C73.0142 108.88 75.3447 106.596 75.3447 103.8Z" fill="url(#paint7_linear_2426_10458)"/>
</g>
</g>
<path id="XMLID_68_" d="M30.274 36.5885C30.7867 35.1436 31.4858 33.9784 32.3248 33.0462C33.9095 31.3216 36.1468 30.4827 39.0366 30.4827C41.973 30.4827 44.2569 31.275 45.8416 32.8598C47.4263 34.4445 48.2187 36.775 48.2187 39.8512C48.2187 42.6012 47.2865 45.3977 45.4687 48.1477C44.6297 49.4061 42.9518 51.2239 40.4815 53.7408H57.1211C57.4007 53.2747 57.6804 52.8553 57.9601 52.4358C58.7991 51.0375 59.5448 49.546 60.1973 48.0079C61.316 45.1181 61.8753 42.0884 61.8753 38.919C61.8753 33.3725 59.8711 28.7115 55.8626 24.9361C51.8542 21.1607 46.4009 19.2498 39.4561 19.2498C33.0706 19.2498 27.7571 20.8811 23.5156 24.1904C19.2275 27.453 16.7106 32.8131 15.9648 40.2241L29.5282 41.6224C29.4816 39.7114 29.7613 38.0334 30.274 36.5885Z" fill="url(#paint8_linear_2426_10458)"/>
<path id="XMLID_67_" d="M36.1929 75.8338C36.7056 75.1347 37.2649 74.5287 37.7776 73.9694C38.8963 72.6177 41.5996 70.0076 45.8877 66.139C48.0317 64.1348 49.8495 62.4102 51.2944 60.8721C52.7393 59.3806 53.9045 58.0756 54.7435 57.0501C55.1164 56.584 55.4427 56.118 55.7689 55.6519H38.4768C37.2183 56.8637 35.7734 58.2154 34.1887 59.6603C26.6845 66.6517 21.6041 72.2915 19.0406 76.5796C16.4304 80.8676 14.8923 85.3888 14.333 90.1895H61.8748V77.6516H34.8878C35.2607 77.1389 35.6802 76.5329 36.1929 75.8338Z" fill="url(#paint9_linear_2426_10458)"/>
</g>
<defs>
<linearGradient id="paint0_linear_2426_10458" x1="38.1168" y1="57.3815" x2="38.1168" y2="112.164" gradientUnits="userSpaceOnUse">
<stop stop-color="#111111"/>
<stop offset="0.1189"/>
<stop offset="1" stop-color="#111111"/>
</linearGradient>
<linearGradient id="paint1_linear_2426_10458" x1="38.1168" y1="57.8814" x2="38.1168" y2="111.474" gradientUnits="userSpaceOnUse">
<stop/>
<stop offset="1" stop-color="#212121"/>
</linearGradient>
<linearGradient id="paint2_linear_2426_10458" x1="38.1168" y1="56.1687" x2="38.1168" y2="110.951" gradientUnits="userSpaceOnUse">
<stop stop-color="#1D1D1D"/>
<stop offset="0.1189"/>
<stop offset="1" stop-color="#1D1D1D"/>
</linearGradient>
<linearGradient id="paint3_linear_2426_10458" x1="38.1168" y1="56.6686" x2="38.1168" y2="110.258" gradientUnits="userSpaceOnUse">
<stop/>
<stop offset="1" stop-color="#373737"/>
</linearGradient>
<linearGradient id="paint4_linear_2426_10458" x1="38.1168" y1="54.7826" x2="38.1168" y2="0" gradientUnits="userSpaceOnUse">
<stop stop-color="#0C0C0C"/>
<stop offset="1" stop-color="#ADADAD"/>
</linearGradient>
<linearGradient id="paint5_linear_2426_10458" x1="38.1168" y1="54.1589" x2="38.1168" y2="0.616304" gradientUnits="userSpaceOnUse">
<stop stop-color="#1C1C1C"/>
<stop offset="0.3053" stop-color="#454545"/>
<stop offset="0.5867" stop-color="#626262"/>
<stop offset="0.8277" stop-color="#757575"/>
<stop offset="1" stop-color="#7B7B7B"/>
</linearGradient>
<linearGradient id="paint6_linear_2426_10458" x1="38.1168" y1="54.7827" x2="38.1168" y2="109.565" gradientUnits="userSpaceOnUse">
<stop stop-color="#262626"/>
<stop offset="0.1189"/>
<stop offset="1" stop-color="#262626"/>
</linearGradient>
<linearGradient id="paint7_linear_2426_10458" x1="38.1168" y1="55.2827" x2="38.1168" y2="108.872" gradientUnits="userSpaceOnUse">
<stop stop-color="#393939"/>
<stop offset="0.00877207" stop-color="#4A4A4A"/>
<stop offset="0.0223312" stop-color="#5D5D5D"/>
<stop offset="0.0360807" stop-color="#696969"/>
<stop offset="0.0501918" stop-color="#6D6D6D"/>
<stop offset="0.2309" stop-color="#5A5A5A"/>
<stop offset="0.5292" stop-color="#3F3F3F"/>
<stop offset="0.7054" stop-color="#353535"/>
</linearGradient>
<linearGradient id="paint8_linear_2426_10458" x1="38.9133" y1="53.7332" x2="38.9133" y2="19.2286" gradientUnits="userSpaceOnUse">
<stop stop-color="#8E8E8E"/>
<stop offset="0.0021689" stop-color="#8E8E8E"/>
<stop offset="0.0153453" stop-color="#8E8E8E"/>
<stop offset="0.0257878" stop-color="#A9A9A9"/>
<stop offset="0.0390477" stop-color="#C4C4C4"/>
<stop offset="0.0543051" stop-color="#DADADA"/>
<stop offset="0.0721129" stop-color="#EBEBEB"/>
<stop offset="0.0941362" stop-color="#F6F6F6"/>
<stop offset="0.125" stop-color="#FDFDFD"/>
<stop offset="0.2108" stop-color="white"/>
<stop offset="1" stop-color="white"/>
</linearGradient>
<linearGradient id="paint9_linear_2426_10458" x1="38.1171" y1="90.2625" x2="38.1171" y2="55.7083" gradientUnits="userSpaceOnUse">
<stop stop-color="white"/>
<stop offset="0.7892" stop-color="white"/>
<stop offset="0.9217" stop-color="#FDFDFD"/>
<stop offset="0.9694" stop-color="#F6F6F6"/>
<stop offset="0.9747" stop-color="#F5F5F5"/>
<stop offset="0.9787" stop-color="#EFEFEF"/>
<stop offset="0.9839" stop-color="#DEDEDE"/>
<stop offset="0.9899" stop-color="#C2C2C2"/>
<stop offset="0.9965" stop-color="#9B9B9B"/>
<stop offset="1" stop-color="#838383"/>
</linearGradient>
</defs>
</svg>
