<svg width="75" height="113" viewBox="0 0 75 113" fill="none" xmlns="http://www.w3.org/2000/svg">
<g id="XMLID_48_">
<g id="XMLID_49_">
<g id="XMLID_52_">
<g id="XMLID_62_">
<path id="XMLID_64_" d="M74.6904 106.969V57.3765H0.254883V106.969C0.254883 109.859 2.58536 112.189 5.47515 112.189H69.5167C72.3599 112.143 74.6904 109.859 74.6904 106.969Z" fill="url(#paint0_linear_2426_10476)"/>
<path id="XMLID_63_" d="M74.6904 106.41V57.8892H0.254883V106.41C0.254883 109.206 2.58536 111.49 5.47515 111.49H69.5167C72.3599 111.49 74.6904 109.206 74.6904 106.41Z" fill="url(#paint1_linear_2426_10476)"/>
</g>
<g id="XMLID_59_">
<path id="XMLID_61_" d="M74.6904 105.757V56.1646H0.254883V105.757C0.254883 108.647 2.58536 110.977 5.47515 110.977H69.5167C72.3599 110.931 74.6904 108.647 74.6904 105.757Z" fill="url(#paint2_linear_2426_10476)"/>
<path id="XMLID_60_" d="M74.6904 105.198V56.6772H0.254883V105.198C0.254883 107.994 2.58536 110.278 5.47515 110.278H69.5167C72.3599 110.278 74.6904 107.994 74.6904 105.198Z" fill="url(#paint3_linear_2426_10476)"/>
</g>
<g id="XMLID_56_">
<path id="XMLID_58_" d="M74.6904 5.22027V54.8129H0.254883V5.22027C0.254883 2.33048 2.58536 0 5.47515 0H69.5167C72.3599 0 74.6904 2.33048 74.6904 5.22027Z" fill="url(#paint4_linear_2426_10476)"/>
<path id="XMLID_57_" d="M74.6904 5.6864V54.1603H0.254883V5.6864C0.254883 2.88983 2.58536 0.605957 5.47515 0.605957H69.5167C72.3599 0.605957 74.6904 2.88983 74.6904 5.6864Z" fill="url(#paint5_linear_2426_10476)"/>
</g>
<g id="XMLID_53_">
<path id="XMLID_55_" d="M74.6904 104.359V54.7663H0.254883V104.359C0.254883 107.249 2.58536 109.579 5.47515 109.579H69.5167C72.3599 109.579 74.6904 107.249 74.6904 104.359Z" fill="url(#paint6_linear_2426_10476)"/>
<path id="XMLID_54_" d="M74.6904 103.8V55.279H0.254883V103.8C0.254883 106.596 2.58536 108.88 5.47515 108.88H69.5167C72.3599 108.88 74.6904 106.596 74.6904 103.8Z" fill="url(#paint7_linear_2426_10476)"/>
</g>
</g>
<path id="XMLID_51_" d="M30.4578 32.2539C32.0425 30.6691 34.0467 29.8302 36.4238 29.8302C38.7543 29.8302 40.6187 30.5293 42.0169 31.9742C43.4152 33.3725 44.161 35.2835 44.161 37.614C44.161 40.4572 43.2288 42.6944 41.3178 44.3258C39.4534 45.9571 36.8899 46.7495 33.6738 46.7495H32.8815L31.9493 53.7875H52.9702C51.3389 52.8087 49.5211 52.1096 47.5169 51.6901C54.3685 47.9613 57.771 43.0207 57.771 36.8682C57.771 32.4869 56.1396 28.5251 52.8304 25.1226C48.8219 20.8345 43.5085 18.6905 36.7967 18.6905C32.8349 18.6905 29.2925 19.4362 26.1697 20.9278C23.0469 22.4193 20.5765 24.4235 18.852 26.987C17.1274 29.5039 15.8224 32.9064 14.9834 37.1479L27.4282 39.3385C27.8476 36.2157 28.8264 33.8386 30.4578 32.2539Z" fill="url(#paint8_linear_2426_10476)"/>
<path id="XMLID_50_" d="M55.5816 55.6985H31.6709L31.3912 57.7493C33.6285 57.0968 35.7259 56.7705 37.5903 56.7705C40.247 56.7705 42.4377 57.7493 44.3021 59.7069C46.0732 61.7577 46.9588 64.4611 46.9588 67.7704C46.9588 71.4059 46.0266 74.2491 44.2089 76.3465C42.2046 78.444 39.781 79.516 37.0776 79.516C34.4675 79.516 32.2768 78.6304 30.459 76.8592C28.6413 75.0881 27.476 72.5712 27.0099 69.2619L14.0059 70.8466C14.705 76.8126 17.1287 81.5668 21.3702 85.2956C25.6116 88.9777 30.8785 90.8421 37.1708 90.8421C43.8826 90.8421 49.5224 88.6514 54.0901 84.2235C58.6578 79.8422 60.8951 74.5288 60.8951 68.3763C60.8951 64.1814 59.6832 60.5459 57.2129 57.4697C56.7468 56.8637 56.1875 56.2578 55.5816 55.6985Z" fill="url(#paint9_linear_2426_10476)"/>
</g>
</g>
<defs>
<linearGradient id="paint0_linear_2426_10476" x1="37.4696" y1="57.3815" x2="37.4696" y2="112.164" gradientUnits="userSpaceOnUse">
<stop stop-color="#111111"/>
<stop offset="0.1189"/>
<stop offset="1" stop-color="#111111"/>
</linearGradient>
<linearGradient id="paint1_linear_2426_10476" x1="37.4696" y1="57.8814" x2="37.4696" y2="111.474" gradientUnits="userSpaceOnUse">
<stop/>
<stop offset="1" stop-color="#212121"/>
</linearGradient>
<linearGradient id="paint2_linear_2426_10476" x1="37.4696" y1="56.1687" x2="37.4696" y2="110.951" gradientUnits="userSpaceOnUse">
<stop stop-color="#1D1D1D"/>
<stop offset="0.1189"/>
<stop offset="1" stop-color="#1D1D1D"/>
</linearGradient>
<linearGradient id="paint3_linear_2426_10476" x1="37.4696" y1="56.6686" x2="37.4696" y2="110.258" gradientUnits="userSpaceOnUse">
<stop/>
<stop offset="1" stop-color="#373737"/>
</linearGradient>
<linearGradient id="paint4_linear_2426_10476" x1="37.4696" y1="54.7826" x2="37.4696" y2="0" gradientUnits="userSpaceOnUse">
<stop stop-color="#0C0C0C"/>
<stop offset="1" stop-color="#ADADAD"/>
</linearGradient>
<linearGradient id="paint5_linear_2426_10476" x1="37.4696" y1="54.1589" x2="37.4696" y2="0.616304" gradientUnits="userSpaceOnUse">
<stop stop-color="#1C1C1C"/>
<stop offset="0.3053" stop-color="#454545"/>
<stop offset="0.5867" stop-color="#626262"/>
<stop offset="0.8277" stop-color="#757575"/>
<stop offset="1" stop-color="#7B7B7B"/>
</linearGradient>
<linearGradient id="paint6_linear_2426_10476" x1="37.4696" y1="54.7827" x2="37.4696" y2="109.565" gradientUnits="userSpaceOnUse">
<stop stop-color="#262626"/>
<stop offset="0.1189"/>
<stop offset="1" stop-color="#262626"/>
</linearGradient>
<linearGradient id="paint7_linear_2426_10476" x1="37.4696" y1="55.2827" x2="37.4696" y2="108.872" gradientUnits="userSpaceOnUse">
<stop stop-color="#393939"/>
<stop offset="0.00877207" stop-color="#4A4A4A"/>
<stop offset="0.0223312" stop-color="#5D5D5D"/>
<stop offset="0.0360807" stop-color="#696969"/>
<stop offset="0.0501918" stop-color="#6D6D6D"/>
<stop offset="0.2309" stop-color="#5A5A5A"/>
<stop offset="0.5292" stop-color="#3F3F3F"/>
<stop offset="0.7054" stop-color="#353535"/>
</linearGradient>
<linearGradient id="paint8_linear_2426_10476" x1="36.3846" y1="53.7332" x2="36.3846" y2="18.6495" gradientUnits="userSpaceOnUse">
<stop stop-color="#8E8E8E"/>
<stop offset="0.0021689" stop-color="#8E8E8E"/>
<stop offset="0.0153453" stop-color="#8E8E8E"/>
<stop offset="0.0257878" stop-color="#A9A9A9"/>
<stop offset="0.0390477" stop-color="#C4C4C4"/>
<stop offset="0.0543051" stop-color="#DADADA"/>
<stop offset="0.0721129" stop-color="#EBEBEB"/>
<stop offset="0.0941362" stop-color="#F6F6F6"/>
<stop offset="0.125" stop-color="#FDFDFD"/>
<stop offset="0.2108" stop-color="white"/>
<stop offset="1" stop-color="white"/>
</linearGradient>
<linearGradient id="paint9_linear_2426_10476" x1="37.4708" y1="90.8416" x2="37.4708" y2="55.7084" gradientUnits="userSpaceOnUse">
<stop stop-color="white"/>
<stop offset="0.7892" stop-color="white"/>
<stop offset="0.9217" stop-color="#FDFDFD"/>
<stop offset="0.9694" stop-color="#F6F6F6"/>
<stop offset="0.9747" stop-color="#F5F5F5"/>
<stop offset="0.9787" stop-color="#EFEFEF"/>
<stop offset="0.9839" stop-color="#DEDEDE"/>
<stop offset="0.9899" stop-color="#C2C2C2"/>
<stop offset="0.9965" stop-color="#9B9B9B"/>
<stop offset="1" stop-color="#838383"/>
</linearGradient>
</defs>
</svg>
