<svg width="75" height="112" viewBox="0 0 75 112" fill="none" xmlns="http://www.w3.org/2000/svg">
<g id="Group">
<g id="XMLID_91_">
<g id="XMLID_107_">
<path id="XMLID_110_" d="M66.1869 111.892H7.43809C3.88082 111.892 1.07812 108.982 1.07812 105.424L2.80286 14.5525C2.80286 10.9952 5.49776 8.08472 8.83943 8.08472H64.6777C68.0194 8.08472 70.7143 10.9952 70.7143 14.5525L72.439 105.424C72.5468 108.982 69.7441 111.892 66.1869 111.892Z" fill="#242424"/>
</g>
<g id="XMLID_104_">
<path id="XMLID_106_" d="M74.3792 106.826V57.3474H0V106.826C0 109.736 2.37151 112 5.17421 112H69.0972C72.0077 112 74.3792 109.736 74.3792 106.826Z" fill="url(#paint0_linear_3139_94)"/>
<path id="XMLID_105_" d="M74.3792 106.287V57.7786H0V106.179C0 108.982 2.37151 111.245 5.17421 111.245H69.0972C72.0077 111.353 74.3792 109.089 74.3792 106.287Z" fill="url(#paint1_linear_3139_94)"/>
</g>
<g id="XMLID_101_">
<path id="XMLID_103_" d="M74.3792 105.64V56.054H0V105.64C0 108.551 2.37151 110.814 5.17421 110.814H69.0972C72.0077 110.814 74.3792 108.443 74.3792 105.64Z" fill="url(#paint2_linear_3139_94)"/>
<path id="XMLID_102_" d="M74.3792 105.101V56.5929H0V105.101C0 107.904 2.37151 110.167 5.17421 110.167H69.0972C72.0077 110.167 74.3792 107.904 74.3792 105.101Z" fill="url(#paint3_linear_3139_94)"/>
</g>
<g id="XMLID_98_">
<path id="XMLID_100_" d="M74.3792 5.17421V54.6525H0V5.17421C0 2.37151 2.37151 0 5.17421 0H69.0972C72.0077 0 74.3792 2.37151 74.3792 5.17421Z" fill="url(#paint4_linear_3139_94)"/>
<path id="XMLID_99_" d="M74.3792 5.71314V54.1135H0V5.71314C0 2.91044 2.37151 0.646729 5.17421 0.646729H69.0972C72.0077 0.646729 74.3792 2.91044 74.3792 5.71314Z" fill="url(#paint5_linear_3139_94)"/>
</g>
<g id="XMLID_95_">
<path id="XMLID_97_" d="M74.3792 104.239V54.7604H0V104.239C0 107.149 2.37151 109.413 5.17421 109.413H69.0972C72.0077 109.413 74.3792 107.149 74.3792 104.239Z" fill="url(#paint6_linear_3139_94)"/>
<path id="XMLID_96_" d="M74.3792 103.7V55.1915H0V103.7C0 106.502 2.37151 108.766 5.17421 108.766H69.0972C72.0077 108.766 74.3792 106.502 74.3792 103.7Z" fill="url(#paint7_linear_3139_94)"/>
</g>
</g>
<path id="XMLID_90_" d="M37.5133 53.6824C37.7289 53.6824 37.9445 53.6824 38.1601 53.6824C38.3757 53.6824 38.5913 53.6824 38.8069 53.6824H57.3478C56.5932 52.4966 55.7309 51.3109 54.6529 50.2329C50.5566 45.9211 45.8136 43.6573 40.2082 43.6573C35.2496 43.6573 31.0456 45.7055 27.5961 49.6939C27.5961 45.8133 28.0273 42.4716 28.7819 39.5611C29.4286 36.974 30.3988 35.0337 31.4768 33.6323C33.4171 31.0452 35.7886 29.7517 38.6991 29.7517C40.855 29.7517 42.6875 30.3984 43.9811 31.692C45.3824 32.9856 46.2448 34.9259 46.5682 37.6208L59.6115 36.1116C58.6413 30.5062 56.3776 26.0866 52.8204 23.0683C49.3709 20.05 44.8435 18.5409 39.5615 18.5409C31.9079 18.5409 25.6558 21.4514 20.9128 27.1646C16.2775 32.6622 13.906 41.5014 13.6904 53.5746H37.5133V53.6824Z" fill="url(#paint8_linear_3139_94)"/>
<path id="XMLID_89_" d="M58.4252 55.6227H43.6571C44.0883 55.9461 44.5195 56.3773 44.8429 56.8084C46.5676 58.9644 47.5378 62.306 47.5378 66.9413C47.5378 71.4687 46.6754 74.5948 45.0585 76.5351C43.3337 78.4754 41.2856 79.4456 38.8063 79.4456C36.2192 79.4456 33.8477 78.2598 31.9073 75.8883C29.8592 73.5168 28.8891 70.1751 28.8891 65.7555C28.8891 61.7671 29.7514 58.7488 31.584 56.7006C31.9073 56.2695 32.2307 55.9461 32.6619 55.6227H13.582C13.6898 68.0192 15.9535 76.9663 20.481 82.3561C25.1162 87.8537 30.9372 90.6564 38.1595 90.6564C44.8429 90.6564 50.2327 88.5005 54.4367 84.0808C58.6407 79.6612 60.7967 73.948 60.7967 66.8335C60.7967 63.384 60.2577 60.2579 59.2875 57.4552C59.0719 56.9162 58.7485 56.2695 58.4252 55.6227Z" fill="url(#paint9_linear_3139_94)"/>
</g>
<defs>
<linearGradient id="paint0_linear_3139_94" x1="37.1704" y1="57.3136" x2="37.1704" y2="112.033" gradientUnits="userSpaceOnUse">
<stop stop-color="#111111"/>
<stop offset="0.1189"/>
<stop offset="1" stop-color="#111111"/>
</linearGradient>
<linearGradient id="paint1_linear_3139_94" x1="37.1704" y1="57.8138" x2="37.1704" y2="111.339" gradientUnits="userSpaceOnUse">
<stop/>
<stop offset="1" stop-color="#212121"/>
</linearGradient>
<linearGradient id="paint2_linear_3139_94" x1="37.1704" y1="56.1011" x2="37.1704" y2="110.821" gradientUnits="userSpaceOnUse">
<stop stop-color="#1D1D1D"/>
<stop offset="0.1189"/>
<stop offset="1" stop-color="#1D1D1D"/>
</linearGradient>
<linearGradient id="paint3_linear_3139_94" x1="37.1704" y1="56.6009" x2="37.1704" y2="110.127" gradientUnits="userSpaceOnUse">
<stop/>
<stop offset="1" stop-color="#373737"/>
</linearGradient>
<linearGradient id="paint4_linear_3139_94" x1="37.1704" y1="54.7197" x2="37.1704" y2="0" gradientUnits="userSpaceOnUse">
<stop stop-color="#0C0C0C"/>
<stop offset="1" stop-color="#ADADAD"/>
</linearGradient>
<linearGradient id="paint5_linear_3139_94" x1="37.1704" y1="54.0942" x2="37.1704" y2="0.618919" gradientUnits="userSpaceOnUse">
<stop stop-color="#1C1C1C"/>
<stop offset="0.3053" stop-color="#454545"/>
<stop offset="0.5867" stop-color="#626262"/>
<stop offset="0.8277" stop-color="#757575"/>
<stop offset="1" stop-color="#7B7B7B"/>
</linearGradient>
<linearGradient id="paint6_linear_3139_94" x1="37.1704" y1="54.7197" x2="37.1704" y2="109.433" gradientUnits="userSpaceOnUse">
<stop stop-color="#262626"/>
<stop offset="0.1189"/>
<stop offset="1" stop-color="#262626"/>
</linearGradient>
<linearGradient id="paint7_linear_3139_94" x1="37.1704" y1="55.2135" x2="37.1704" y2="108.745" gradientUnits="userSpaceOnUse">
<stop stop-color="#393939"/>
<stop offset="0.00877207" stop-color="#4A4A4A"/>
<stop offset="0.0223312" stop-color="#5D5D5D"/>
<stop offset="0.0360807" stop-color="#696969"/>
<stop offset="0.0501918" stop-color="#6D6D6D"/>
<stop offset="0.2309" stop-color="#5A5A5A"/>
<stop offset="0.5292" stop-color="#3F3F3F"/>
<stop offset="0.7054" stop-color="#353535"/>
</linearGradient>
<linearGradient id="paint8_linear_3139_94" x1="36.5519" y1="53.6692" x2="36.5519" y2="18.6273" gradientUnits="userSpaceOnUse">
<stop stop-color="#8E8E8E"/>
<stop offset="0.0021689" stop-color="#8E8E8E"/>
<stop offset="0.0153453" stop-color="#8E8E8E"/>
<stop offset="0.0257878" stop-color="#A9A9A9"/>
<stop offset="0.0390477" stop-color="#C4C4C4"/>
<stop offset="0.0543051" stop-color="#DADADA"/>
<stop offset="0.0721129" stop-color="#EBEBEB"/>
<stop offset="0.0941362" stop-color="#F6F6F6"/>
<stop offset="0.125" stop-color="#FDFDFD"/>
<stop offset="0.2108" stop-color="white"/>
<stop offset="1" stop-color="white"/>
</linearGradient>
<linearGradient id="paint9_linear_3139_94" x1="37.1702" y1="90.7303" x2="37.1702" y2="55.6446" gradientUnits="userSpaceOnUse">
<stop stop-color="white"/>
<stop offset="0.7892" stop-color="white"/>
<stop offset="0.9217" stop-color="#FDFDFD"/>
<stop offset="0.9694" stop-color="#F6F6F6"/>
<stop offset="0.9747" stop-color="#F5F5F5"/>
<stop offset="0.9787" stop-color="#EFEFEF"/>
<stop offset="0.9839" stop-color="#DEDEDE"/>
<stop offset="0.9899" stop-color="#C2C2C2"/>
<stop offset="0.9965" stop-color="#9B9B9B"/>
<stop offset="1" stop-color="#838383"/>
</linearGradient>
</defs>
</svg>
