<svg width="75" height="112" viewBox="0 0 75 112" fill="none" xmlns="http://www.w3.org/2000/svg">
<g id="Group">
<g id="XMLID_30_">
<g id="XMLID_43_">
<path id="XMLID_46_" d="M66.807 111.892H8.05821C4.50095 111.892 1.69824 108.982 1.69824 105.424L3.42298 14.5525C3.42298 10.9952 6.11787 8.08472 9.45955 8.08472H65.2979C68.6395 8.08472 71.3344 10.9952 71.3344 14.5525L73.0592 105.424C73.167 108.982 70.3643 111.892 66.807 111.892Z" fill="#242424"/>
</g>
<g id="XMLID_40_">
<path id="XMLID_42_" d="M75.0003 106.826V57.3474H0.621094V106.826C0.621094 109.736 2.99261 112 5.7953 112H69.7183C72.6288 112 75.0003 109.736 75.0003 106.826Z" fill="url(#paint0_linear_3139_148)"/>
<path id="XMLID_41_" d="M75.0003 106.287V57.7786H0.621094V106.179C0.621094 108.982 2.99261 111.245 5.7953 111.245H69.7183C72.6288 111.353 75.0003 109.089 75.0003 106.287Z" fill="url(#paint1_linear_3139_148)"/>
</g>
<g id="XMLID_37_">
<path id="XMLID_39_" d="M75.0003 105.64V56.054H0.621094V105.64C0.621094 108.551 2.99261 110.814 5.7953 110.814H69.7183C72.6288 110.814 75.0003 108.443 75.0003 105.64Z" fill="url(#paint2_linear_3139_148)"/>
<path id="XMLID_38_" d="M75.0003 105.101V56.5929H0.621094V105.101C0.621094 107.904 2.99261 110.167 5.7953 110.167H69.7183C72.6288 110.167 75.0003 107.904 75.0003 105.101Z" fill="url(#paint3_linear_3139_148)"/>
</g>
<g id="XMLID_34_">
<path id="XMLID_36_" d="M75.0003 5.17421V54.6525H0.621094V5.17421C0.621094 2.26372 2.99261 0 5.7953 0H69.7183C72.6288 0 75.0003 2.37151 75.0003 5.17421Z" fill="url(#paint4_linear_3139_148)"/>
<path id="XMLID_35_" d="M75.0003 5.71314V54.1135H0.621094V5.71314C0.621094 2.91044 2.99261 0.646729 5.7953 0.646729H69.7183C72.6288 0.646729 75.0003 2.91044 75.0003 5.71314Z" fill="url(#paint5_linear_3139_148)"/>
</g>
<g id="XMLID_31_">
<path id="XMLID_33_" d="M75.0003 104.239V54.7604H0.621094V104.239C0.621094 107.149 2.99261 109.413 5.7953 109.413H69.7183C72.6288 109.413 75.0003 107.149 75.0003 104.239Z" fill="url(#paint6_linear_3139_148)"/>
<path id="XMLID_32_" d="M75.0003 103.7V55.1915H0.621094V103.7C0.621094 106.502 2.99261 108.766 5.7953 108.766H69.7183C72.6288 108.766 75.0003 106.502 75.0003 103.7Z" fill="url(#paint7_linear_3139_148)"/>
</g>
</g>
<path id="XMLID_29_" d="M31.3427 53.6824C30.9115 53.359 30.5881 52.9278 30.2647 52.4966C28.54 50.3407 27.5698 46.999 27.5698 42.4716C27.5698 38.052 28.4322 34.8181 30.0491 32.77C31.6661 30.8296 33.822 29.8595 36.1935 29.8595C38.8884 29.8595 41.1521 31.0452 43.2002 33.4167C45.1406 35.7882 46.2185 39.2377 46.2185 43.5496C46.2185 47.538 45.3562 50.5563 43.5236 52.6044C43.2002 52.9278 42.8769 53.2512 42.5535 53.5746H61.4178C61.31 41.178 59.0463 32.231 54.5188 26.8412C49.8836 21.2358 44.0626 18.5409 36.8403 18.5409C30.2647 18.5409 24.8749 20.6968 20.5631 25.1164C16.3591 29.5361 14.2031 35.2493 14.2031 42.3638C14.2031 46.5678 14.9577 50.3407 16.4668 53.5746H31.3427V53.6824Z" fill="url(#paint8_linear_3139_148)"/>
<path id="XMLID_28_" d="M38.242 55.6227C37.8108 55.7305 37.3796 55.7305 36.8407 55.7305C36.4095 55.7305 35.8705 55.7305 35.4393 55.6227H17.4374C18.192 56.9162 19.0543 58.102 20.1323 59.18C24.1207 63.4918 28.9716 65.6477 34.577 65.6477C39.6434 65.6477 43.8474 63.7074 47.2969 59.7189C47.2969 63.4918 46.9735 66.8335 46.2189 69.5284C45.4643 72.2233 44.602 74.2714 43.524 75.6727C41.5837 78.2598 39.2122 79.5534 36.4095 79.5534C34.1458 79.5534 32.3132 78.9066 31.0197 77.6131C29.6183 76.3195 28.8638 74.2714 28.5404 71.6843L15.4971 73.0856C16.4672 79.0144 18.731 83.3262 22.0726 86.3445C25.5221 89.255 29.9417 90.7642 35.4393 90.7642C43.0928 90.7642 49.345 87.8537 54.088 82.1405C58.7232 76.6429 61.0948 67.6958 61.3104 55.6227H38.242Z" fill="url(#paint9_linear_3139_148)"/>
</g>
<defs>
<linearGradient id="paint0_linear_3139_148" x1="37.8107" y1="57.3136" x2="37.8107" y2="112.033" gradientUnits="userSpaceOnUse">
<stop stop-color="#111111"/>
<stop offset="0.1189"/>
<stop offset="1" stop-color="#111111"/>
</linearGradient>
<linearGradient id="paint1_linear_3139_148" x1="37.8107" y1="57.8138" x2="37.8107" y2="111.339" gradientUnits="userSpaceOnUse">
<stop/>
<stop offset="1" stop-color="#212121"/>
</linearGradient>
<linearGradient id="paint2_linear_3139_148" x1="37.8107" y1="56.1011" x2="37.8107" y2="110.821" gradientUnits="userSpaceOnUse">
<stop stop-color="#1D1D1D"/>
<stop offset="0.1189"/>
<stop offset="1" stop-color="#1D1D1D"/>
</linearGradient>
<linearGradient id="paint3_linear_3139_148" x1="37.8107" y1="56.6009" x2="37.8107" y2="110.127" gradientUnits="userSpaceOnUse">
<stop/>
<stop offset="1" stop-color="#373737"/>
</linearGradient>
<linearGradient id="paint4_linear_3139_148" x1="37.8107" y1="54.7197" x2="37.8107" y2="0" gradientUnits="userSpaceOnUse">
<stop stop-color="#0C0C0C"/>
<stop offset="1" stop-color="#ADADAD"/>
</linearGradient>
<linearGradient id="paint5_linear_3139_148" x1="37.8107" y1="54.0942" x2="37.8107" y2="0.618919" gradientUnits="userSpaceOnUse">
<stop stop-color="#1C1C1C"/>
<stop offset="0.3053" stop-color="#454545"/>
<stop offset="0.5867" stop-color="#626262"/>
<stop offset="0.8277" stop-color="#757575"/>
<stop offset="1" stop-color="#7B7B7B"/>
</linearGradient>
<linearGradient id="paint6_linear_3139_148" x1="37.8107" y1="54.7197" x2="37.8107" y2="109.433" gradientUnits="userSpaceOnUse">
<stop stop-color="#262626"/>
<stop offset="0.1189"/>
<stop offset="1" stop-color="#262626"/>
</linearGradient>
<linearGradient id="paint7_linear_3139_148" x1="37.8107" y1="55.2135" x2="37.8107" y2="108.745" gradientUnits="userSpaceOnUse">
<stop stop-color="#393939"/>
<stop offset="0.00877207" stop-color="#4A4A4A"/>
<stop offset="0.0223312" stop-color="#5D5D5D"/>
<stop offset="0.0360807" stop-color="#696969"/>
<stop offset="0.0501918" stop-color="#6D6D6D"/>
<stop offset="0.2309" stop-color="#5A5A5A"/>
<stop offset="0.5292" stop-color="#3F3F3F"/>
<stop offset="0.7054" stop-color="#353535"/>
</linearGradient>
<linearGradient id="paint8_linear_3139_148" x1="37.8072" y1="53.6692" x2="37.8072" y2="18.5524" gradientUnits="userSpaceOnUse">
<stop stop-color="#8E8E8E"/>
<stop offset="0.0021689" stop-color="#8E8E8E"/>
<stop offset="0.0153453" stop-color="#8E8E8E"/>
<stop offset="0.0257878" stop-color="#A9A9A9"/>
<stop offset="0.0390477" stop-color="#C4C4C4"/>
<stop offset="0.0543051" stop-color="#DADADA"/>
<stop offset="0.0721129" stop-color="#EBEBEB"/>
<stop offset="0.0941362" stop-color="#F6F6F6"/>
<stop offset="0.125" stop-color="#FDFDFD"/>
<stop offset="0.2108" stop-color="white"/>
<stop offset="1" stop-color="white"/>
</linearGradient>
<linearGradient id="paint9_linear_3139_148" x1="38.4795" y1="90.8052" x2="38.4795" y2="55.6446" gradientUnits="userSpaceOnUse">
<stop stop-color="white"/>
<stop offset="0.7892" stop-color="white"/>
<stop offset="0.9217" stop-color="#FDFDFD"/>
<stop offset="0.9694" stop-color="#F6F6F6"/>
<stop offset="0.9747" stop-color="#F5F5F5"/>
<stop offset="0.9787" stop-color="#EFEFEF"/>
<stop offset="0.9839" stop-color="#DEDEDE"/>
<stop offset="0.9899" stop-color="#C2C2C2"/>
<stop offset="0.9965" stop-color="#9B9B9B"/>
<stop offset="1" stop-color="#838383"/>
</linearGradient>
</defs>
</svg>
