<svg width="11" height="28" viewBox="0 0 11 28" fill="none" xmlns="http://www.w3.org/2000/svg">
<path d="M5.85118 10.4794C4.30752 10.4794 3.10153 10.0693 2.23323 9.24925C1.36492 8.38094 0.930764 7.1026 0.930764 5.41423C0.930764 3.67761 1.36492 2.39927 2.23323 1.5792C3.10153 0.71089 4.30752 0.276736 5.85118 0.276736C7.39484 0.276736 8.60082 0.71089 9.46913 1.5792C10.3857 2.39927 10.8439 3.67761 10.8439 5.41423C10.8439 7.1026 10.3857 8.38094 9.46913 9.24925C8.60082 10.0693 7.39484 10.4794 5.85118 10.4794ZM5.85118 27.9902C4.30752 27.9902 3.10153 27.5802 2.23323 26.7601C1.36492 25.8918 0.930764 24.6135 0.930764 22.9251C0.930764 21.1885 1.36492 19.9101 2.23323 19.0901C3.10153 18.2218 4.30752 17.7876 5.85118 17.7876C7.39484 17.7876 8.60082 18.2218 9.46913 19.0901C10.3857 19.9101 10.8439 21.1885 10.8439 22.9251C10.8439 24.6135 10.3857 25.8918 9.46913 26.7601C8.60082 27.5802 7.39484 27.9902 5.85118 27.9902Z" fill="white"/>
</svg>
