<svg width="31" height="31" viewBox="0 0 31 31" fill="none" xmlns="http://www.w3.org/2000/svg">
<g id="Group 102">
<path id="Vector" d="M15.343 2.72001C3.91734 2.71632 -1.80535 16.5282 6.2715 24.6075C8.06456 26.401 10.3492 27.6225 12.8366 28.1176C15.3239 28.6126 17.9022 28.3589 20.2453 27.3885C22.5884 26.4181 24.5912 24.7747 26.0003 22.6661C27.4093 20.5574 28.1614 18.0783 28.1614 15.5421C28.1614 8.46242 22.424 2.72248 15.343 2.72001ZM8.0821 9.11567C8.6996 5.91353 12.8804 5.05568 14.7082 7.75618C16.5361 10.4554 14.1881 14.02 10.986 13.4037C10.5137 13.313 10.0639 13.13 9.66228 12.8654C9.2607 12.6008 8.91519 12.2596 8.64552 11.8614C8.37584 11.4632 8.18728 11.0157 8.0906 10.5446C7.99393 10.0735 7.99104 9.58791 8.0821 9.11567ZM13.4091 20.1938C12.7879 23.3947 8.60593 24.2463 6.78177 21.5446C4.95761 18.8429 7.30806 15.2833 10.5102 15.9008C10.9826 15.9921 11.4323 16.1755 11.8337 16.4407C12.2351 16.706 12.5803 17.0477 12.8495 17.4464C13.1188 17.8451 13.3068 18.2929 13.4028 18.7644C13.4988 19.2358 13.501 19.7215 13.4091 20.1938ZM14.9621 17.2295C13.5423 16.9546 13.1602 15.1009 14.357 14.2874C15.5525 13.4739 17.1376 14.5093 16.8714 15.9316C16.8319 16.1424 16.7511 16.3433 16.6337 16.5228C16.5163 16.7022 16.3646 16.8567 16.1873 16.9773C16.01 17.098 15.8105 17.1823 15.6005 17.2256C15.3905 17.2689 15.1727 17.2702 14.9621 17.2295ZM22.6014 21.96C21.9839 25.1621 17.8032 26.0187 15.9753 23.3195C14.1462 20.619 16.4942 17.0557 19.6976 17.6707C20.17 17.7615 20.6199 17.9444 21.0216 18.2091C21.4233 18.4738 21.7688 18.8151 22.0385 19.2135C22.3082 19.6118 22.4967 20.0594 22.5933 20.5307C22.6899 21.002 22.6927 21.4877 22.6014 21.96ZM20.177 15.1785C16.9749 14.561 16.1183 10.3766 18.8188 8.54747C21.518 6.71961 25.0813 9.0676 24.4663 12.2697C24.3761 12.7426 24.1936 13.1931 23.9291 13.5953C23.6646 13.9975 23.3234 14.3436 22.925 14.6138C22.5266 14.884 22.0788 15.073 21.6073 15.1699C21.1357 15.2668 20.6497 15.2697 20.177 15.1785ZM17.3015 29.4292L20.092 30.181C21.2653 30.4924 22.5143 30.325 23.5643 29.7158C24.6143 29.1065 25.3794 28.1052 25.6914 26.9321L26.4802 23.9715C24.2594 26.9298 20.9601 28.8913 17.3003 29.4292H17.3015ZM26.7218 5.19126L23.8093 4.41599C25.2812 5.54814 26.5135 6.96136 27.4347 8.57363C28.356 10.1859 28.9478 11.9651 29.1758 13.808L29.977 10.7771C30.2836 9.60466 30.1128 8.35846 29.5022 7.31165C28.8916 6.26483 27.8909 5.50277 26.7194 5.19249L26.7218 5.19126ZM1.37954 17.7755L0.712734 20.2899C0.401391 21.4633 0.56874 22.7122 1.17799 23.7622C1.78724 24.8122 2.78852 25.5773 3.96171 25.8893L6.55868 26.582C3.78612 24.4022 1.93774 21.2579 1.37954 17.7755ZM13.3167 1.62059L10.5965 0.910642C10.0151 0.755766 9.40885 0.716995 8.81245 0.796545C8.21606 0.876095 7.64119 1.07241 7.1207 1.37426C6.60022 1.67611 6.14433 2.07758 5.77909 2.55572C5.41386 3.03386 5.14644 3.5793 4.99212 4.16085L4.31299 6.72701C6.5534 3.93855 9.77359 2.11179 13.3167 1.62059Z" fill="white"/>
</g>
</svg>
