<svg width="38" height="40" viewBox="0 0 38 40" fill="none" xmlns="http://www.w3.org/2000/svg">
<g id="Group 106">
<path id="Vector" d="M37.0354 18.3962C36.5035 17.8644 35.7821 17.5657 35.03 17.5657C34.2778 17.5657 33.5564 17.8644 33.0245 18.3962L18.9833 32.4374L4.9421 18.3962C4.40711 17.8795 3.69058 17.5936 2.94683 17.6C2.20308 17.6065 1.49162 17.9048 0.965692 18.4307C0.439762 18.9567 0.141443 19.6681 0.13498 20.4119C0.128517 21.1556 0.414431 21.8722 0.931142 22.4072L16.9778 38.4538C17.5098 38.9856 18.2311 39.2843 18.9833 39.2843C19.7355 39.2843 20.4568 38.9856 20.9888 38.4538L37.0354 22.4072C37.5672 21.8752 37.866 21.1538 37.866 20.4017C37.866 19.6495 37.5672 18.9281 37.0354 18.3962Z" fill="white"/>
<path id="Line 11 (Stroke)" fill-rule="evenodd" clip-rule="evenodd" d="M19.0017 0.279175C20.6084 0.279175 21.9109 1.58167 21.9109 3.18837L21.9109 16.4184C21.9109 18.0252 20.6084 19.3276 19.0017 19.3276C17.395 19.3276 16.0925 18.0252 16.0925 16.4184L16.0925 3.18837C16.0925 1.58167 17.395 0.279175 19.0017 0.279175Z" fill="white"/>
</g>
</svg>
