<svg width="19" height="32" viewBox="0 0 19 32" fill="none" xmlns="http://www.w3.org/2000/svg">
<path id="Vector" d="M17.3734 30.3394C17.7981 29.9146 18.0366 29.3385 18.0366 28.7378C18.0366 28.1371 17.7981 27.5611 17.3734 27.1362L6.16015 15.923L17.3734 4.70981C17.786 4.28257 18.0143 3.71035 18.0092 3.11639C18.004 2.52244 17.7658 1.95427 17.3458 1.53427C16.9258 1.11427 16.3576 0.876029 15.7637 0.870868C15.1697 0.865707 14.5975 1.09404 14.1702 1.50668L1.35546 14.3215C0.93078 14.7463 0.692209 15.3224 0.692209 15.923C0.692209 16.5237 0.93078 17.0998 1.35546 17.5246L14.1702 30.3394C14.595 30.7641 15.1711 31.0026 15.7718 31.0026C16.3725 31.0026 16.9486 30.7641 17.3734 30.3394Z" fill="white"/>
</svg>
