<svg width="22" height="37" viewBox="0 0 22 37" fill="none" xmlns="http://www.w3.org/2000/svg">
<path id="Vector" d="M20.4254 35.9872C20.9334 35.4791 21.2188 34.7901 21.2188 34.0716C21.2188 33.3531 20.9334 32.6641 20.4254 32.156L7.01343 18.744L20.4254 5.33195C20.919 4.82093 21.1921 4.13651 21.1859 3.42608C21.1798 2.71566 20.8948 2.03608 20.3924 1.53372C19.8901 1.03136 19.2105 0.746406 18.5001 0.740233C17.7897 0.73406 17.1052 1.00716 16.5942 1.50072L1.26658 16.8283C0.758629 17.3365 0.473277 18.0255 0.473277 18.744C0.473277 19.4624 0.758629 20.1515 1.26658 20.6596L16.5942 35.9872C17.1023 36.4952 17.7914 36.7805 18.5098 36.7805C19.2283 36.7805 19.9173 36.4952 20.4254 35.9872Z" fill="#C4C4C4"/>
</svg>
