<svg width="31" height="31" viewBox="0 0 31 31" fill="none" xmlns="http://www.w3.org/2000/svg">
<path id="Vector" d="M23.4648 2.76118C25.7272 4.06746 27.6093 5.94197 28.9246 8.19913C30.2399 10.4563 30.9429 13.0178 30.964 15.6302C30.9851 18.2425 30.3236 20.8151 29.0449 23.0932C27.7662 25.3713 25.9147 27.276 23.6737 28.6187C21.4327 29.9613 18.8799 30.6954 16.268 30.7483C13.6561 30.8011 11.0757 30.1709 8.78218 28.92C6.48868 27.6692 4.56165 25.841 3.19184 23.6165C1.82204 21.3919 1.05696 18.8482 0.972344 16.2372L0.964844 15.7512L0.972344 15.2652C1.05635 12.6747 1.81017 10.1501 3.1603 7.93767C4.51044 5.72522 6.41082 3.90036 8.67618 2.64101C10.9415 1.38165 13.4946 0.730777 16.0864 0.751838C18.6781 0.7729 21.2203 1.46518 23.4648 2.76118ZM21.5253 11.6907C21.2671 11.4324 20.9234 11.2773 20.5589 11.2543C20.1943 11.2314 19.8339 11.3423 19.5453 11.5662L19.4043 11.6907L14.4648 16.6287L12.5253 14.6907L12.3843 14.5662C12.0957 14.3425 11.7354 14.2317 11.371 14.2547C11.0065 14.2777 10.663 14.4329 10.4047 14.6911C10.1465 14.9493 9.99137 15.2928 9.96837 15.6573C9.94538 16.0217 10.0561 16.3821 10.2798 16.6707L10.4043 16.8117L13.4043 19.8117L13.5453 19.9362C13.8084 20.1403 14.1319 20.2511 14.4648 20.2511C14.7978 20.2511 15.1213 20.1403 15.3843 19.9362L15.5253 19.8117L21.5253 13.8117L21.6498 13.6707C21.8737 13.3821 21.9846 13.0217 21.9617 12.6572C21.9388 12.2926 21.7836 11.949 21.5253 11.6907Z" fill="#47DC83" fill-opacity="0.95"/>
</svg>
