<svg width="132" height="53" viewBox="0 0 132 53" fill="none" xmlns="http://www.w3.org/2000/svg">
<path id="Vector" d="M120.93 0.471835L126.311 2.20998C128.406 2.75761 129.906 2.94808 131.763 1.329C131.192 3.54334 130.597 5.71005 129.811 7.85296C120.358 33.9726 95.2862 52.7112 65.9998 52.7112C36.642 52.7112 11.5699 33.9012 2.14113 7.73391C1.37921 5.61481 0.80777 3.49572 0.236328 1.30519C2.09351 2.92427 3.59356 2.7338 5.68884 2.18616L11.0699 0.448023C14.7605 -0.742481 19.832 0.852801 21.4749 4.59098C29.0703 21.6628 46.1898 33.5917 66.0236 33.5917C85.7859 33.5917 102.858 21.7104 110.501 4.73384C112.168 0.971845 117.049 -0.766289 120.93 0.471835Z" fill="#E30613"/>
</svg>
