<svg width="15" height="11" viewBox="0 0 15 11" fill="none" xmlns="http://www.w3.org/2000/svg">
<path d="M13.8193 3.97266C13.9287 3.89062 14.0928 3.97266 14.0928 4.10938V9.6875C14.0928 10.4258 13.4912 11 12.7803 11H1.40527C0.666992 11 0.0927734 10.4258 0.0927734 9.6875V4.10938C0.0927734 3.97266 0.229492 3.89062 0.338867 3.97266C0.967773 4.46484 1.76074 5.06641 4.5498 7.08984C5.12402 7.5 6.1084 8.40234 7.09277 8.40234C8.0498 8.40234 9.06152 7.5 9.6084 7.08984C12.3975 5.06641 13.1904 4.46484 13.8193 3.97266ZM7.09277 7.5C6.43652 7.52734 5.53418 6.70703 5.06934 6.37891C1.43262 3.75391 1.15918 3.50781 0.338867 2.85156C0.174805 2.74219 0.0927734 2.55078 0.0927734 2.33203V1.8125C0.0927734 1.10156 0.666992 0.5 1.40527 0.5H12.7803C13.4912 0.5 14.0928 1.10156 14.0928 1.8125V2.33203C14.0928 2.55078 13.9834 2.74219 13.8193 2.85156C12.999 3.50781 12.7256 3.75391 9.08887 6.37891C8.62402 6.70703 7.72168 7.52734 7.09277 7.5Z" fill="white"/>
</svg>
