<svg width="31" height="31" viewBox="0 0 31 31" fill="none" xmlns="http://www.w3.org/2000/svg">
<path d="M15.5086 8.13255C19.6369 8.13255 23.0445 11.5401 23.0445 15.6684C23.0445 19.8623 19.6369 23.2043 15.5086 23.2043C11.3147 23.2043 7.97276 19.8623 7.97276 15.6684C7.97276 11.5401 11.3147 8.13255 15.5086 8.13255ZM15.5086 20.5831C18.1953 20.5831 20.3578 18.4206 20.3578 15.6684C20.3578 12.9817 18.1953 10.8192 15.5086 10.8192C12.7564 10.8192 10.5939 12.9817 10.5939 15.6684C10.5939 18.4206 12.8219 20.5831 15.5086 20.5831ZM25.0759 7.87043C25.0759 8.85337 24.2895 9.63972 23.3066 9.63972C22.3236 9.63972 21.5373 8.85337 21.5373 7.87043C21.5373 6.8875 22.3236 6.10115 23.3066 6.10115C24.2895 6.10115 25.0759 6.8875 25.0759 7.87043ZM30.0561 9.63972C30.1871 12.0643 30.1871 19.338 30.0561 21.7626C29.925 24.1217 29.4008 26.1531 27.697 27.9224C25.9933 29.6261 23.8963 30.1503 21.5373 30.2814C19.1127 30.4125 11.839 30.4125 9.4144 30.2814C7.05535 30.1503 5.02394 29.6261 3.25466 27.9224C1.5509 26.1531 1.02667 24.1217 0.895607 21.7626C0.764549 19.338 0.764549 12.0643 0.895607 9.63972C1.02667 7.28067 1.5509 5.18374 3.25466 3.47998C5.02394 1.77622 7.05535 1.25199 9.4144 1.12093C11.839 0.989872 19.1127 0.989872 21.5373 1.12093C23.8963 1.25199 25.9933 1.77622 27.697 3.47998C29.4008 5.18374 29.925 7.28067 30.0561 9.63972ZM26.9107 24.3183C27.697 22.4179 27.5004 17.8309 27.5004 15.6684C27.5004 13.5715 27.697 8.98443 26.9107 7.01855C26.3864 5.7735 25.4035 4.72503 24.1585 4.26633C22.1926 3.47998 17.6055 3.67657 15.5086 3.67657C13.3461 3.67657 8.75911 3.47998 6.85876 4.26633C5.54818 4.79056 4.56524 5.7735 4.04101 7.01855C3.25466 8.98443 3.45124 13.5715 3.45124 15.6684C3.45124 17.8309 3.25466 22.4179 4.04101 24.3183C4.56524 25.6288 5.54818 26.6118 6.85876 27.136C8.75911 27.9224 13.3461 27.7258 15.5086 27.7258C17.6055 27.7258 22.1926 27.9224 24.1585 27.136C25.4035 26.6118 26.452 25.6288 26.9107 24.3183Z" fill="white"/>
</svg>
