<svg width="13" height="13" viewBox="0 0 13 13" fill="none" xmlns="http://www.w3.org/2000/svg">
<path d="M6.21777 3.60547C7.94043 3.60547 9.3623 5.02734 9.3623 6.75C9.3623 8.5 7.94043 9.89453 6.21777 9.89453C4.46777 9.89453 3.07324 8.5 3.07324 6.75C3.07324 5.02734 4.46777 3.60547 6.21777 3.60547ZM6.21777 8.80078C7.33887 8.80078 8.24121 7.89844 8.24121 6.75C8.24121 5.62891 7.33887 4.72656 6.21777 4.72656C5.06934 4.72656 4.16699 5.62891 4.16699 6.75C4.16699 7.89844 5.09668 8.80078 6.21777 8.80078ZM10.21 3.49609C10.21 3.90625 9.88184 4.23438 9.47168 4.23438C9.06152 4.23438 8.7334 3.90625 8.7334 3.49609C8.7334 3.08594 9.06152 2.75781 9.47168 2.75781C9.88184 2.75781 10.21 3.08594 10.21 3.49609ZM12.2881 4.23438C12.3428 5.24609 12.3428 8.28125 12.2881 9.29297C12.2334 10.2773 12.0146 11.125 11.3037 11.8633C10.5928 12.5742 9.71777 12.793 8.7334 12.8477C7.72168 12.9023 4.68652 12.9023 3.6748 12.8477C2.69043 12.793 1.84277 12.5742 1.10449 11.8633C0.393555 11.125 0.174805 10.2773 0.120117 9.29297C0.0654297 8.28125 0.0654297 5.24609 0.120117 4.23438C0.174805 3.25 0.393555 2.375 1.10449 1.66406C1.84277 0.953125 2.69043 0.734375 3.6748 0.679688C4.68652 0.625 7.72168 0.625 8.7334 0.679688C9.71777 0.734375 10.5928 0.953125 11.3037 1.66406C12.0146 2.375 12.2334 3.25 12.2881 4.23438ZM10.9756 10.3594C11.3037 9.56641 11.2217 7.65234 11.2217 6.75C11.2217 5.875 11.3037 3.96094 10.9756 3.14062C10.7568 2.62109 10.3467 2.18359 9.82715 1.99219C9.00684 1.66406 7.09277 1.74609 6.21777 1.74609C5.31543 1.74609 3.40137 1.66406 2.6084 1.99219C2.06152 2.21094 1.65137 2.62109 1.43262 3.14062C1.10449 3.96094 1.18652 5.875 1.18652 6.75C1.18652 7.65234 1.10449 9.56641 1.43262 10.3594C1.65137 10.9062 2.06152 11.3164 2.6084 11.5352C3.40137 11.8633 5.31543 11.7812 6.21777 11.7812C7.09277 11.7812 9.00684 11.8633 9.82715 11.5352C10.3467 11.3164 10.7842 10.9062 10.9756 10.3594Z" fill="white"/>
</svg>
