<svg width="28" height="29" viewBox="0 0 28 29" fill="none" xmlns="http://www.w3.org/2000/svg">
<g id="Group 103">
<path id="Vector" d="M24.7344 0.785645C25.5453 0.785645 26.3231 1.1078 26.8965 1.68124C27.47 2.25467 27.7921 3.03242 27.7921 3.84338V25.2476C27.7921 26.0585 27.47 26.8363 26.8965 27.4097C26.3231 27.9831 25.5453 28.3053 24.7344 28.3053H3.3302C2.51924 28.3053 1.74149 27.9831 1.16805 27.4097C0.594615 26.8363 0.272461 26.0585 0.272461 25.2476V3.84338C0.272461 3.03242 0.594615 2.25467 1.16805 1.68124C1.74149 1.1078 2.51924 0.785645 3.3302 0.785645H24.7344ZM23.9699 24.4831V16.3801C23.9699 15.0582 23.4448 13.7905 22.5101 12.8558C21.5754 11.9211 20.3077 11.396 18.9858 11.396C17.6863 11.396 16.1727 12.191 15.4388 13.3835V11.6865H11.1733V24.4831H15.4388V16.9458C15.4388 15.7686 16.3867 14.8054 17.564 14.8054C18.1316 14.8054 18.6761 15.0309 19.0775 15.4323C19.4789 15.8337 19.7044 16.3781 19.7044 16.9458V24.4831H23.9699ZM6.20447 9.28616C6.88568 9.28616 7.53899 9.01555 8.02068 8.53386C8.50237 8.05218 8.77298 7.39887 8.77298 6.71766C8.77298 5.29581 7.62632 4.13387 6.20447 4.13387C5.51921 4.13387 4.86201 4.40609 4.37746 4.89064C3.8929 5.3752 3.62069 6.03239 3.62069 6.71766C3.62069 8.13951 4.78263 9.28616 6.20447 9.28616ZM8.3296 24.4831V11.6865H4.09463V24.4831H8.3296Z" fill="white"/>
</g>
</svg>
