<svg width="21" height="26" viewBox="0 0 21 26" fill="none" xmlns="http://www.w3.org/2000/svg">
<g id="Group">
<path id="Exclude" fill-rule="evenodd" clip-rule="evenodd" d="M10.8993 25.3128C10.8993 25.3128 20.8612 19.8564 20.8612 10.37C20.8612 7.728 19.8116 5.19417 17.9434 3.32596C16.0752 1.45775 13.5414 0.408203 10.8993 0.408203C8.2573 0.408203 5.72346 1.45775 3.85526 3.32596C1.98705 5.19417 0.9375 7.728 0.9375 10.37C0.9375 19.8564 10.8993 25.3128 10.8993 25.3128ZM13.7168 13.1876C14.4641 12.4404 14.8839 11.4268 14.8839 10.37C14.8839 9.31318 14.4641 8.29965 13.7168 7.55237C12.9695 6.80508 11.956 6.38526 10.8992 6.38526C9.84238 6.38526 8.82885 6.80508 8.08156 7.55237C7.33428 8.29965 6.91446 9.31318 6.91446 10.37C6.91446 11.4268 7.33428 12.4404 8.08156 13.1876C8.82885 13.9349 9.84238 14.3547 10.8992 14.3547C11.956 14.3547 12.9695 13.9349 13.7168 13.1876Z" fill="white"/>
</g>
</svg>
