<svg width="189" height="52" viewBox="0 0 189 52" fill="none" xmlns="http://www.w3.org/2000/svg">
<g id="Group">
<path id="Vector" d="M135.543 33.8247H0.984375V35.8462H135.543V33.8247ZM14.0812 43.5186C14.0812 43.8698 14.0578 44.2054 14.0032 44.5176C13.9486 44.8298 13.8549 45.1108 13.7144 45.345C13.5739 45.5869 13.371 45.7743 13.1212 45.9147C12.8637 46.0552 12.5358 46.1255 12.13 46.1255C11.7163 46.1255 11.3807 46.0552 11.1309 45.9226C10.8734 45.7821 10.6704 45.5947 10.5221 45.3606C10.3738 45.1264 10.2724 44.8455 10.2177 44.5332C10.1631 44.221 10.1397 43.8854 10.1397 43.5264C10.1397 43.1752 10.1631 42.8396 10.2177 42.5274C10.2724 42.2152 10.3738 41.942 10.5143 41.7078C10.6626 41.4737 10.8656 41.2942 11.1231 41.1615C11.3807 41.0288 11.7163 40.9585 12.1222 40.9585C12.5202 40.9585 12.848 41.0288 13.1056 41.1615C13.3632 41.2942 13.5661 41.4815 13.7144 41.7078C13.8627 41.942 13.9642 42.2152 14.0188 42.5196C14.0578 42.8396 14.0812 43.1674 14.0812 43.5186ZM15.8764 43.6435C15.8764 42.3635 15.5798 41.38 14.9788 40.701C14.3856 40.0219 13.4256 39.6785 12.0988 39.6785C10.7953 39.6785 9.83529 40.0063 9.23431 40.6698C8.63332 41.3332 8.32892 42.301 8.32892 43.5888C8.32892 43.862 8.34453 44.143 8.38356 44.4396C8.42258 44.7284 8.48502 45.0094 8.58649 45.2825C8.68015 45.5557 8.80503 45.8133 8.96113 46.0474C9.11723 46.2894 9.31236 46.5001 9.55431 46.6718C9.73383 46.8123 9.92895 46.9216 10.1475 47.0153C10.366 47.1089 10.5924 47.187 10.8265 47.2416C11.0607 47.304 11.2948 47.3431 11.529 47.3743C11.7631 47.3977 11.9973 47.4133 12.2158 47.4133C13.4568 47.4133 14.37 47.0855 14.971 46.4377C15.572 45.7899 15.8764 44.8611 15.8764 43.6435ZM25.6717 47.3665V39.7253H23.2912L21.2931 45.6962L19.3887 39.7253H17.0081V47.3665H18.5535V41.622L20.4423 47.3665H22.1126L24.1107 41.622V47.3665H25.6717ZM32.9616 47.3665V46.0084H30.9089C30.5655 46.0084 30.2611 45.985 29.9957 45.9382C29.7304 45.8913 29.504 45.8055 29.3167 45.6728C29.1294 45.5401 28.9811 45.3606 28.8718 45.1342C28.7625 44.9079 28.6923 44.6035 28.6611 44.2367H32.9616V42.8864H28.6611C28.6845 42.6678 28.7157 42.4493 28.7469 42.2308C28.7781 42.02 28.864 41.8249 29.0045 41.6454C29.1606 41.4503 29.3401 41.302 29.5508 41.2239C29.7225 41.1615 29.9333 41.1225 30.183 41.1068C30.4406 41.0912 30.6513 41.0834 30.8309 41.0834H32.9538V39.7175H30.2065C29.9099 39.7175 29.6055 39.741 29.3011 39.78C28.9967 39.819 28.7157 39.9205 28.4503 40.0844C28.1615 40.2639 27.9118 40.4824 27.701 40.74C27.4903 40.9898 27.3186 41.2629 27.1937 41.5595C27.061 41.8561 26.9674 42.1683 26.9049 42.4961C26.8425 42.8239 26.8113 43.1518 26.8113 43.4796C26.8113 43.823 26.8425 44.182 26.9049 44.5489C26.9674 44.9157 27.0766 45.2747 27.2171 45.6103C27.3654 45.946 27.5527 46.2426 27.7947 46.5079C28.0367 46.7733 28.3332 46.9684 28.6923 47.1011C29.0123 47.2182 29.3635 47.2884 29.746 47.3197C30.1284 47.3509 30.4874 47.3665 30.8231 47.3665H32.9616ZM41.555 44.2367H39.3774L40.4623 41.5517L41.555 44.2367ZM44.5755 47.3665L41.4145 39.7253H39.5413L36.3802 47.3665H38.2847L39.0184 45.5869H41.9296L42.6633 47.3665H44.5755ZM50.4293 42.1527C50.4293 42.2698 50.4215 42.3869 50.3981 42.5039C50.3825 42.621 50.3435 42.7303 50.3044 42.8396C50.2576 42.941 50.1952 43.0347 50.1171 43.1127C50.0391 43.1908 49.9376 43.2454 49.8127 43.2766C49.7191 43.3001 49.6254 43.3157 49.5239 43.3235C49.4225 43.3313 49.3288 43.3313 49.2352 43.3313H47.0263V41.0912H49.2742C49.4069 41.0912 49.5474 41.099 49.6956 41.1146C49.8518 41.1303 49.9766 41.1849 50.0859 41.2786C50.2186 41.3878 50.3044 41.5205 50.3591 41.6766C50.4059 41.8249 50.4293 41.9888 50.4293 42.1527ZM52.2167 42.2073C52.2167 41.7859 52.123 41.38 51.9279 40.9742C51.7328 40.5761 51.4518 40.2639 51.085 40.0375C50.804 39.8658 50.4996 39.7722 50.1796 39.7488C49.8596 39.7253 49.5396 39.7175 49.2195 39.7175H45.3951V47.3587H47.0263V44.6894H49.641C49.9142 44.6894 50.1718 44.6737 50.4137 44.6425C50.6557 44.6113 50.8976 44.5176 51.1396 44.3693C51.5064 44.143 51.7796 43.823 51.9513 43.4327C52.1308 43.0425 52.2167 42.6288 52.2167 42.2073ZM58.289 42.1527C58.289 42.2698 58.2812 42.3869 58.2578 42.5039C58.2422 42.621 58.2031 42.7303 58.1641 42.8396C58.1173 42.941 58.0549 43.0347 57.9768 43.1127C57.8988 43.1908 57.7973 43.2454 57.6724 43.2766C57.5787 43.3001 57.4851 43.3157 57.3836 43.3235C57.2822 43.3313 57.1885 43.3313 57.0948 43.3313H54.886V41.0912H57.1339C57.2665 41.0912 57.407 41.099 57.5553 41.1146C57.7114 41.1303 57.8363 41.1849 57.9456 41.2786C58.0783 41.3878 58.1641 41.5205 58.2188 41.6766C58.2656 41.8249 58.289 41.9888 58.289 42.1527ZM60.0764 42.2073C60.0764 41.7859 59.9827 41.38 59.7876 40.9742C59.5924 40.5761 59.3115 40.2639 58.9446 40.0375C58.6636 39.8658 58.3592 39.7722 58.0392 39.7488C57.7192 39.7253 57.3992 39.7175 57.0792 39.7175H53.2626V47.3587H54.8938V44.6894H57.5085C57.7817 44.6894 58.0392 44.6737 58.2812 44.6425C58.5232 44.6113 58.7651 44.5176 59.0071 44.3693C59.3739 44.143 59.6471 43.823 59.8188 43.4327C59.9905 43.0425 60.0764 42.6288 60.0764 42.2073ZM66.2814 47.3665V46.0084H64.7204C64.5877 46.0084 64.4472 46.0084 64.2989 46.0084C64.1428 46.0084 63.9945 46.0006 63.8384 45.985C63.6823 45.9694 63.5418 45.9382 63.3935 45.8913C63.253 45.8445 63.1281 45.7743 63.0345 45.6884C62.855 45.5245 62.7613 45.345 62.7301 45.1342C62.7067 44.9235 62.6832 44.705 62.6754 44.4864C62.6676 44.4084 62.6598 44.3303 62.6598 44.2601C62.6598 44.182 62.652 44.104 62.652 44.0337V39.7332H61.0364V44.0337C61.0364 44.2367 61.0364 44.4552 61.0442 44.6737C61.052 44.8923 61.0754 45.1108 61.1066 45.3216C61.1378 45.5323 61.2003 45.7352 61.2705 45.9382C61.3486 46.1411 61.4579 46.3284 61.5905 46.4923C61.7388 46.6718 61.9027 46.8279 62.0823 46.9372C62.2618 47.0543 62.4569 47.1401 62.6676 47.2104C62.8706 47.2728 63.0891 47.3197 63.2998 47.3431C63.5184 47.3665 63.7447 47.3743 63.9711 47.3743H66.2814V47.3665ZM68.857 47.3665V39.7253H67.2258V47.3665H68.857ZM74.8669 44.2367H72.6893L73.782 41.5517L74.8669 44.2367ZM77.8797 47.3665L74.7186 39.7253H72.8532L69.6922 47.3665H71.5966L72.3303 45.5869H75.2416L75.9752 47.3665H77.8797ZM85.3725 47.3665V39.7253H83.8271V45.423L80.7909 39.7253H78.707V47.3665H80.268V41.7625L83.3744 47.3665H85.3725ZM92.7249 47.3665V46.0084H90.3755C90.2116 46.0084 90.0477 46.0006 89.8838 45.9772C89.7121 45.9616 89.556 45.9225 89.3999 45.8757C89.2438 45.8289 89.1033 45.7508 88.9784 45.6572C88.8458 45.5635 88.7443 45.4308 88.6584 45.2747C88.5882 45.1498 88.5335 45.0094 88.4867 44.8533C88.4399 44.6972 88.4009 44.5333 88.3774 44.3693C88.354 44.1976 88.3306 44.0337 88.3228 43.8698C88.315 43.7059 88.3072 43.5576 88.3072 43.4171C88.3072 43.0503 88.3384 42.7225 88.4009 42.4337C88.4633 42.1449 88.5648 41.903 88.7131 41.7C88.8614 41.4971 89.0643 41.341 89.3297 41.2395C89.5872 41.1381 89.9228 41.0834 90.3287 41.0834H92.7327V39.7175H90.1414C89.9228 39.7175 89.6887 39.7253 89.4545 39.7488C89.2204 39.7722 88.9862 39.8112 88.7521 39.8658C88.5257 39.9205 88.2994 40.0063 88.0965 40.1078C87.8857 40.2093 87.6984 40.3497 87.5423 40.5137C87.1442 40.9273 86.8711 41.4034 86.7306 41.9342C86.5823 42.4727 86.512 43.0113 86.512 43.5654C86.512 43.9245 86.5433 44.2913 86.5979 44.6581C86.6525 45.025 86.7618 45.3762 86.9101 45.704C87.0584 46.0318 87.2535 46.3206 87.5033 46.5782C87.7452 46.8279 88.0574 47.0231 88.4399 47.1479C88.5882 47.2026 88.7209 47.2416 88.8536 47.265C88.9862 47.2884 89.1111 47.3118 89.236 47.3197C89.3609 47.3275 89.4936 47.3353 89.6262 47.3431C89.7589 47.3431 89.9072 47.3509 90.0711 47.3509H92.7249V47.3665ZM99.6011 47.3665V46.0084H97.5484C97.2049 46.0084 96.9006 45.985 96.6352 45.9382C96.3698 45.8913 96.1435 45.8055 95.9561 45.6728C95.7688 45.5401 95.6205 45.3606 95.5113 45.1342C95.402 44.9079 95.3317 44.6035 95.3005 44.2367H99.6011V42.8864H95.3005C95.3239 42.6678 95.3552 42.4493 95.3864 42.2308C95.4176 42.02 95.5035 41.8249 95.6439 41.6454C95.8 41.4503 95.9796 41.302 96.1903 41.2239C96.362 41.1615 96.5727 41.1225 96.8225 41.1068C97.0801 41.0912 97.2908 41.0834 97.4703 41.0834H99.5933V39.7175H96.8459C96.5493 39.7175 96.2449 39.741 95.9405 39.78C95.6361 39.819 95.3552 39.9205 95.0898 40.0844C94.801 40.2639 94.5512 40.4824 94.3405 40.74C94.1298 40.9898 93.9581 41.2629 93.8332 41.5595C93.7005 41.8561 93.6068 42.1683 93.5444 42.4961C93.4819 42.8239 93.4507 43.1518 93.4507 43.4796C93.4507 43.823 93.4819 44.182 93.5444 44.5489C93.6068 44.9157 93.7161 45.2747 93.8566 45.6103C94.0049 45.946 94.1922 46.2426 94.4342 46.5079C94.6761 46.7733 94.9727 46.9684 95.3317 47.1011C95.6518 47.2182 96.003 47.2884 96.3854 47.3197C96.7679 47.3509 97.1269 47.3665 97.4625 47.3665H99.6011ZM107.679 45.1108C107.679 44.9157 107.664 44.7128 107.625 44.5176C107.586 44.3225 107.523 44.1274 107.445 43.9479C107.359 43.7684 107.258 43.6045 107.125 43.4562C106.992 43.3079 106.836 43.183 106.641 43.0971C106.368 42.9566 106.087 42.8786 105.798 42.8474C105.51 42.8239 105.221 42.8083 104.924 42.8083H103.699C103.543 42.8083 103.387 42.8005 103.223 42.7927C103.059 42.7849 102.91 42.7459 102.77 42.6913C102.629 42.6366 102.52 42.543 102.434 42.4259C102.348 42.3088 102.302 42.1449 102.302 41.942C102.302 41.7078 102.348 41.5283 102.442 41.4112C102.536 41.2942 102.661 41.2083 102.809 41.1615C102.957 41.1146 103.121 41.0912 103.293 41.0912C103.472 41.0912 103.66 41.0912 103.831 41.0912H107.25V39.7253H103.465C103.277 39.7253 103.082 39.7253 102.879 39.7332C102.684 39.7332 102.489 39.7566 102.294 39.7878C102.107 39.819 101.919 39.8658 101.74 39.9361C101.56 40.0063 101.396 40.1078 101.24 40.2327C101.006 40.4356 100.819 40.701 100.694 41.0288C100.561 41.3566 100.499 41.6688 100.499 41.9888C100.499 42.1839 100.522 42.3869 100.577 42.5898C100.631 42.7927 100.709 42.98 100.803 43.1596C100.905 43.3391 101.029 43.4952 101.178 43.6357C101.326 43.7762 101.498 43.8854 101.701 43.9635C101.911 44.0493 102.153 44.104 102.411 44.1274C102.668 44.1508 102.91 44.1664 103.137 44.1664H104.549C104.729 44.1664 104.916 44.182 105.111 44.2132C105.307 44.2445 105.478 44.3303 105.603 44.463C105.791 44.6425 105.876 44.8689 105.876 45.1264C105.876 45.345 105.83 45.5167 105.728 45.6338C105.627 45.7508 105.502 45.8367 105.353 45.8913C105.205 45.946 105.041 45.9772 104.862 45.985C104.682 45.9928 104.51 46.0006 104.354 46.0006H100.873V47.3665H104.713C104.94 47.3665 105.174 47.3665 105.4 47.3587C105.627 47.3587 105.853 47.3353 106.056 47.2884C106.267 47.2494 106.47 47.1792 106.657 47.0777C106.844 46.9762 107.024 46.8279 107.188 46.6328C107.367 46.4221 107.492 46.1801 107.57 45.9069C107.64 45.6494 107.679 45.3762 107.679 45.1108ZM117.521 47.3665V46.0084H115.172C115.008 46.0084 114.844 46.0006 114.68 45.9772C114.509 45.9616 114.353 45.9225 114.197 45.8757C114.04 45.8289 113.9 45.7508 113.775 45.6572C113.642 45.5635 113.541 45.4308 113.455 45.2747C113.385 45.1498 113.33 45.0094 113.283 44.8533C113.237 44.6972 113.197 44.5333 113.174 44.3693C113.151 44.1976 113.127 44.0337 113.119 43.8698C113.112 43.7059 113.104 43.5576 113.104 43.4171C113.104 43.0503 113.135 42.7225 113.197 42.4337C113.26 42.1449 113.361 41.903 113.51 41.7C113.658 41.4971 113.861 41.341 114.126 41.2395C114.384 41.1381 114.719 41.0834 115.125 41.0834H117.529V39.7175H114.938C114.719 39.7175 114.485 39.7253 114.251 39.7488C114.017 39.7722 113.783 39.8112 113.549 39.8658C113.322 39.9205 113.096 40.0063 112.893 40.1078C112.682 40.2093 112.495 40.3497 112.339 40.5137C111.941 40.9273 111.668 41.4034 111.527 41.9342C111.379 42.4727 111.309 43.0113 111.309 43.5654C111.309 43.9245 111.34 44.2913 111.395 44.6581C111.449 45.025 111.558 45.3762 111.707 45.704C111.855 46.0318 112.05 46.3206 112.3 46.5782C112.542 46.8279 112.854 47.0231 113.237 47.1479C113.385 47.2026 113.517 47.2416 113.65 47.265C113.783 47.2884 113.908 47.3118 114.033 47.3197C114.158 47.3275 114.29 47.3353 114.423 47.3431C114.556 47.3431 114.704 47.3509 114.868 47.3509H117.521V47.3665ZM120.3 47.3665V39.7253H118.669V47.3665H120.3ZM127.723 41.0912V39.7253H121.135V41.0912H123.578V47.3743H125.194V41.0912H127.723ZM135.543 39.7253H133.615L131.773 42.7147L130.017 39.7253H128.113L130.931 44.0259V47.3743H132.562V44.0884L135.543 39.7253ZM7.18158 47.3665V39.7253H5.56594V42.8552H2.61563V39.7253H0.984375V47.3665H2.61563V44.2054H5.57374V47.3665H7.18158ZM113.119 22.7494C114.314 22.9055 115.383 23.3191 115.984 24.1465C116.359 24.6616 116.437 25.3172 116.132 25.6919C115.937 25.9338 115.555 26.0197 115.071 26.0197C114.298 26.0275 113.798 25.645 113.525 24.9582C113.307 24.3884 113.073 23.4596 113.119 22.7494ZM107.117 22.2499C107.625 22.523 108.031 22.6869 108.749 22.7182C108.991 22.7182 109.435 22.7182 109.677 22.7182L109.896 24.8021C110.091 26.6987 111.184 28.97 115.258 28.97C118.731 28.97 119.465 27.1592 119.465 25.645C119.465 24.4899 119.153 23.5143 118.536 22.7182C123.469 22.7182 128.402 22.7182 133.334 22.7182C134.24 22.7182 135.091 22.1562 135.091 21.1571V20.1269C135.114 19.7288 135.161 19.4635 135.551 19.2293H119.988H118.364C118.95 18.441 119.246 17.52 119.246 16.4819C119.246 15.1395 118.786 14.0546 117.881 13.2584C117.022 12.5092 115.89 12.1345 114.509 12.1345C111.121 12.1345 109.334 13.8594 109.334 17.1297C109.334 17.1922 109.334 17.3483 109.482 19.2293H109.412H108.827C107.008 19.1903 107.172 18.6127 107.141 18.2693V13.6721C106.914 14.0546 106.641 14.1092 106.243 14.1326H105.213C104.37 14.1326 103.652 14.8585 103.652 15.7014V22.2811C103.652 23.1318 103.293 23.9435 102.629 24.5055C101.974 25.0597 101.123 25.2392 100.202 25.2392H97.8918C96.9864 25.2392 96.1357 25.8011 96.1357 26.8002V27.8305C96.1122 28.2285 96.0654 28.4939 95.6752 28.728H100.405C102.598 28.728 104.471 28.01 105.705 26.4177C106.626 25.2938 107.063 23.8343 107.117 22.2499ZM112.963 19.1434C112.963 18.8547 112.94 18.5581 112.94 18.2693C112.94 17.8244 112.987 17.0205 113.073 16.6536C113.377 15.4126 114.321 15.3424 114.961 15.4048C115.789 15.4829 115.999 16.3961 115.586 17.3405C115.133 18.3629 114.189 18.9561 112.963 19.1434ZM12.6841 12.314L16.6881 8.35687L17.0081 8.03687L17.0784 7.96662C17.3906 7.65442 17.4218 7.1549 17.172 6.81147C17.1486 6.77245 17.1174 6.74123 17.0862 6.71001L16.6725 6.29634C16.5242 6.13244 16.4306 5.99975 16.493 5.74999L11.4119 10.792L12.6841 12.314ZM61.5437 18.9717C61.5437 18.6829 61.5203 18.3864 61.5203 18.0976C61.5203 17.6527 61.5905 17.3795 61.9184 17.0595C62.5584 16.4585 64.1662 16.4585 64.4472 17.4341C64.5721 17.9102 64.6111 18.5268 64.3769 18.9795L61.5437 18.9717ZM29.8162 7.51393H27.904C27.4435 7.51393 27.0766 7.88857 27.0766 8.34126V11.1355H30.7684V8.90323V7.03002C30.5265 7.43588 30.2377 7.49051 29.8162 7.51393ZM30.7528 14.3433V17.8166H30.745L30.7528 17.9024C30.5733 18.8625 29.6991 19.6117 28.6923 19.5727C27.8025 19.5337 26.9439 18.9327 26.7644 17.9102C26.7332 17.7854 26.7332 17.6527 26.7332 17.52C26.663 14.6712 24.7039 12.275 21.738 12.2516H19.1389L22.6434 8.78615L23.2053 8.22419L23.3302 8.09931C23.8844 7.54515 23.9312 6.67879 23.4863 6.07C23.4395 6.00756 23.3927 5.94511 23.338 5.89048L22.6122 5.16461C22.3468 4.86802 22.1907 4.64167 22.2999 4.20459L13.371 13.0477L15.5876 15.7404H20.216H21.7536C22.6043 15.7795 23.3536 16.677 23.377 17.6137C23.4005 18.4956 22.7761 19.4088 21.7224 19.44H21.6834H21.6209V19.4244H15.1115C15.0178 19.4166 14.9242 19.4088 14.8305 19.401V19.3932H14.5495H12.5202H11.7319H11.5524C10.7719 19.3932 10.1241 19.9708 10.007 20.7201C9.9914 20.7981 9.98359 20.8762 9.98359 20.9542V21.9845C9.96018 22.3825 9.91334 22.6479 9.52309 22.8821H13.0354H14.573C15.3847 22.9211 16.0325 23.5923 16.0325 24.4118C16.0325 25.2392 15.3691 25.9182 14.5417 25.9416H14.5027H14.4403V25.926H6.17473C4.97275 25.926 4.47323 24.9894 4.47323 23.8031V22.484V21.6957V21.5162C4.47323 20.7357 3.89566 20.0879 3.14637 19.9708C3.06832 19.9552 2.99027 19.9474 2.91222 19.9474H1.88195C1.4839 19.9239 1.21853 19.8771 0.984375 19.4869V23.725C0.984375 26.8939 2.94344 29.4149 6.26058 29.4149H14.4403C14.4793 29.4149 14.5105 29.4149 14.5495 29.4149C17.3125 29.4149 19.5604 27.167 19.5604 24.404C19.5604 23.8811 19.4823 23.3816 19.334 22.9133H21.6287C21.6287 22.8743 21.699 22.9133 21.738 22.9133C23.1195 22.9133 24.3761 22.3357 25.2815 21.4147C26.2337 22.3123 27.5137 22.8586 28.9186 22.8586C31.7284 22.8586 34.0387 20.6654 34.2261 17.9024H34.2417V17.5512V12.3218C34.0153 12.7043 33.7421 12.7589 33.3441 12.7823H32.3138C32.2358 12.7823 32.1577 12.7901 32.0797 12.8057C31.3304 12.915 30.7528 13.5628 30.7528 14.3433ZM47.8849 7.51393H45.9726C45.5121 7.51393 45.1453 7.88857 45.1453 8.34126V11.1355H48.8371V8.90323V7.03002C48.5951 7.43588 48.3064 7.49051 47.8849 7.51393ZM39.4789 17.2546V10.1911V9.40275V9.22323C39.4789 8.44273 38.9013 7.79491 38.152 7.67783C38.0739 7.66222 37.9959 7.65442 37.9178 7.65442H36.8876C36.4895 7.631 36.2241 7.58417 35.99 7.19392V11.8223V17.1844C35.99 20.3532 37.9491 22.8743 41.2662 22.8743H47.7834C47.8224 22.8743 47.8537 22.8743 47.8927 22.8743C50.6557 22.8743 52.9035 20.6264 52.9035 17.8634C52.9035 15.2019 50.804 13.0087 48.1737 12.8604V12.8526H47.8927H44.7551H43.9668H43.7872C43.0067 12.8526 42.3589 13.4302 42.2418 14.1794C42.2262 14.2575 42.2184 14.3355 42.2184 14.4136V15.4439C42.195 15.8419 42.1482 16.1073 41.7579 16.3414H46.3863H47.9239C48.7356 16.3805 49.3834 17.0517 49.3834 17.8712C49.3834 18.6986 48.72 19.3776 47.8927 19.401H47.8537H47.7912V19.3854H41.1803C39.9784 19.3776 39.4789 18.4488 39.4789 17.2546ZM52.6069 25.6997V28.088V28.8373V29.4071V29.8676C52.8333 29.4851 53.1065 29.4305 53.5045 29.4071H54.5348C54.6128 29.4071 54.6909 29.3993 54.7689 29.3837C55.5182 29.2666 56.0958 28.611 56.0958 27.8383V27.6587V26.488V25.9182C56.0958 24.9972 56.2753 24.1387 56.8295 23.4909C57.2978 22.9367 57.93 22.5933 58.6246 22.4996L62.3008 22.4918H64.2521C64.7438 22.4918 65.1731 22.4294 65.5555 22.3045C67.0853 21.7815 67.7565 20.3923 67.9985 18.9795L68.0297 18.441C68.0765 16.3883 67.3975 14.8975 66.0004 14.0077C65.1418 13.4458 64.1584 13.1648 63.0735 13.1648C61.731 13.1648 60.5759 13.5784 59.6627 14.3902C58.7417 15.2019 58.1329 16.279 58.0314 17.5824L58.0392 19.081C56.8685 19.2605 55.7992 19.6898 54.925 20.4157C53.325 21.6333 52.6069 23.5065 52.6069 25.6997ZM73.1186 7.54515H71.2064C70.7459 7.54515 70.379 7.91979 70.379 8.37248V11.1667H74.0708V8.93445V7.06124C73.821 7.4671 73.5323 7.52173 73.1186 7.54515ZM67.0619 29.9534H64.1116H63.3623H62.7925H62.332C62.7145 29.7271 62.7691 29.4539 62.7925 29.0559V28.0256C62.7925 27.9475 62.8003 27.8695 62.8159 27.7914C62.933 27.0422 63.5886 26.4646 64.3613 26.4646H64.5408H66.2814H66.8511C67.7721 26.4646 68.6307 26.2851 69.2785 25.7309C69.9497 25.1689 70.301 24.3572 70.301 23.5065V17.8946V17.1063V16.9268C70.301 16.1463 70.8785 15.4985 71.6278 15.3814C71.7059 15.3658 71.7839 15.358 71.862 15.358H72.8922C73.2903 15.3346 73.5557 15.2878 73.7898 14.8975V19.5259V23.4752C73.7352 25.0597 73.2981 26.5192 72.3615 27.6431C71.1283 29.2354 69.2551 29.9534 67.0619 29.9534ZM75.905 22.8665V10.1911V9.40275V9.22323C75.905 8.44273 76.4826 7.79491 77.2318 7.67783C77.3099 7.66222 77.3879 7.65442 77.466 7.65442H78.4885C78.8865 7.631 79.1519 7.58417 79.386 7.19392V11.8223V22.8743H75.905V22.8665ZM87.8623 19.2293C87.8545 18.9405 87.8311 18.6517 87.7921 18.3629C87.7374 17.9181 87.636 17.6761 87.2769 17.3561C86.6291 16.7941 85.1852 16.7239 84.8496 17.52C84.6701 17.9571 84.8183 18.8234 85.0135 19.2371L87.8623 19.2293ZM91.5853 19.2995C92.5063 19.2995 93.3649 19.12 94.0127 18.5659C94.6839 18.0039 95.0351 17.1922 95.0351 16.3414V9.9413V9.76178C95.0351 8.98128 95.6127 8.33346 96.362 8.21638C96.4401 8.20077 96.5181 8.19297 96.5962 8.19297H97.6264C98.0245 8.16955 98.2898 8.12272 98.524 7.73247V16.3102C98.4694 17.8946 98.0323 19.3542 97.0957 20.4781C95.8625 22.0703 93.9893 22.7884 91.7961 22.7884H91.359V23.3191C91.3043 24.9036 90.8673 26.3631 89.9306 27.487C88.6975 29.0793 86.8242 29.7973 84.631 29.7973H79.9012C80.2836 29.571 80.3383 29.2978 80.3617 28.8997V27.8695C80.3617 27.7914 80.3695 27.7134 80.3851 27.6353C80.5022 26.886 81.1578 26.3085 81.9383 26.3085H82.1178H84.4281C85.3491 26.3085 86.2076 26.129 86.8555 25.5748C87.5267 25.0128 87.8779 24.2011 87.8779 23.3504V22.7884C86.9725 22.7884 86.0594 22.765 85.154 22.765C84.6622 22.765 84.233 22.7025 83.8505 22.5777C81.8134 21.883 81.2983 19.6508 81.2983 17.8556C81.2983 16.5522 81.829 15.4751 82.6876 14.6633C83.5461 13.8516 84.6622 13.438 86.0047 13.438C87.0896 13.438 88.0965 13.7189 89.0018 14.2809C90.4614 15.1707 91.2653 16.6614 91.3746 18.7142V19.3074H91.5853V19.2995ZM124.476 14.1794H122.564C122.103 14.1794 121.736 14.5541 121.736 15.0068V17.801H125.428V15.5687V13.6877C125.178 14.1014 124.889 14.156 124.476 14.1794ZM129.12 14.1794H127.208C126.747 14.1794 126.38 14.5541 126.38 15.0068V17.801H130.072V15.5687V13.6877C129.83 14.1014 129.541 14.156 129.12 14.1794ZM133.772 14.1794H131.859C131.399 14.1794 131.032 14.5541 131.032 15.0068V17.801H134.724V15.5687V13.6877C134.474 14.1014 134.185 14.156 133.772 14.1794Z" fill="white"/>
<path id="Vector_2" d="M146.158 27.2685C145.065 28.3612 143.372 28.7046 142.17 27.5026L140.929 26.2616C140.429 25.8089 140.039 25.5435 139.297 25.7309L164.117 0.848389L187.782 24.5133L189 25.7309C188.258 25.5435 187.868 25.8089 187.369 26.2616L186.128 27.5026C184.926 28.7046 183.232 28.3612 182.139 27.2685C181.905 27.0343 181.671 26.8002 181.445 26.5738L164.117 9.24662L146.158 27.2685Z" fill="white"/>
<path id="Vector_3" d="M182.163 33.9807L183.927 34.5505C184.614 34.73 185.105 34.7925 185.714 34.2617C185.527 34.9876 185.332 35.6978 185.074 36.4003C181.976 44.9624 173.757 51.105 164.157 51.105C154.533 51.105 146.314 44.939 143.224 36.3613C142.974 35.6666 142.786 34.972 142.599 34.2539C143.208 34.7846 143.7 34.7222 144.386 34.5427L146.15 33.9729C147.36 33.5827 149.023 34.1056 149.561 35.331C152.051 40.9272 157.663 44.8375 164.164 44.8375C170.643 44.8375 176.239 40.9428 178.744 35.3778C179.291 34.1446 180.891 33.5749 182.163 33.9807Z" fill="#E30613"/>
<path id="Vector_4" d="M175.771 4.26691C175.771 2.72152 176.762 1.28539 178.463 1.28539H180.219C180.891 1.24636 181.359 1.16051 181.749 0.504883V14.3042L175.771 8.30993V4.26691Z" fill="white"/>
</g>
</svg>
