<svg width="234" height="70" viewBox="0 0 234 70" fill="none" xmlns="http://www.w3.org/2000/svg">
<path d="M89.7761 42.3723C89.1069 42.885 88.7784 42.7873 88.7915 43.8017C89.0901 48.976 87.0323 51.5734 82.6179 51.5948H57.6995C53.7919 51.5948 49.4681 51.7158 47.5399 50.3831L47.5194 51.5948C45.9692 62.137 38.6459 68.4253 29.6846 68.4253H15.958C6.89875 68.4244 0 59.3665 0 49.1715V32.8659C0 26.5134 6.17266 26.7097 8.07747 26.4482C9.98228 26.1858 10.3761 25.5315 10.3761 25.5315V50.4166C10.7009 57.6858 14.8344 58.6686 22.5721 58.6686H28.699C38.0878 58.6686 37.4335 49.822 37.4335 49.822V32.8668C37.4335 26.5143 43.6071 26.7106 45.5119 26.4491C47.4167 26.1867 47.8106 25.5325 47.8106 25.5325V38.8266C47.8106 39.773 48.4676 42.3732 52.112 42.3732H89.7761V42.3723Z" fill="white"/>
<path d="M121.595 29.7222H127.8C127.8 29.7222 127.456 26.1532 123.795 25.6618C118.951 25.2691 120.15 29.7222 121.595 29.7222ZM111.054 51.4869C109.21 51.3519 107.226 50.9518 105.472 50.2845C104.356 61.614 96.8028 68.4244 87.4775 68.4244H72.6348C74.5396 68.4244 74.0795 66.4598 74.0795 65.0843C74.0795 58.9291 78.1513 58.6667 78.1513 58.6667H86.492C95.7519 58.6016 95.2265 49.8201 95.2265 49.8201V32.8649C95.2265 26.5124 101.4 26.7088 103.305 26.4473C105.21 26.1848 105.604 25.5306 105.604 25.5306V38.8247C105.604 41.0182 108.152 41.4519 111.055 41.598H126.47C128.275 41.598 128.852 39.2826 128.261 39.2826H119.789C110.168 39.1839 106.392 20.8151 118.081 16.6896C120.696 15.8036 122.36 15.5859 125.306 15.7729C132.858 15.7729 137.856 21.4917 138.703 29.3285V41.3123C138.737 45.1865 133.712 51.4627 126.816 51.4627H111.054V51.4859V51.4869Z" fill="white"/>
<path fill-rule="evenodd" clip-rule="evenodd" d="M178.452 58.5718C176.957 62.0617 173.764 60.1129 173.764 60.1129C170.574 58.1558 169.387 54.9758 170.203 50.5721L174.772 52.4129C174.772 52.4129 180.174 54.5515 178.452 58.5718ZM169.954 36.3772C169.954 36.3772 169.919 30.5802 174.302 30.6668C178.107 30.7412 177.491 34.4247 177.491 34.4247C176.867 38.1072 174.354 40.3956 169.954 41.29V36.3772ZM233.209 41.5096H185.069C185.069 41.5096 194.329 21.1427 173.576 21.1427C155.056 21.1427 160.179 41.6399 160.179 41.6399C156.87 41.5301 153.678 41.2797 153.678 38.8238V25.5297C153.678 25.5297 153.284 26.1849 151.379 26.4464C149.474 26.7079 143.302 26.5115 143.302 32.864V49.8192C143.302 49.8192 143.827 58.5997 134.566 58.6658H126.226C126.226 58.6658 122.154 58.9273 122.154 65.0834C122.154 66.4589 122.613 68.4235 120.709 68.4235H135.551C144.877 68.4235 152.429 61.6122 153.545 50.2836C155.926 51.1882 158.729 51.6032 161.032 51.5278C160.945 63.2808 165.346 69.1745 175.152 69.2089C191.046 69.2089 189.994 57.8143 185.726 51.593H226.05C230.465 51.5716 232.522 48.9742 232.224 43.7999C232.212 42.7846 232.54 42.0205 233.209 41.5077V41.5096Z" fill="white"/>
<path d="M221.119 30.6473C221.119 28.9349 222.512 27.5464 224.229 27.5464H228.632C229.747 27.4915 230.709 27.1267 231.518 26.452V37.7536H221.119V30.6473Z" fill="white"/>
<path d="M208.536 30.6473C208.536 28.9349 209.929 27.5464 211.646 27.5464H216.048C217.163 27.4915 218.125 27.1267 218.935 26.452V37.7536H208.536V30.6473Z" fill="white"/>
<path d="M195.876 30.6473C195.876 28.9349 197.268 27.5464 198.986 27.5464H203.389C204.504 27.4915 205.466 27.1267 206.274 26.452V37.7536H195.876V30.6473Z" fill="white"/>
<path d="M78.749 30.6473C78.749 28.9349 80.1415 27.5464 81.8596 27.5464H86.2619C87.3771 27.4915 88.3393 27.1267 89.1475 26.452V37.7536H78.749V30.6473Z" fill="white"/>
<path d="M66.165 30.6473C66.165 28.9349 67.5575 27.5464 69.2747 27.5464H73.6779C74.7931 27.4915 75.7553 27.1267 76.5636 26.452V37.7536H66.165V30.6473Z" fill="white"/>
<path d="M53.5049 30.6473C53.5049 28.9349 54.8973 27.5464 56.6145 27.5464H61.0177C62.133 27.4915 63.0952 27.1267 63.9034 26.452V37.7536H53.5049V30.6473Z" fill="white"/>
<path d="M118.679 4.21264C118.679 2.50028 120.071 1.11177 121.788 1.11177H126.192C127.307 1.05593 128.269 0.691127 129.077 0.0173492V11.3189H118.679V4.21264Z" fill="white"/>
</svg>
