<svg width="11" height="15" viewBox="0 0 11 15" fill="none" xmlns="http://www.w3.org/2000/svg">
<path d="M9.1829 10.6699C8.9504 10.1888 8.64986 9.83863 8.13099 10.0521L7.10744 10.4336C6.28803 10.8151 5.87975 10.4336 5.46862 9.85856L3.62566 5.65092C3.39317 5.1698 3.51509 4.71715 4.03395 4.50364L5.46579 3.92857C5.98465 3.71221 5.90243 3.26241 5.66993 2.78129L4.44791 0.486734C4.21541 0.00561675 3.73908 -0.111104 3.22021 0.10241C2.17965 0.532284 1.32055 1.20699 0.764824 2.20623C0.0843465 3.42753 0.424585 5.1271 0.560681 5.84166C0.696776 6.55622 1.17311 7.80883 1.78838 9.09276C2.40364 10.3795 2.94235 11.3902 3.42719 11.9624C3.9092 12.5346 5.06601 14.1004 6.49785 14.4505C7.67167 14.7352 8.93906 14.4961 9.97679 14.0662C10.4957 13.8527 10.4985 13.4 10.266 12.9161L9.1829 10.6699Z" fill="white"/>
</svg>
