<svg width="39" height="22" viewBox="0 0 39 22" fill="none" xmlns="http://www.w3.org/2000/svg">
<path id="Vector" d="M1.43306 21.0098C1.965 21.5416 2.68637 21.8403 3.43854 21.8403C4.1907 21.8403 4.91208 21.5416 5.44402 21.0098L19.4852 6.96862L33.5264 21.0098C34.0614 21.5265 34.7779 21.8124 35.5217 21.806C36.2654 21.7995 36.9769 21.5012 37.5028 20.9753C38.0287 20.4493 38.3271 19.7379 38.3335 18.9941C38.34 18.2504 38.0541 17.5338 37.5374 16.9989L21.4907 0.952176C20.9587 0.420395 20.2374 0.121657 19.4852 0.121657C18.733 0.121657 18.0117 0.420395 17.4797 0.952177L1.43306 16.9989C0.901277 17.5308 0.602539 18.2522 0.602539 19.0043C0.602539 19.7565 0.901277 20.4779 1.43306 21.0098Z" fill="#C4C4C4"/>
</svg>
