<svg width="39" height="22" viewBox="0 0 39 22" fill="none" xmlns="http://www.w3.org/2000/svg">
<path id="Vector" d="M37.5035 1.07906C36.9715 0.547274 36.2502 0.248535 35.498 0.248535C34.7458 0.248535 34.0244 0.547274 33.4925 1.07906L19.4513 15.1202L5.41012 1.07906C4.87513 0.562345 4.15859 0.27643 3.41485 0.282893C2.6711 0.289356 1.95964 0.587679 1.43371 1.11361C0.90778 1.63954 0.609461 2.35099 0.602998 3.09474C0.596535 3.83849 0.882449 4.55502 1.39916 5.09001L17.4458 21.1367C17.9778 21.6685 18.6991 21.9672 19.4513 21.9672C20.2035 21.9672 20.9248 21.6685 21.4568 21.1367L37.5035 5.09001C38.0352 4.55807 38.334 3.8367 38.334 3.08453C38.334 2.33237 38.0352 1.611 37.5035 1.07906Z" fill="#223C83"/>
</svg>
