<svg width="14" height="15" viewBox="0 0 14 15" fill="none" xmlns="http://www.w3.org/2000/svg">
<path d="M6.87402 0.96875C10.6201 0.96875 13.6553 4.00391 13.6553 7.75C13.6553 11.4961 10.6201 14.5312 6.87402 14.5312C3.12793 14.5312 0.0927734 11.4961 0.0927734 7.75C0.0927734 4.00391 3.12793 0.96875 6.87402 0.96875ZM10.1826 5.61719C10.292 5.17969 10.0186 4.98828 9.71777 5.09766L3.18262 7.61328C2.74512 7.77734 2.74512 8.05078 3.10059 8.16016L4.76855 8.67969L8.65137 6.21875C8.84277 6.10938 9.00684 6.19141 8.87012 6.30078L5.72559 9.14453L5.61621 10.8672C5.78027 10.8672 5.8623 10.7852 5.94434 10.7031L6.76465 9.91016L8.45996 11.168C8.78809 11.332 9.00684 11.25 9.08887 10.8672L10.1826 5.61719Z" fill="white"/>
</svg>
