<svg width="29" height="23" viewBox="0 0 29 23" fill="none" xmlns="http://www.w3.org/2000/svg">
<path id="Vector" d="M28.9041 2.74718C27.8737 3.21554 26.763 3.52333 25.6121 3.67053C26.7897 2.96129 27.6997 1.83721 28.1279 0.485639C27.0172 1.15473 25.7861 1.6231 24.488 1.89074C23.4309 0.739895 21.9455 0.0708008 20.2594 0.0708008C17.1146 0.0708008 14.5453 2.64012 14.5453 5.81163C14.5453 6.26661 14.5988 6.70821 14.6925 7.12305C9.92857 6.88218 5.68651 4.59388 2.86293 1.12797C2.3678 1.97103 2.08679 2.96129 2.08679 4.00507C2.08679 5.99897 3.09043 7.76538 4.64272 8.76902C3.69261 8.76902 2.80941 8.50138 2.03326 8.09993V8.14007C2.03326 10.9235 4.01378 13.252 6.63662 13.7738C5.79454 14.0043 4.91049 14.0364 4.05392 13.8675C4.41738 15.0083 5.1292 16.0065 6.08933 16.7218C7.04945 17.4371 8.20959 17.8335 9.40667 17.8553C7.37748 19.4617 4.86218 20.33 2.27413 20.3176C1.81915 20.3176 1.36416 20.2908 0.90918 20.2373C3.45174 21.8699 6.47604 22.82 9.71446 22.82C20.2594 22.82 26.0537 14.0682 26.0537 6.48072C26.0537 6.22646 26.0537 5.98559 26.0403 5.73133C27.1644 4.92842 28.1279 3.9114 28.9041 2.74718Z" fill="white"/>
</svg>
